{
copyright = "Copyright (c) 2024 by Vladimir Nikolic. All rights reserved.";
designer = "Vladimir Nikolic";
designerURL = "https://www.coroflot.com/vladimirnikolic";
familyName = Printer;
customParameters = (
{
name = glyphOrder;
value = (
.notdef,
NULL,
CR,
space,
E,
F,
G,
H,
I,
J,
K,
L,
M,
N,
P,
Q,
R,
S,
T,
U,
V,
W,
X,
Y,
Z,
a,
b,
c,
d,
e,
f,
g,
h,
i,
j,
k,
l,
m,
n,
p,
q,
r,
s,
t,
u,
v,
w,
x,
y,
z,
D,
B,
C,
A,
two,
one,
zero,
three,
four,
five,
six,
nine,
eight,
seven,
slash,
hyphen,
plus,
exclam,
quotedbl,
dollar,
percent,
semicolon,
equal,
quotesingle,
colon,
period,
comma,
quotedblright,
quotedblleft,
quoteleft,
quoteright,
bullet,
acute,
caron,
ogonek,
cedilla,
dieresis,
dotaccent,
grave,
adieresis,
breve,
abreve,
germandbls,
bracketleft,
bracketright,
backslash,
bar,
Euro,
zdotaccent,
zacute,
zcaron,
tcaron,
sacute,
Zcaron,
Zacute,
Sacute,
aacute,
racute,
lacute,
cacute,
ccedilla,
ccaron,
eacute,
edieresis,
ecaron,
icircumflex,
iacute,
nacute,
ncaron,
rcaron,
Racute,
Aacute,
Abreve,
Adieresis,
Lacute,
Cacute,
Ccedilla,
Ccaron,
Eacute,
Eogonek,
Edieresis,
Ecaron,
Iacute,
Icircumflex,
Nacute,
Ncaron,
eogonek,
uacute,
uhungarumlaut,
udieresis,
yacute,
Uacute,
Uhungarumlaut,
Udieresis,
Yacute,
Rcaron,
Aogonek,
aogonek,
scedilla,
Scedilla,
scaron,
Scaron,
trademark,
dagger,
daggerdbl,
lslash,
Lslash,
Zdotaccent,
paragraph,
Uring,
ring,
uring,
undercommaaccent,
lcaron,
Lcaron,
at,
hungarumlaut,
divide,
multiply,
ellipsis,
quotedblbase,
eth,
O,
Oslash,
oslash,
ydieresis,
Thorn,
thorn,
o,
odieresis,
oacute,
Oacute,
Odieresis,
ugrave,
Ugrave,
egrave,
Egrave,
igrave,
Igrave,
idieresis,
Idieresis,
ograve,
Ograve,
cdotaccent,
Cdotaccent,
Ydieresis,
agrave,
Agrave,
exclamdown,
sterling,
Dcroat,
dcroat,
question,
yen,
gbreve,
Gbreve,
gcircumflex,
Gcircumflex,
edotaccent,
Edotaccent,
ebreve,
Ebreve,
AE,
ae,
Eth,
questiondown,
macron,
amacron,
Amacron,
macron.case,
ohungarumlaut,
Ohungarumlaut,
ubreve,
umacron,
Umacron,
Ubreve,
Tbar,
tbar,
wdieresis,
wacute,
wgrave,

glyphs = (
{
glyphname = E;
layers = (
{
layerId = "AE796192-B776-4211-9DF5-23F45CECCAB6";
paths = (
{
nodes = (
"1054 695 LINE",
"1054 416 LINE",
"430 416 LINE",
"430 363 LINE",
"846 363 LINE",
"846 208 LINE",
"430 208 LINE",
"430 155 LINE",
"1054 155 LINE",
"1054 0 LINE",
"26 0 LINE",
"26 695 LINE"
);
},
{
nodes = (
"1024 125 LINE",
"430 125 LINE",
"430 30 LINE",
"1024 30 LINE"
);
},
{
nodes = (
"400 208 LINE",
"56 208 LINE",
"56 30 LINE",
"400 30 LINE"
);
},
{
nodes = (
"816 333 LINE",
"400 333 LINE",
"400 665 LINE",
"56 665 LINE",
"56 238 LINE",
"816 238 LINE"
);
},
{
nodes = (
"1024 665 LINE",
"430 665 LINE",
"430 446 LINE",
"1024 446 LINE"
);
},
{
nodes = (
"1005 106 LINE",
"1005 49 LINE",
"449 49 LINE",
"449 106 LINE"
);
},
{
nodes = (
"381 49 LINE",
"75 49 LINE",
"75 189 LINE",
"381 189 LINE"
);
},
{
nodes = (
"797 314 LINE",
"797 257 LINE",
"75 257 LINE",
"75 646 LINE",
"381 646 LINE",
"381 314 LINE"
);
},
{
nodes = (
"1005 646 LINE",
"1005 465 LINE",
"449 465 LINE",
"449 646 LINE"
);
}
);
width = 1078;
}
);
unicode = 0045;
},
{
glyphname = F;
layers = (
{
layerId = "AE796192-B776-4211-9DF5-23F45CECCAB6";
paths = (
{
nodes = (
"1060 695 LINE",
"1060 416 LINE",
"437 416 LINE",
"437 363 LINE",
"852 363 LINE",
"852 208 LINE",
"437 208 LINE",
"437 0 LINE",
"33 0 LINE",
"33 695 LINE"
);
},
{
nodes = (
"822 333 LINE",
"63 333 LINE",
"63 30 LINE",
"407 30 LINE",
"407 238 LINE",
"822 238 LINE"
);
},
{
nodes = (
"63 363 LINE",
"407 363 LINE",
"407 665 LINE",
"63 665 LINE"
);
},
{
nodes = (
"1030 665 LINE",
"437 665 LINE",
"437 446 LINE",
"1030 446 LINE"
);
},
{
nodes = (
"803 314 LINE",
"803 257 LINE",
"388 257 LINE",
"388 49 LINE",
"82 49 LINE",
"82 314 LINE"
);
},
{
nodes = (
"82 382 LINE",
"82 646 LINE",
"388 646 LINE",
"388 382 LINE"
);
},
{
nodes = (
"1011 646 LINE",
"1011 465 LINE",
"456 465 LINE",
"456 646 LINE"
);
}
);
width = 1083;
}
);
unicode = 0046;
},
{
glyphname = G;
layers = (
{
layerId = "AE796192-B776-4211-9DF5-23F45CECCAB6";
paths = (
{
nodes = (
"424 279 LINE",
"757 279 LINE",
"757 363 LINE",
"1161 363 LINE",
"1161 0 LINE",
"367 0 LINE",
"298 1 OFFCURVE",
"172 54 OFFCURVE",
"75 147 OFFCURVE",
"18 273 OFFCURVE",
"18 347 QCURVE SMOOTH",
"18 419 OFFCURVE",
"73 545 OFFCURVE",
"168 640 OFFCURVE",
"295 695 OFFCURVE",
"367 695 QCURVE SMOOTH",
"825 695 LINE SMOOTH",
"884 695 OFFCURVE",
"993 657 OFFCURVE",
"1082 588 OFFCURVE",
"1146 492 OFFCURVE",
"1161 434 QCURVE SMOOTH",
"1166 416 LINE",
"424 416 LINE"
);
},
{
nodes = (
"424 665 LINE",
"424 446 LINE",
"1126 446 LINE",
"1110 495 OFFCURVE",
"1051 575 OFFCURVE",
"972 633 OFFCURVE",
"877 665 OFFCURVE",
"825 665 QCURVE SMOOTH"
);
},
{
nodes = (
"367 665 LINE SMOOTH",
"301 665 OFFCURVE",
"186 615 OFFCURVE",
"100 529 OFFCURVE",
"50 414 OFFCURVE",
"50 348 QCURVE SMOOTH",
"50 330 OFFCURVE",
"54 296 OFFCURVE",
"57 279 QCURVE",
"394 279 LINE",
"394 665 LINE"
);
},
{
nodes = (
"394 30 LINE",
"394 249 LINE",
"65 249 LINE",
"81 201 OFFCURVE",
"140 121 OFFCURVE",
"219 63 OFFCURVE",
"314 30 OFFCURVE",
"367 30 QCURVE SMOOTH"
);
},
{
nodes = (
"787 30 LINE",
"1131 30 LINE",
"1131 333 LINE",
"787 333 LINE"
);
},
{
nodes = (
"424 249 LINE",
"424 30 LINE",
"757 30 LINE",
"757 249 LINE"
);
},
{
nodes = (
"825 646 LINE SMOOTH",
"870 646 OFFCURVE",
"954 620 OFFCURVE",
"1025 572 OFFCURVE",
"1081 505 OFFCURVE",
"1099 465 QCURVE",
"443 465 LINE",
"443 646 LINE"
);
},
{
nodes = (
"375 646 LINE",
"375 298 LINE",
"73 298 LINE",
"71 312 OFFCURVE",
"69 334 OFFCURVE",
"69 348 QCURVE SMOOTH",
"69 410 OFFCURVE",
"116 518 OFFCURVE",
"197 599 OFFCURVE",
"305 646 OFFCURVE",
"367 646 QCURVE SMOOTH"
);
},
{
nodes = (
"367 49 LINE SMOOTH",
"321 49 OFFCURVE",
"236 75 OFFCURVE",
"164 123 OFFCURVE",
"109 189 OFFCURVE",
"92 230 QCURVE",
"375 230 LINE",
"375 49 LINE"
);
},
{
nodes = (
"806 314 LINE",
"1112 314 LINE",
"1112 49 LINE",
"806 49 LINE"
);
},
{
nodes = (
"738 230 LINE",
"738 49 LINE",
"443 49 LINE",
"443 230 LINE"
);
}
);
width = 1189;
}
);
unicode = 0047;
},
{
glyphname = H;
layers = (
{
layerId = "AE796192-B776-4211-9DF5-23F45CECCAB6";
paths = (
{
nodes = (
"779 362 LINE",
"779 695 LINE",
"1183 695 LINE",
"1183 0 LINE",
"779 0 LINE",
"779 208 LINE",
"435 208 LINE",
"435 0 LINE",
"31 0 LINE",
"31 695 LINE",
"435 695 LINE",
"435 362 LINE"
);
},
{
nodes = (
"61 665 LINE",
"61 238 LINE",
"405 238 LINE",
"405 665 LINE"
);
},
{
nodes = (
"405 30 LINE",
"405 208 LINE",
"61 208 LINE",
"61 30 LINE"
);
},
{
nodes = (
"435 238 LINE",
"779 238 LINE",
"779 332 LINE",
"435 332 LINE"
);
},
{
nodes = (
"809 665 LINE",
"809 30 LINE",
"1153 30 LINE",
"1153 665 LINE"
);
},
{
nodes = (
"80 646 LINE",
"386 646 LINE",
"386 257 LINE",
"80 257 LINE"
);
},
{
nodes = (
"386 49 LINE",
"80 49 LINE",
"80 189 LINE",
"386 189 LINE"
);
},
{
nodes = (
"454 257 LINE",
"454 313 LINE",
"760 313 LINE",
"760 257 LINE"
);
},
{
nodes = (
"828 646 LINE",
"1134 646 LINE",
"1134 49 LINE",
"828 49 LINE"
);
}
);
width = 1209;
}
);
unicode = 0048;
},
{
glyphname = I;
layers = (
{
layerId = "AE796192-B776-4211-9DF5-23F45CECCAB6";
paths = (
{
nodes = (
"26 695 LINE",
"430 695 LINE",
"430 0 LINE",
"26 0 LINE"
);
},
{
nodes = (
"400 30 LINE",
"400 333 LINE",
"56 333 LINE",
"56 30 LINE"
);
},
{
nodes = (
"56 665 LINE",
"56 363 LINE",
"400 363 LINE",
"400 665 LINE"
);
},
{
nodes = (
"381 49 LINE",
"75 49 LINE",
"75 314 LINE",
"381 314 LINE"
);
},
{
nodes = (
"75 646 LINE",
"381 646 LINE",
"381 382 LINE",
"75 382 LINE"
);
}
);
width = 455;
}
);
unicode = 0049;
},
{
glyphname = J;
layers = (
{
layerId = "AE796192-B776-4211-9DF5-23F45CECCAB6";
paths = (
{
nodes = (
"1093 181 LINE SMOOTH",
"1093 145 OFFCURVE",
"1067 82 OFFCURVE",
"1022 34 OFFCURVE",
"961 4 OFFCURVE",
"926 1 QCURVE",
"926 0 LINE",
"190 0 LINE",
"190 1 LINE",
"155 4 OFFCURVE",
"95 34 OFFCURVE",
"50 82 OFFCURVE",
"24 145 OFFCURVE",
"24 181 QCURVE SMOOTH",
"24 279 LINE",
"730 279 LINE",
"730 416 LINE",
"24 416 LINE",
"24 695 LINE",
"1093 695 LINE"
);
},
{
nodes = (
"54 446 LINE",
"740 446 LINE",
"1033 665 LINE",
"54 665 LINE"
);
},
{
nodes = (
"54 181 LINE SMOOTH",
"54 150 OFFCURVE",
"78 95 OFFCURVE",
"119 54 OFFCURVE",
"174 30 OFFCURVE",
"205 30 QCURVE SMOOTH",
"236 30 OFFCURVE",
"291 54 OFFCURVE",
"332 95 OFFCURVE",
"356 150 OFFCURVE",
"356 181 QCURVE SMOOTH",
"356 249 LINE",
"54 249 LINE"
);
},
{
nodes = (
"812 30 LINE",
"775 54 OFFCURVE",
"730 133 OFFCURVE",
"730 181 QCURVE SMOOTH",
"730 249 LINE",
"386 249 LINE",
"386 181 LINE SMOOTH",
"386 133 OFFCURVE",
"342 54 OFFCURVE",
"305 30 QCURVE"
);
},
{
nodes = (
"942 30 OFFCURVE",
"998 54 OFFCURVE",
"1039 95 OFFCURVE",
"1063 150 OFFCURVE",
"1063 181 QCURVE SMOOTH",
"1063 650 LINE",
"760 423 LINE",
"760 181 LINE SMOOTH",
"760 150 OFFCURVE",
"784 95 OFFCURVE",
"825 54 OFFCURVE",
"880 30 OFFCURVE",
"911 30 QCURVE SMOOTH"
);
},
{
nodes = (
"73 646 LINE",
"977 646 LINE",
"941 619 OFFCURVE",
"883 575 OFFCURVE",
"827 534 OFFCURVE",
"769 491 OFFCURVE",
"734 465 QCURVE",
"73 465 LINE"
);
},
{
nodes = (
"73 230 LINE",
"337 230 LINE",
"337 181 LINE SMOOTH",
"337 154 OFFCURVE",
"316 106 OFFCURVE",
"280 70 OFFCURVE",
"232 49 OFFCURVE",
"205 49 QCURVE SMOOTH",
"178 49 OFFCURVE",
"130 70 OFFCURVE",
"94 106 OFFCURVE",
"73 154 OFFCURVE",
"73 181 QCURVE SMOOTH"
);
},
{
nodes = (
"355 49 LINE",
"405 104 OFFCURVE",
"405 181 QCURVE SMOOTH",
"405 230 LINE",
"711 230 LINE",
"711 181 LINE SMOOTH",
"711 143 OFFCURVE",
"737 75 OFFCURVE",
"761 49 QCURVE"
);
},
{
nodes = (
"884 49 OFFCURVE",
"836 70 OFFCURVE",
"800 106 OFFCURVE",
"779 154 OFFCURVE",
"779 181 QCURVE SMOOTH",
"779 414 LINE",
"1044 613 LINE",
"1044 181 LINE SMOOTH",
"1044 154 OFFCURVE",
"1023 106 OFFCURVE",
"987 70 OFFCURVE",
"938 49 OFFCURVE",
"911 49 QCURVE SMOOTH"
);
}
);
width = 1118;
}
);
unicode = 004A;
},
{
glyphname = K;
layers = (
{
layerId = "AE796192-B776-4211-9DF5-23F45CECCAB6";
paths = (
{
nodes = (
"1139 695 LINE",
"1139 514 LINE SMOOTH",
"1139 458 OFFCURVE",
"1078 369 OFFCURVE",
"1030 348 QCURVE",
"1078 327 OFFCURVE",
"1139 238 OFFCURVE",
"1139 182 QCURVE SMOOTH",
"1139 0 LINE",
"28 0 LINE",
"28 695 LINE"
);
},
{
nodes = (
"432 665 LINE",
"432 363 LINE",
"776 363 LINE",
"776 665 LINE"
);
},
{
nodes = (
"402 30 LINE",
"402 665 LINE",
"58 665 LINE",
"58 30 LINE"
);
},
{
nodes = (
"776 30 LINE",
"776 333 LINE",
"432 333 LINE",
"432 30 LINE"
);
},
{
nodes = (
"1109 182 LINE SMOOTH",
"1109 213 OFFCURVE",
"1085 268 OFFCURVE",
"1044 309 OFFCURVE",
"988 333 OFFCURVE",
"957 333 QCURVE SMOOTH",
"806 333 LINE",
"806 30 LINE",
"1109 30 LINE"
);
},
{
nodes = (
"806 665 LINE",
"806 363 LINE",
"957 363 LINE SMOOTH",
"988 363 OFFCURVE",
"1044 387 OFFCURVE",
"1085 428 OFFCURVE",
"1109 483 OFFCURVE",
"1109 514 QCURVE SMOOTH",
"1109 665 LINE"
);
},
{
nodes = (
"757 646 LINE",
"757 382 LINE",
"451 382 LINE",
"451 646 LINE"
);
},
{
nodes = (
"77 49 LINE",
"77 646 LINE",
"383 646 LINE",
"383 49 LINE"
);
},
{
nodes = (
"451 49 LINE",
"451 314 LINE",
"757 314 LINE",
"757 49 LINE"
);
},
{
nodes = (
"1090 49 LINE",
"825 49 LINE",
"825 314 LINE",
"957 314 LINE SMOOTH",
"984 314 OFFCURVE",
"1033 293 OFFCURVE",
"1069 257 OFFCURVE",
"1090 209 OFFCURVE",
"1090 182 QCURVE SMOOTH"
);
},
{
nodes = (
"1090 646 LINE",
"1090 514 LINE SMOOTH",
"1090 487 OFFCURVE",
"1069 439 OFFCURVE",
"1033 403 OFFCURVE",
"984 382 OFFCURVE",
"957 382 QCURVE SMOOTH",
"825 382 LINE",
"825 646 LINE"
);
}
);
width = 1163;
}
);
unicode = 004B;
},
{
glyphname = L;
layers = (
{
layerId = "AE796192-B776-4211-9DF5-23F45CECCAB6";
paths = (
{
nodes = (
"432 695 LINE",
"432 280 LINE",
"889 280 LINE",
"889 0 LINE",
"28 0 LINE",
"28 695 LINE"
);
},
{
nodes = (
"859 250 LINE",
"432 250 LINE",
"432 30 LINE",
"859 30 LINE"
);
},
{
nodes = (
"402 30 LINE",
"402 665 LINE",
"58 665 LINE",
"58 30 LINE"
);
},
{
nodes = (
"840 231 LINE",
"840 49 LINE",
"451 49 LINE",
"451 231 LINE"
);
},
{
nodes = (
"383 49 LINE",
"77 49 LINE",
"77 646 LINE",
"383 646 LINE"
);
}
);
width = 914;
}
);
unicode = 004C;
},
{
glyphname = M;
layers = (
{
layerId = "AE796192-B776-4211-9DF5-23F45CECCAB6";
paths = (
{
nodes = (
"1221 0 LINE",
"858 0 LINE",
"858 260 LINE",
"624 -8 LINE",
"390 260 LINE",
"390 0 LINE",
"27 0 LINE",
"27 695 LINE",
"381 695 LINE",
"624 417 LINE",
"867 695 LINE",
"1221 695 LINE"
);
},
{
nodes = (
"360 30 LINE",
"360 285 LINE",
"57 285 LINE",
"57 30 LINE"
);
},
{
nodes = (
"609 55 LINE",
"609 389 LINE",
"368 665 LINE",
"57 665 LINE",
"57 315 LINE",
"381 315 LINE"
);
},
{
nodes = (
"639 55 LINE",
"867 315 LINE",
"1191 315 LINE",
"1191 665 LINE",
"880 665 LINE",
"639 389 LINE"
);
},
{
nodes = (
"1191 285 LINE",
"888 285 LINE",
"888 30 LINE",
"1191 30 LINE"
);
},
{
nodes = (
"76 49 LINE",
"76 266 LINE",
"341 266 LINE",
"341 49 LINE"
);
},
{
nodes = (
"390 334 LINE",
"76 334 LINE",
"76 646 LINE",
"360 646 LINE",
"419 579 OFFCURVE",
"532 450 OFFCURVE",
"590 383 QCURVE",
"590 105 LINE"
);
},
{
nodes = (
"658 383 LINE",
"717 451 OFFCURVE",
"829 578 OFFCURVE",
"888 646 QCURVE",
"1172 646 LINE",
"1172 334 LINE",
"858 334 LINE",
"658 105 LINE"
);
},
{
nodes = (
"1172 49 LINE",
"907 49 LINE",
"907 266 LINE",
"1172 266 LINE"
);
}
);
width = 1250;
}
);
unicode = 004D;
},
{
glyphname = N;
layers = (
{
layerId = "AE796192-B776-4211-9DF5-23F45CECCAB6";
paths = (
{
nodes = (
"777 695 LINE",
"1181 695 LINE",
"1181 0 LINE",
"787 0 LINE",
"433 314 LINE",
"433 0 LINE",
"29 0 LINE",
"29 695 LINE",
"424 695 LINE",
"777 380 LINE"
);
},
{
nodes = (
"403 340 LINE",
"59 646 LINE",
"59 30 LINE",
"403 30 LINE"
);
},
{
nodes = (
"1152 30 LINE",
"1152 332 LINE",
"787 332 LINE",
"413 665 LINE",
"84 665 LINE",
"798 30 LINE"
);
},
{
nodes = (
"807 665 LINE",
"807 362 LINE",
"1152 362 LINE",
"1152 665 LINE"
);
},
{
nodes = (
"384 49 LINE",
"78 49 LINE",
"78 603 LINE",
"120 565 OFFCURVE",
"195 500 OFFCURVE",
"268 435 OFFCURVE",
"342 369 OFFCURVE",
"384 332 QCURVE"
);
},
{
nodes = (
"805 49 LINE",
"635 200 OFFCURVE",
"304 496 OFFCURVE",
"134 646 QCURVE",
"406 646 LINE",
"780 313 LINE",
"1133 313 LINE",
"1133 49 LINE"
);
},
{
nodes = (
"1133 646 LINE",
"1133 381 LINE",
"826 381 LINE",
"826 646 LINE"
);
}
);
width = 1208;
}
);
unicode = 004E;
},
{
glyphname = P;
layers = (
{
layerId = "AE796192-B776-4211-9DF5-23F45CECCAB6";
paths = (
{
nodes = (
"890 695 LINE",
"933 692 OFFCURVE",
"1009 655 OFFCURVE",
"1066 595 OFFCURVE",
"1098 517 OFFCURVE",
"1098 473 QCURVE SMOOTH",
"1098 429 OFFCURVE",
"1066 350 OFFCURVE",
"1009 290 OFFCURVE",
"933 253 OFFCURVE",
"890 250 QCURVE",
"438 250 LINE",
"438 0 LINE",
"34 0 LINE",
"34 695 LINE"
);
},
{
nodes = (
"64 488 LINE",
"653 488 LINE",
"657 545 OFFCURVE",
"717 638 OFFCURVE",
"764 665 QCURVE",
"64 665 LINE"
);
},
{
nodes = (
"408 250 LINE",
"64 250 LINE",
"64 30 LINE",
"408 30 LINE"
);
},
{
nodes = (
"764 280 LINE",
"717 307 OFFCURVE",
"657 401 OFFCURVE",
"653 458 QCURVE",
"64 458 LINE",
"64 280 LINE"
);
},
{
nodes = (
"915 280 OFFCURVE",
"985 310 OFFCURVE",
"1038 363 OFFCURVE",
"1068 433 OFFCURVE",
"1068 473 QCURVE SMOOTH",
"1068 513 OFFCURVE",
"1038 583 OFFCURVE",
"985 635 OFFCURVE",
"915 665 OFFCURVE",
"875 665 QCURVE SMOOTH",
"835 665 OFFCURVE",
"765 635 OFFCURVE",
"713 583 OFFCURVE",
"683 513 OFFCURVE",
"683 473 QCURVE SMOOTH",
"683 433 OFFCURVE",
"713 363 OFFCURVE",
"765 310 OFFCURVE",
"835 280 OFFCURVE",
"875 280 QCURVE SMOOTH"
);
},
{
nodes = (
"83 646 LINE",
"707 646 LINE",
"680 619 OFFCURVE",
"642 547 OFFCURVE",
"636 507 QCURVE",
"83 507 LINE"
);
},
{
nodes = (
"389 49 LINE",
"83 49 LINE",
"83 231 LINE",
"389 231 LINE"
);
},
{
nodes = (
"83 299 LINE",
"83 439 LINE",
"636 439 LINE",
"642 399 OFFCURVE",
"680 326 OFFCURVE",
"708 299 QCURVE"
);
},
{
nodes = (
"839 299 OFFCURVE",
"776 326 OFFCURVE",
"729 374 OFFCURVE",
"702 437 OFFCURVE",
"702 473 QCURVE SMOOTH",
"702 509 OFFCURVE",
"729 572 OFFCURVE",
"776 619 OFFCURVE",
"839 646 OFFCURVE",
"875 646 QCURVE SMOOTH",
"911 646 OFFCURVE",
"974 619 OFFCURVE",
"1022 572 OFFCURVE",
"1049 509 OFFCURVE",
"1049 473 QCURVE SMOOTH",
"1049 437 OFFCURVE",
"1022 374 OFFCURVE",
"974 326 OFFCURVE",
"911 299 OFFCURVE",
"875 299 QCURVE SMOOTH"
);
}
);
width = 1118;
}
);
unicode = 0050;
},
{
glyphname = Q;
layers = (
{
layerId = "AE796192-B776-4211-9DF5-23F45CECCAB6";
paths = (
{
nodes = (
"841 695 LINE",
"910 692 OFFCURVE",
"1031 635 OFFCURVE",
"1121 541 OFFCURVE",
"1173 417 OFFCURVE",
"1173 347 QCURVE SMOOTH",
"1173 277 OFFCURVE",
"1121 154 OFFCURVE",
"1031 60 OFFCURVE",
"910 3 OFFCURVE",
"841 0 QCURVE",
"841 -125 LINE",
"354 -125 LINE",
"354 0 LINE",
"285 3 OFFCURVE",
"163 60 OFFCURVE",
"73 154 OFFCURVE",
"21 277 OFFCURVE",
"21 347 QCURVE SMOOTH",
"21 419 OFFCURVE",
"76 546 OFFCURVE",
"170 640 OFFCURVE",
"297 695 OFFCURVE",
"369 695 QCURVE SMOOTH"
);
},
{
nodes = (
"811 664 LINE",
"748 661 OFFCURVE",
"638 609 OFFCURVE",
"555 523 OFFCURVE",
"508 411 OFFCURVE",
"508 347 QCURVE SMOOTH",
"508 283 OFFCURVE",
"555 170 OFFCURVE",
"638 85 OFFCURVE",
"748 33 OFFCURVE",
"811 30 QCURVE"
);
},
{
nodes = (
"51 281 OFFCURVE",
"101 166 OFFCURVE",
"188 80 OFFCURVE",
"303 30 OFFCURVE",
"369 30 QCURVE SMOOTH",
"685 30 LINE",
"639 50 OFFCURVE",
"563 115 OFFCURVE",
"508 197 OFFCURVE",
"478 294 OFFCURVE",
"478 347 QCURVE SMOOTH",
"478 400 OFFCURVE",
"508 497 OFFCURVE",
"563 579 OFFCURVE",
"639 644 OFFCURVE",
"685 665 QCURVE",
"369 665 LINE SMOOTH",
"303 665 OFFCURVE",
"188 615 OFFCURVE",
"101 528 OFFCURVE",
"51 413 OFFCURVE",
"51 347 QCURVE SMOOTH"
);
},
{
nodes = (
"811 -95 LINE",
"811 0 LINE",
"384 0 LINE",
"384 -95 LINE"
);
},
{
nodes = (
"841 30 LINE",
"904 33 OFFCURVE",
"1014 85 OFFCURVE",
"1096 170 OFFCURVE",
"1143 283 OFFCURVE",
"1143 347 QCURVE SMOOTH",
"1143 411 OFFCURVE",
"1096 523 OFFCURVE",
"1014 609 OFFCURVE",
"904 661 OFFCURVE",
"841 664 QCURVE"
);
},
{
nodes = (
"792 51 LINE",
"736 57 OFFCURVE",
"639 108 OFFCURVE",
"568 188 OFFCURVE",
"527 290 OFFCURVE",
"527 347 QCURVE SMOOTH",
"527 404 OFFCURVE",
"568 506 OFFCURVE",
"639 586 OFFCURVE",
"736 637 OFFCURVE",
"792 643 QCURVE"
);
},
{
nodes = (
"70 409 OFFCURVE",
"117 518 OFFCURVE",
"198 599 OFFCURVE",
"307 646 OFFCURVE",
"369 646 QCURVE SMOOTH",
"614 646 LINE",
"538 596 OFFCURVE",
"459 444 OFFCURVE",
"459 347 QCURVE SMOOTH",
"459 302 OFFCURVE",
"482 216 OFFCURVE",
"522 139 OFFCURVE",
"579 74 OFFCURVE",
"613 49 QCURVE",
"369 49 LINE SMOOTH",
"307 49 OFFCURVE",
"198 96 OFFCURVE",
"117 177 OFFCURVE",
"70 285 OFFCURVE",
"70 347 QCURVE SMOOTH"
);
},
{
nodes = (
"403 -76 LINE",
"403 -19 LINE",
"792 -19 LINE",
"792 -76 LINE"
);
},
{
nodes = (
"860 643 LINE",
"916 637 OFFCURVE",
"1012 586 OFFCURVE",
"1083 506 OFFCURVE",
"1124 404 OFFCURVE",
"1124 347 QCURVE SMOOTH",
"1124 290 OFFCURVE",
"1083 188 OFFCURVE",
"1012 108 OFFCURVE",
"915 57 OFFCURVE",
"860 50 QCURVE"
);
}
);
width = 1195;
}
);
unicode = 0051;
},
{
glyphname = R;
layers = (
{
layerId = "AE796192-B776-4211-9DF5-23F45CECCAB6";
paths = (
{
nodes = (
"1180 431 OFFCURVE",
"1150 355 OFFCURVE",
"1098 296 OFFCURVE",
"1028 258 OFFCURVE",
"987 252 QCURVE",
"1197 0 LINE",
"784 0 LINE",
"432 423 LINE",
"432 0 LINE",
"28 0 LINE",
"28 695 LINE",
"972 695 LINE",
"1015 692 OFFCURVE",
"1091 655 OFFCURVE",
"1148 595 OFFCURVE",
"1180 517 OFFCURVE",
"1180 473 QCURVE SMOOTH"
);
},
{
nodes = (
"1150 513 OFFCURVE",
"1119 583 OFFCURVE",
"1067 635 OFFCURVE",
"997 665 OFFCURVE",
"957 665 QCURVE SMOOTH",
"917 665 OFFCURVE",
"847 635 OFFCURVE",
"794 583 OFFCURVE",
"764 513 OFFCURVE",
"764 473 QCURVE SMOOTH",
"764 433 OFFCURVE",
"794 363 OFFCURVE",
"847 310 OFFCURVE",
"917 280 OFFCURVE",
"957 280 QCURVE SMOOTH",
"997 280 OFFCURVE",
"1067 310 OFFCURVE",
"1119 363 OFFCURVE",
"1150 433 OFFCURVE",
"1150 473 QCURVE SMOOTH"
);
},
{
nodes = (
"269 665 LINE",
"402 506 LINE",
"402 665 LINE"
);
},
{
nodes = (
"402 459 LINE",
"230 665 LINE",
"58 665 LINE",
"58 30 LINE",
"402 30 LINE"
);
},
{
nodes = (
"590 280 LINE",
"846 280 LINE",
"795 309 OFFCURVE",
"734 410 OFFCURVE",
"734 473 QCURVE SMOOTH",
"734 535 OFFCURVE",
"795 636 OFFCURVE",
"846 665 QCURVE",
"432 665 LINE",
"432 470 LINE"
);
},
{
nodes = (
"1133 30 LINE",
"950 250 LINE",
"615 250 LINE",
"798 30 LINE"
);
},
{
nodes = (
"1131 437 OFFCURVE",
"1104 374 OFFCURVE",
"1056 326 OFFCURVE",
"993 299 OFFCURVE",
"957 299 QCURVE SMOOTH",
"921 299 OFFCURVE",
"858 326 OFFCURVE",
"810 374 OFFCURVE",
"783 437 OFFCURVE",
"783 473 QCURVE SMOOTH",
"783 509 OFFCURVE",
"810 572 OFFCURVE",
"858 619 OFFCURVE",
"921 646 OFFCURVE",
"957 646 QCURVE SMOOTH",
"993 646 OFFCURVE",
"1056 619 OFFCURVE",
"1104 572 OFFCURVE",
"1131 509 OFFCURVE",
"1131 473 QCURVE SMOOTH"
);
},
{
nodes = (
"383 646 LINE",
"383 560 LINE",
"359 589 OFFCURVE",
"327 626 OFFCURVE",
"310 646 QCURVE"
);
},
{
nodes = (
"383 49 LINE",
"77 49 LINE",
"77 646 LINE",
"221 646 LINE",
"383 451 LINE"
);
},
{
nodes = (
"451 477 LINE",
"451 646 LINE",
"788 646 LINE",
"753 613 OFFCURVE",
"715 526 OFFCURVE",
"715 473 QCURVE SMOOTH",
"715 419 OFFCURVE",
"753 332 OFFCURVE",
"788 299 QCURVE",
"599 299 LINE"
);
},
{
nodes = (
"806 49 LINE",
"766 97 OFFCURVE",
"694 184 OFFCURVE",
"656 231 QCURVE",
"942 231 LINE",
"982 183 OFFCURVE",
"1054 96 OFFCURVE",
"1092 49 QCURVE"
);
}
);
width = 1209;
}
);
unicode = 0052;
},
{
glyphname = S;
layers = (
{
layerId = "AE796192-B776-4211-9DF5-23F45CECCAB6";
paths = (
{
nodes = (
"1139 695 LINE",
"1139 498 LINE",
"973 498 LINE",
"973 361 LINE",
"1007 358 OFFCURVE",
"1068 328 OFFCURVE",
"1113 280 OFFCURVE",
"1139 217 OFFCURVE",
"1139 181 QCURVE SMOOTH",
"1139 145 OFFCURVE",
"1113 82 OFFCURVE",
"1068 34 OFFCURVE",
"1007 3 OFFCURVE",
"973 0 QCURVE",
"28 0 LINE",
"28 196 LINE",
"195 196 LINE",
"195 333 LINE",
"160 336 OFFCURVE",
"99 366 OFFCURVE",
"54 414 OFFCURVE",
"28 477 OFFCURVE",
"28 513 QCURVE SMOOTH",
"28 549 OFFCURVE",
"54 612 OFFCURVE",
"100 661 OFFCURVE",
"161 692 OFFCURVE",
"196 695 QCURVE"
);
},
{
nodes = (
"58 482 OFFCURVE",
"82 427 OFFCURVE",
"123 386 OFFCURVE",
"178 362 OFFCURVE",
"210 362 QCURVE SMOOTH",
"240 362 OFFCURVE",
"294 384 OFFCURVE",
"335 423 OFFCURVE",
"359 476 OFFCURVE",
"361 506 QCURVE",
"360 541 OFFCURVE",
"335 599 OFFCURVE",
"294 641 OFFCURVE",
"240 665 OFFCURVE",
"210 665 QCURVE SMOOTH",
"178 665 OFFCURVE",
"123 641 OFFCURVE",
"82 600 OFFCURVE",
"58 544 OFFCURVE",
"58 513 QCURVE SMOOTH"
);
},
{
nodes = (
"858 30 LINE",
"823 53 OFFCURVE",
"778 128 OFFCURVE",
"776 174 QCURVE",
"388 484 LINE",
"383 454 OFFCURVE",
"354 401 OFFCURVE",
"311 361 OFFCURVE",
"255 336 OFFCURVE",
"224 333 QCURVE",
"224 166 LINE",
"58 166 LINE",
"58 30 LINE"
);
},
{
nodes = (
"1109 212 OFFCURVE",
"1085 267 OFFCURVE",
"1044 308 OFFCURVE",
"989 332 OFFCURVE",
"958 332 QCURVE SMOOTH",
"927 332 OFFCURVE",
"873 309 OFFCURVE",
"832 268 OFFCURVE",
"807 210 OFFCURVE",
"806 176 QCURVE",
"807 146 OFFCURVE",
"832 92 OFFCURVE",
"873 53 OFFCURVE",
"927 30 OFFCURVE",
"958 30 QCURVE SMOOTH",
"989 30 OFFCURVE",
"1044 54 OFFCURVE",
"1085 94 OFFCURVE",
"1109 149 OFFCURVE",
"1109 181 QCURVE SMOOTH"
);
},
{
nodes = (
"309 665 LINE",
"344 641 OFFCURVE",
"389 566 OFFCURVE",
"391 521 QCURVE",
"779 210 LINE",
"784 240 OFFCURVE",
"813 293 OFFCURVE",
"856 334 OFFCURVE",
"911 359 OFFCURVE",
"943 361 QCURVE",
"943 528 LINE",
"1109 528 LINE",
"1109 665 LINE"
);
},
{
nodes = (
"77 540 OFFCURVE",
"98 589 OFFCURVE",
"134 625 OFFCURVE",
"182 646 OFFCURVE",
"210 646 QCURVE SMOOTH",
"236 646 OFFCURVE",
"282 625 OFFCURVE",
"318 588 OFFCURVE",
"340 536 OFFCURVE",
"342 506 QCURVE",
"340 480 OFFCURVE",
"319 434 OFFCURVE",
"283 400 OFFCURVE",
"236 381 OFFCURVE",
"210 381 QCURVE SMOOTH",
"182 381 OFFCURVE",
"134 402 OFFCURVE",
"98 438 OFFCURVE",
"77 486 OFFCURVE",
"77 513 QCURVE SMOOTH"
);
},
{
nodes = (
"77 49 LINE",
"77 147 LINE",
"243 147 LINE",
"243 316 LINE",
"299 325 OFFCURVE",
"382 398 OFFCURVE",
"399 451 QCURVE",
"447 413 OFFCURVE",
"535 342 OFFCURVE",
"622 273 OFFCURVE",
"710 202 OFFCURVE",
"757 164 QCURVE",
"759 132 OFFCURVE",
"787 72 OFFCURVE",
"807 49 QCURVE"
);
},
{
nodes = (
"1090 154 OFFCURVE",
"1069 106 OFFCURVE",
"1033 70 OFFCURVE",
"985 49 OFFCURVE",
"958 49 QCURVE SMOOTH",
"931 49 OFFCURVE",
"884 69 OFFCURVE",
"848 103 OFFCURVE",
"826 149 OFFCURVE",
"825 176 QCURVE",
"826 206 OFFCURVE",
"848 256 OFFCURVE",
"884 293 OFFCURVE",
"931 313 OFFCURVE",
"958 313 QCURVE SMOOTH",
"985 313 OFFCURVE",
"1033 292 OFFCURVE",
"1069 256 OFFCURVE",
"1090 208 OFFCURVE",
"1090 181 QCURVE SMOOTH"
);
},
{
nodes = (
"1090 646 LINE",
"1090 547 LINE",
"924 547 LINE",
"924 377 LINE",
"898 372 OFFCURVE",
"849 348 OFFCURVE",
"808 312 OFFCURVE",
"776 268 OFFCURVE",
"767 244 QCURVE",
"719 282 OFFCURVE",
"631 353 OFFCURVE",
"545 422 OFFCURVE",
"457 493 OFFCURVE",
"410 531 QCURVE",
"408 563 OFFCURVE",
"381 623 OFFCURVE",
"361 646 QCURVE"
);
}
);
width = 1163;
}
);
unicode = 0053;
},
{
glyphname = T;
layers = (
{
layerId = "AE796192-B776-4211-9DF5-23F45CECCAB6";
paths = (
{
nodes = (
"1092 695 LINE",
"1092 416 LINE",
"759 416 LINE",
"759 0 LINE",
"355 0 LINE",
"355 416 LINE",
"23 416 LINE",
"23 695 LINE"
);
},
{
nodes = (
"53 446 LINE",
"542 446 LINE",
"542 665 LINE",
"53 665 LINE"
);
},
{
nodes = (
"729 30 LINE",
"729 416 LINE",
"385 416 LINE",
"385 30 LINE"
);
},
{
nodes = (
"1062 665 LINE",
"572 665 LINE",
"572 446 LINE",
"1062 446 LINE"
);
},
{
nodes = (
"72 465 LINE",
"72 646 LINE",
"523 646 LINE",
"523 465 LINE"
);
},
{
nodes = (
"710 49 LINE",
"404 49 LINE",
"404 397 LINE",
"710 397 LINE"
);
},
{
nodes = (
"1043 465 LINE",
"591 465 LINE",
"591 646 LINE",
"1043 646 LINE"
);
}
);
width = 1112;
}
);
unicode = 0054;
},
{
glyphname = U;
layers = (
{
layerId = "AE796192-B776-4211-9DF5-23F45CECCAB6";
paths = (
{
nodes = (
"732 695 LINE",
"1095 695 LINE",
"1095 182 LINE SMOOTH",
"1095 146 OFFCURVE",
"1069 83 OFFCURVE",
"1024 34 OFFCURVE",
"963 3 OFFCURVE",
"928 0 QCURVE",
"192 1 LINE",
"157 4 OFFCURVE",
"97 35 OFFCURVE",
"52 83 OFFCURVE",
"26 146 OFFCURVE",
"26 182 QCURVE SMOOTH",
"26 695 LINE",
"388 695 LINE",
"388 363 LINE",
"732 363 LINE"
);
},
{
nodes = (
"56 182 LINE SMOOTH",
"56 150 OFFCURVE",
"80 95 OFFCURVE",
"121 54 OFFCURVE",
"176 30 OFFCURVE",
"207 30 QCURVE SMOOTH",
"238 30 OFFCURVE",
"293 54 OFFCURVE",
"334 95 OFFCURVE",
"358 150 OFFCURVE",
"358 182 QCURVE SMOOTH",
"358 665 LINE",
"56 665 LINE"
);
},
{
nodes = (
"814 30 LINE",
"777 55 OFFCURVE",
"732 134 OFFCURVE",
"732 182 QCURVE SMOOTH",
"732 333 LINE",
"388 333 LINE",
"388 182 LINE SMOOTH",
"388 134 OFFCURVE",
"344 55 OFFCURVE",
"307 30 QCURVE"
);
},
{
nodes = (
"762 182 LINE SMOOTH",
"762 150 OFFCURVE",
"786 95 OFFCURVE",
"827 54 OFFCURVE",
"882 30 OFFCURVE",
"913 30 QCURVE SMOOTH",
"944 30 OFFCURVE",
"1000 54 OFFCURVE",
"1041 95 OFFCURVE",
"1065 150 OFFCURVE",
"1065 182 QCURVE SMOOTH",
"1065 665 LINE",
"762 665 LINE"
);
},
{
nodes = (
"75 646 LINE",
"339 646 LINE",
"339 182 LINE SMOOTH",
"339 154 OFFCURVE",
"318 106 OFFCURVE",
"282 70 OFFCURVE",
"234 49 OFFCURVE",
"207 49 QCURVE SMOOTH",
"180 49 OFFCURVE",
"132 70 OFFCURVE",
"96 106 OFFCURVE",
"75 154 OFFCURVE",
"75 182 QCURVE SMOOTH"
);
},
{
nodes = (
"358 49 LINE",
"384 76 OFFCURVE",
"407 141 OFFCURVE",
"407 182 QCURVE SMOOTH",
"407 314 LINE",
"713 314 LINE",
"713 182 LINE SMOOTH",
"713 148 OFFCURVE",
"744 75 OFFCURVE",
"763 49 QCURVE"
);
},
{
nodes = (
"781 646 LINE",
"1046 646 LINE",
"1046 182 LINE SMOOTH",
"1046 154 OFFCURVE",
"1025 106 OFFCURVE",
"989 70 OFFCURVE",
"940 49 OFFCURVE",
"913 49 QCURVE SMOOTH",
"886 49 OFFCURVE",
"838 70 OFFCURVE",
"802 106 OFFCURVE",
"781 154 OFFCURVE",
"781 182 QCURVE SMOOTH"
);
}
);
width = 1118;
}
);
unicode = 0055;
},
{
glyphname = V;
layers = (
{
layerId = "AE796192-B776-4211-9DF5-23F45CECCAB6";
paths = (
{
nodes = (
"709 695 LINE",
"1114 695 LINE",
"919 0 LINE",
"190 0 LINE",
"-6 695 LINE",
"399 695 LINE",
"540 196 LINE",
"543 196 LINE",
"569 196 LINE"
);
},
{
nodes = (
"34 665 LINE",
"166 196 LINE",
"508 196 LINE",
"377 665 LINE"
);
},
{
nodes = (
"522 30 LINE",
"560 166 LINE",
"174 166 LINE",
"212 30 LINE"
);
},
{
nodes = (
"732 665 LINE",
"553 30 LINE",
"896 30 LINE",
"1075 665 LINE"
);
},
{
nodes = (
"363 646 LINE",
"392 539 OFFCURVE",
"455 321 OFFCURVE",
"484 215 QCURVE",
"180 215 LINE",
"150 321 OFFCURVE",
"88 542 OFFCURVE",
"59 646 QCURVE"
);
},
{
nodes = (
"226 49 LINE",
"219 75 OFFCURVE",
"205 124 OFFCURVE",
"198 147 QCURVE",
"536 147 LINE",
"528 119 OFFCURVE",
"514 73 OFFCURVE",
"507 49 QCURVE"
);
},
{
nodes = (
"1051 646 LINE",
"1029 568 OFFCURVE",
"987 420 OFFCURVE",
"945 274 OFFCURVE",
"903 126 OFFCURVE",
"881 49 QCURVE",
"577 49 LINE",
"599 126 OFFCURVE",
"641 274 OFFCURVE",
"683 421 OFFCURVE",
"725 569 OFFCURVE",
"746 646 QCURVE"
);
}
);
width = 1102;
}
);
unicode = 0056;
},
{
glyphname = W;
layers = (
{
layerId = "AE796192-B776-4211-9DF5-23F45CECCAB6";
paths = (
{
nodes = (
"1620 0 LINE",
"185 0 LINE",
"-11 695 LINE",
"395 695 LINE",
"535 196 LINE",
"564 196 LINE",
"701 695 LINE",
"704 695 LINE",
"1105 696 LINE",
"1241 196 LINE",
"1271 196 LINE",
"1411 695 LINE",
"1816 695 LINE"
);
},
{
nodes = (
"1302 196 LINE",
"1645 196 LINE",
"1776 665 LINE",
"1433 665 LINE"
);
},
{
nodes = (
"918 665 LINE",
"918 196 LINE",
"1210 196 LINE",
"1078 665 LINE"
);
},
{
nodes = (
"595 196 LINE",
"888 196 LINE",
"888 665 LINE",
"727 665 LINE"
);
},
{
nodes = (
"29 665 LINE",
"161 196 LINE",
"504 196 LINE",
"372 665 LINE"
);
},
{
nodes = (
"208 30 LINE",
"517 30 LINE",
"556 166 LINE",
"169 166 LINE"
);
},
{
nodes = (
"1262 166 LINE",
"587 166 LINE",
"548 30 LINE",
"1224 30 LINE"
);
},
{
nodes = (
"1636 166 LINE",
"1293 166 LINE",
"1255 30 LINE",
"1598 30 LINE"
);
},
{
nodes = (
"1447 646 LINE",
"1752 646 LINE",
"1736 589 OFFCURVE",
"1706 482 OFFCURVE",
"1677 377 OFFCURVE",
"1647 271 OFFCURVE",
"1631 215 QCURVE",
"1326 215 LINE"
);
},
{
nodes = (
"1064 646 LINE",
"1094 540 OFFCURVE",
"1156 319 OFFCURVE",
"1185 215 QCURVE",
"937 215 LINE",
"937 646 LINE"
);
},
{
nodes = (
"741 646 LINE",
"869 646 LINE",
"869 215 LINE",
"620 215 LINE"
);
},
{
nodes = (
"358 646 LINE",
"388 540 OFFCURVE",
"450 319 OFFCURVE",
"479 215 QCURVE",
"175 215 LINE",
"145 321 OFFCURVE",
"83 542 OFFCURVE",
"54 646 QCURVE"
);
},
{
nodes = (
"194 147 LINE",
"531 147 LINE",
"522 117 OFFCURVE",
"511 76 OFFCURVE",
"503 49 QCURVE",
"222 49 LINE"
);
},
{
nodes = (
"1209 49 LINE",
"573 49 LINE",
"582 79 OFFCURVE",
"593 120 OFFCURVE",
"601 147 QCURVE",
"1238 147 LINE"
);
},
{
nodes = (
"1583 49 LINE",
"1279 49 LINE",
"1287 77 OFFCURVE",
"1301 123 OFFCURVE",
"1308 147 QCURVE",
"1612 147 LINE"
);
}
);
width = 1799;
}
);
unicode = 0057;
},
{
glyphname = X;
layers = (
{
layerId = "AE796192-B776-4211-9DF5-23F45CECCAB6";
paths = (
{
nodes = (
"1134 695 LINE",
"1134 514 LINE SMOOTH",
"1134 458 OFFCURVE",
"1073 369 OFFCURVE",
"1025 348 QCURVE",
"1073 327 OFFCURVE",
"1134 238 OFFCURVE",
"1134 182 QCURVE SMOOTH",
"1134 0 LINE",
"23 0 LINE",
"23 182 LINE SMOOTH",
"23 238 OFFCURVE",
"84 327 OFFCURVE",
"133 348 QCURVE",
"84 369 OFFCURVE",
"23 458 OFFCURVE",
"23 514 QCURVE SMOOTH",
"23 695 LINE"
);
},
{
nodes = (
"53 514 LINE SMOOTH",
"53 483 OFFCURVE",
"77 428 OFFCURVE",
"118 387 OFFCURVE",
"173 363 OFFCURVE",
"205 363 QCURVE SMOOTH",
"236 363 OFFCURVE",
"291 387 OFFCURVE",
"332 428 OFFCURVE",
"356 483 OFFCURVE",
"356 514 QCURVE SMOOTH",
"356 665 LINE",
"53 665 LINE"
);
},
{
nodes = (
"356 30 LINE",
"356 182 LINE SMOOTH",
"356 213 OFFCURVE",
"332 268 OFFCURVE",
"291 309 OFFCURVE",
"236 333 OFFCURVE",
"205 333 QCURVE SMOOTH",
"173 333 OFFCURVE",
"118 309 OFFCURVE",
"77 268 OFFCURVE",
"53 213 OFFCURVE",
"53 182 QCURVE SMOOTH",
"53 30 LINE"
);
},
{
nodes = (
"771 30 LINE",
"771 182 LINE SMOOTH",
"771 238 OFFCURVE",
"832 327 OFFCURVE",
"881 348 QCURVE",
"832 369 OFFCURVE",
"771 458 OFFCURVE",
"771 514 QCURVE SMOOTH",
"771 665 LINE",
"386 665 LINE",
"386 514 LINE SMOOTH",
"386 458 OFFCURVE",
"325 369 OFFCURVE",
"277 348 QCURVE",
"325 327 OFFCURVE",
"386 238 OFFCURVE",
"386 182 QCURVE SMOOTH",
"386 30 LINE"
);
},
{
nodes = (
"1104 182 LINE SMOOTH",
"1104 213 OFFCURVE",
"1080 268 OFFCURVE",
"1039 309 OFFCURVE",
"984 333 OFFCURVE",
"953 333 QCURVE SMOOTH",
"921 333 OFFCURVE",
"866 309 OFFCURVE",
"825 268 OFFCURVE",
"801 213 OFFCURVE",
"801 182 QCURVE SMOOTH",
"801 30 LINE",
"1104 30 LINE"
);
},
{
nodes = (
"801 665 LINE",
"801 514 LINE SMOOTH",
"801 483 OFFCURVE",
"825 428 OFFCURVE",
"866 387 OFFCURVE",
"921 363 OFFCURVE",
"953 363 QCURVE SMOOTH",
"984 363 OFFCURVE",
"1039 387 OFFCURVE",
"1080 428 OFFCURVE",
"1104 483 OFFCURVE",
"1104 514 QCURVE SMOOTH",
"1104 665 LINE"
);
},
{
nodes = (
"72 646 LINE",
"337 646 LINE",
"337 514 LINE SMOOTH",
"337 487 OFFCURVE",
"316 439 OFFCURVE",
"280 403 OFFCURVE",
"232 382 OFFCURVE",
"205 382 QCURVE SMOOTH",
"177 382 OFFCURVE",
"129 403 OFFCURVE",
"93 439 OFFCURVE",
"72 487 OFFCURVE",
"72 514 QCURVE SMOOTH"
);
},
{
nodes = (
"72 49 LINE",
"72 182 LINE SMOOTH",
"72 209 OFFCURVE",
"93 257 OFFCURVE",
"129 293 OFFCURVE",
"177 314 OFFCURVE",
"205 314 QCURVE SMOOTH",
"232 314 OFFCURVE",
"280 293 OFFCURVE",
"316 257 OFFCURVE",
"337 209 OFFCURVE",
"337 182 QCURVE SMOOTH",
"337 49 LINE"
);
},
{
nodes = (
"1085 49 LINE",
"820 49 LINE",
"820 182 LINE SMOOTH",
"820 209 OFFCURVE",
"841 257 OFFCURVE",
"877 293 OFFCURVE",
"925 314 OFFCURVE",
"953 314 QCURVE SMOOTH",
"980 314 OFFCURVE",
"1028 293 OFFCURVE",
"1064 257 OFFCURVE",
"1085 209 OFFCURVE",
"1085 182 QCURVE SMOOTH"
);
},
{
nodes = (
"1085 646 LINE",
"1085 514 LINE SMOOTH",
"1085 487 OFFCURVE",
"1064 439 OFFCURVE",
"1028 403 OFFCURVE",
"980 382 OFFCURVE",
"953 382 QCURVE SMOOTH",
"925 382 OFFCURVE",
"877 403 OFFCURVE",
"841 439 OFFCURVE",
"820 487 OFFCURVE",
"820 514 QCURVE SMOOTH",
"820 646 LINE"
);
},
{
nodes = (
"405 49 LINE",
"405 182 LINE SMOOTH",
"405 233 OFFCURVE",
"354 321 OFFCURVE",
"316 348 QCURVE",
"356 375 OFFCURVE",
"405 462 OFFCURVE",
"405 514 QCURVE SMOOTH",
"405 646 LINE",
"752 646 LINE",
"752 514 LINE SMOOTH",
"752 463 OFFCURVE",
"801 375 OFFCURVE",
"841 348 QCURVE",
"801 321 OFFCURVE",
"752 233 OFFCURVE",
"752 182 QCURVE SMOOTH",
"752 49 LINE"
);
}
);
width = 1154;
}
);
unicode = 0058;
},
{
glyphname = Y;
layers = (
{
layerId = "AE796192-B776-4211-9DF5-23F45CECCAB6";
paths = (
{
nodes = (
"1092 695 LINE",
"1092 431 LINE SMOOTH",
"1092 395 OFFCURVE",
"1066 332 OFFCURVE",
"1021 284 OFFCURVE",
"961 253 OFFCURVE",
"926 250 QCURVE",
"760 250 LINE",
"760 0 LINE",
"356 0 LINE",
"356 250 LINE",
"190 250 LINE",
"155 253 OFFCURVE",
"95 284 OFFCURVE",
"50 332 OFFCURVE",
"24 395 OFFCURVE",
"24 431 QCURVE SMOOTH",
"24 695 LINE"
);
},
{
nodes = (
"54 431 LINE SMOOTH",
"54 400 OFFCURVE",
"78 345 OFFCURVE",
"118 304 OFFCURVE",
"173 280 OFFCURVE",
"205 280 QCURVE SMOOTH",
"236 280 OFFCURVE",
"291 304 OFFCURVE",
"332 345 OFFCURVE",
"356 400 OFFCURVE",
"356 431 QCURVE SMOOTH",
"356 665 LINE",
"54 665 LINE"
);
},
{
nodes = (
"730 250 LINE",
"386 250 LINE",
"386 30 LINE",
"730 30 LINE"
);
},
{
nodes = (
"812 280 LINE",
"775 304 OFFCURVE",
"730 383 OFFCURVE",
"730 431 QCURVE SMOOTH",
"730 665 LINE",
"386 665 LINE",
"386 431 LINE SMOOTH",
"386 383 OFFCURVE",
"342 304 OFFCURVE",
"304 280 QCURVE"
);
},
{
nodes = (
"1063 665 LINE",
"760 665 LINE",
"760 431 LINE SMOOTH",
"760 400 OFFCURVE",
"784 345 OFFCURVE",
"825 304 OFFCURVE",
"880 280 OFFCURVE",
"911 280 QCURVE SMOOTH",
"942 280 OFFCURVE",
"998 304 OFFCURVE",
"1039 345 OFFCURVE",
"1063 400 OFFCURVE",
"1063 431 QCURVE SMOOTH"
);
},
{
nodes = (
"73 646 LINE",
"337 646 LINE",
"337 431 LINE SMOOTH",
"337 404 OFFCURVE",
"316 356 OFFCURVE",
"280 320 OFFCURVE",
"232 299 OFFCURVE",
"205 299 QCURVE SMOOTH",
"178 299 OFFCURVE",
"130 320 OFFCURVE",
"94 356 OFFCURVE",
"73 404 OFFCURVE",
"73 431 QCURVE SMOOTH"
);
},
{
nodes = (
"711 49 LINE",
"405 49 LINE",
"405 231 LINE",
"711 231 LINE"
);
},
{
nodes = (
"355 299 LINE",
"378 325 OFFCURVE",
"405 394 OFFCURVE",
"405 431 QCURVE SMOOTH",
"405 646 LINE",
"711 646 LINE",
"711 431 LINE SMOOTH",
"711 393 OFFCURVE",
"737 325 OFFCURVE",
"761 299 QCURVE"
);
},
{
nodes = (
"1044 431 LINE SMOOTH",
"1044 404 OFFCURVE",
"1023 356 OFFCURVE",
"987 320 OFFCURVE",
"938 299 OFFCURVE",
"911 299 QCURVE SMOOTH",
"884 299 OFFCURVE",
"836 320 OFFCURVE",
"800 356 OFFCURVE",
"779 404 OFFCURVE",
"779 431 QCURVE SMOOTH",
"779 646 LINE",
"1044 646 LINE"
);
}
);
width = 1114;
}
);
unicode = 0059;
},
{
glyphname = Z;
layers = (
{
layerId = "AE796192-B776-4211-9DF5-23F45CECCAB6";
paths = (
{
nodes = (
"973 196 LINE",
"1140 196 LINE",
"1140 0 LINE",
"195 0 LINE",
"160 3 OFFCURVE",
"100 34 OFFCURVE",
"55 82 OFFCURVE",
"29 145 OFFCURVE",
"29 181 QCURVE SMOOTH",
"29 217 OFFCURVE",
"55 280 OFFCURVE",
"100 328 OFFCURVE",
"160 358 OFFCURVE",
"195 361 QCURVE",
"195 362 LINE",
"195 498 LINE",
"29 498 LINE",
"29 695 LINE",
"973 695 LINE",
"1008 692 OFFCURVE",
"1069 661 OFFCURVE",
"1114 612 OFFCURVE",
"1140 549 OFFCURVE",
"1140 513 QCURVE SMOOTH",
"1140 477 OFFCURVE",
"1114 414 OFFCURVE",
"1069 366 OFFCURVE",
"1008 336 OFFCURVE",
"973 333 QCURVE",
"973 332 LINE"
);
},
{
nodes = (
"1110 544 OFFCURVE",
"1086 600 OFFCURVE",
"1045 641 OFFCURVE",
"989 665 OFFCURVE",
"958 665 QCURVE SMOOTH",
"927 665 OFFCURVE",
"872 641 OFFCURVE",
"831 600 OFFCURVE",
"807 544 OFFCURVE",
"807 513 QCURVE SMOOTH",
"807 482 OFFCURVE",
"831 427 OFFCURVE",
"872 386 OFFCURVE",
"927 362 OFFCURVE",
"958 362 QCURVE SMOOTH",
"989 362 OFFCURVE",
"1045 386 OFFCURVE",
"1086 427 OFFCURVE",
"1110 482 OFFCURVE",
"1110 513 QCURVE SMOOTH"
);
},
{
nodes = (
"225 528 LINE",
"225 362 LINE",
"859 362 LINE",
"822 387 OFFCURVE",
"777 465 OFFCURVE",
"777 513 QCURVE SMOOTH",
"777 561 OFFCURVE",
"822 640 OFFCURVE",
"859 665 QCURVE",
"59 665 LINE",
"59 528 LINE"
);
},
{
nodes = (
"59 149 OFFCURVE",
"83 94 OFFCURVE",
"124 54 OFFCURVE",
"179 30 OFFCURVE",
"210 30 QCURVE SMOOTH",
"241 30 OFFCURVE",
"297 54 OFFCURVE",
"338 94 OFFCURVE",
"362 149 OFFCURVE",
"362 181 QCURVE SMOOTH",
"362 212 OFFCURVE",
"338 267 OFFCURVE",
"297 308 OFFCURVE",
"241 332 OFFCURVE",
"210 332 QCURVE SMOOTH",
"179 332 OFFCURVE",
"124 308 OFFCURVE",
"83 267 OFFCURVE",
"59 212 OFFCURVE",
"59 181 QCURVE SMOOTH"
);
},
{
nodes = (
"943 166 LINE",
"943 332 LINE",
"310 332 LINE",
"347 308 OFFCURVE",
"392 229 OFFCURVE",
"392 181 QCURVE SMOOTH",
"392 133 OFFCURVE",
"347 54 OFFCURVE",
"310 30 QCURVE",
"1110 30 LINE",
"1110 166 LINE"
);
},
{
nodes = (
"1091 486 OFFCURVE",
"1070 438 OFFCURVE",
"1034 402 OFFCURVE",
"985 381 OFFCURVE",
"958 381 QCURVE SMOOTH",
"931 381 OFFCURVE",
"883 402 OFFCURVE",
"847 438 OFFCURVE",
"826 486 OFFCURVE",
"826 513 QCURVE SMOOTH",
"826 540 OFFCURVE",
"847 589 OFFCURVE",
"883 625 OFFCURVE",
"931 646 OFFCURVE",
"958 646 QCURVE SMOOTH",
"985 646 OFFCURVE",
"1034 625 OFFCURVE",
"1070 589 OFFCURVE",
"1091 540 OFFCURVE",
"1091 513 QCURVE SMOOTH"
);
},
{
nodes = (
"78 547 LINE",
"78 646 LINE",
"808 646 LINE",
"758 591 OFFCURVE",
"758 513 QCURVE SMOOTH",
"758 475 OFFCURVE",
"785 407 OFFCURVE",
"808 381 QCURVE",
"244 381 LINE",
"244 547 LINE"
);
},
{
nodes = (
"78 208 OFFCURVE",
"99 256 OFFCURVE",
"135 292 OFFCURVE",
"183 313 OFFCURVE",
"210 313 QCURVE SMOOTH",
"237 313 OFFCURVE",
"286 292 OFFCURVE",
"322 256 OFFCURVE",
"343 208 OFFCURVE",
"343 181 QCURVE SMOOTH",
"343 154 OFFCURVE",
"322 106 OFFCURVE",
"286 70 OFFCURVE",
"237 49 OFFCURVE",
"210 49 QCURVE SMOOTH",
"183 49 OFFCURVE",
"135 70 OFFCURVE",
"99 106 OFFCURVE",
"78 154 OFFCURVE",
"78 181 QCURVE SMOOTH"
);
},
{
nodes = (
"1091 147 LINE",
"1091 49 LINE",
"361 49 LINE",
"385 75 OFFCURVE",
"411 143 OFFCURVE",
"411 181 QCURVE SMOOTH",
"411 219 OFFCURVE",
"385 287 OFFCURVE",
"361 313 QCURVE",
"924 313 LINE",
"924 147 LINE"
);
}
);
width = 1162;
}
);
unicode = 005A;
},
{
glyphname = a;
layers = (
{
layerId = "AE796192-B776-4211-9DF5-23F45CECCAB6";
paths = (
{
nodes = (
"972 695 LINE",
"1014 692 OFFCURVE",
"1087 657 OFFCURVE",
"1142 602 OFFCURVE",
"1176 529 OFFCURVE",
"1179 488 QCURVE",
"1180 488 LINE",
"1180 0 LINE",
"734 0 LINE",
"734 104 LINE",
"473 104 LINE",
"473 0 LINE",
"28 0 LINE",
"28 488 LINE",
"31 529 OFFCURVE",
"66 602 OFFCURVE",
"121 657 OFFCURVE",
"194 692 OFFCURVE",
"236 695 QCURVE"
);
},
{
nodes = (
"1150 513 OFFCURVE",
"1119 583 OFFCURVE",
"1067 635 OFFCURVE",
"997 665 OFFCURVE",
"957 665 QCURVE SMOOTH",
"917 665 OFFCURVE",
"847 635 OFFCURVE",
"794 583 OFFCURVE",
"764 513 OFFCURVE",
"764 473 QCURVE SMOOTH",
"764 433 OFFCURVE",
"794 363 OFFCURVE",
"847 310 OFFCURVE",
"917 280 OFFCURVE",
"957 280 QCURVE SMOOTH",
"997 280 OFFCURVE",
"1067 310 OFFCURVE",
"1119 363 OFFCURVE",
"1150 433 OFFCURVE",
"1150 473 QCURVE SMOOTH"
);
},
{
nodes = (
"473 458 LINE",
"473 321 LINE",
"734 321 LINE",
"734 458 LINE"
);
},
{
nodes = (
"362 665 LINE",
"410 638 OFFCURVE",
"469 545 OFFCURVE",
"473 488 QCURVE",
"734 488 LINE",
"735 488 LINE",
"739 545 OFFCURVE",
"798 638 OFFCURVE",
"846 665 QCURVE"
);
},
{
nodes = (
"211 665 OFFCURVE",
"141 635 OFFCURVE",
"88 583 OFFCURVE",
"58 513 OFFCURVE",
"58 473 QCURVE SMOOTH",
"58 433 OFFCURVE",
"88 363 OFFCURVE",
"141 310 OFFCURVE",
"211 280 OFFCURVE",
"251 280 QCURVE SMOOTH",
"291 280 OFFCURVE",
"361 310 OFFCURVE",
"413 363 OFFCURVE",
"444 433 OFFCURVE",
"444 473 QCURVE SMOOTH",
"444 513 OFFCURVE",
"413 583 OFFCURVE",
"361 635 OFFCURVE",
"291 665 OFFCURVE",
"251 665 QCURVE SMOOTH"
);
},
{
nodes = (
"444 361 LINE",
"415 311 OFFCURVE",
"313 250 OFFCURVE",
"251 250 QCURVE SMOOTH",
"188 250 OFFCURVE",
"87 311 OFFCURVE",
"58 361 QCURVE",
"58 30 LINE",
"444 30 LINE"
);
},
{
nodes = (
"734 134 LINE",
"734 291 LINE",
"473 291 LINE",
"473 134 LINE"
);
},
{
nodes = (
"1150 361 LINE",
"1121 311 OFFCURVE",
"1019 250 OFFCURVE",
"957 250 QCURVE SMOOTH",
"895 250 OFFCURVE",
"793 311 OFFCURVE",
"764 361 QCURVE",
"764 30 LINE",
"1150 30 LINE"
);
},
{
nodes = (
"1131 437 OFFCURVE",
"1104 374 OFFCURVE",
"1056 326 OFFCURVE",
"993 299 OFFCURVE",
"957 299 QCURVE SMOOTH",
"921 299 OFFCURVE",
"858 326 OFFCURVE",
"810 374 OFFCURVE",
"783 437 OFFCURVE",
"783 473 QCURVE SMOOTH",
"783 509 OFFCURVE",
"810 572 OFFCURVE",
"858 619 OFFCURVE",
"921 646 OFFCURVE",
"957 646 QCURVE SMOOTH",
"993 646 OFFCURVE",
"1056 619 OFFCURVE",
"1104 572 OFFCURVE",
"1131 509 OFFCURVE",
"1131 473 QCURVE SMOOTH"
);
},
{
nodes = (
"715 439 LINE",
"715 340 LINE",
"492 340 LINE",
"492 439 LINE"
);
},
{
nodes = (
"789 646 LINE",
"760 619 OFFCURVE",
"724 548 OFFCURVE",
"718 507 QCURVE",
"490 507 LINE",
"479 590 OFFCURVE",
"419 646 QCURVE"
);
},
{
nodes = (
"287 646 OFFCURVE",
"350 619 OFFCURVE",
"398 572 OFFCURVE",
"425 509 OFFCURVE",
"425 473 QCURVE SMOOTH",
"425 437 OFFCURVE",
"398 374 OFFCURVE",
"350 326 OFFCURVE",
"287 299 OFFCURVE",
"251 299 QCURVE SMOOTH",
"215 299 OFFCURVE",
"152 326 OFFCURVE",
"104 374 OFFCURVE",
"77 437 OFFCURVE",
"77 473 QCURVE SMOOTH",
"77 509 OFFCURVE",
"104 572 OFFCURVE",
"152 619 OFFCURVE",
"215 646 OFFCURVE",
"251 646 QCURVE SMOOTH"
);
},
{
nodes = (
"425 49 LINE",
"77 49 LINE",
"77 305 LINE",
"110 270 OFFCURVE",
"200 231 OFFCURVE",
"251 231 QCURVE SMOOTH",
"302 231 OFFCURVE",
"392 270 OFFCURVE",
"425 305 QCURVE"
);
},
{
nodes = (
"492 153 LINE",
"492 272 LINE",
"715 272 LINE",
"715 153 LINE"
);
},
{
nodes = (
"1131 49 LINE",
"783 49 LINE",
"783 305 LINE",
"816 270 OFFCURVE",
"904 231 OFFCURVE",
"957 231 QCURVE SMOOTH",
"1008 231 OFFCURVE",
"1098 270 OFFCURVE",
"1131 305 QCURVE"
);
}
);
width = 1209;
}
);
unicode = 0061;
},
{
glyphname = b;
layers = (
{
layerId = "AE796192-B776-4211-9DF5-23F45CECCAB6";
paths = (
{
nodes = (
"1143 457 OFFCURVE",
"1082 368 OFFCURVE",
"1034 347 QCURVE",
"1082 326 OFFCURVE",
"1143 237 OFFCURVE",
"1143 181 QCURVE SMOOTH",
"1143 145 OFFCURVE",
"1117 82 OFFCURVE",
"1072 34 OFFCURVE",
"1012 3 OFFCURVE",
"977 0 QCURVE",
"33 0 LINE",
"33 695 LINE",
"977 696 LINE",
"1012 693 OFFCURVE",
"1072 662 OFFCURVE",
"1117 612 OFFCURVE",
"1143 549 OFFCURVE",
"1143 513 QCURVE SMOOTH"
);
},
{
nodes = (
"87 665 LINE",
"428 362 LINE",
"863 362 LINE",
"825 387 OFFCURVE",
"781 465 OFFCURVE",
"781 513 QCURVE SMOOTH",
"781 561 OFFCURVE",
"825 640 OFFCURVE",
"863 665 QCURVE"
);
},
{
nodes = (
"407 30 LINE",
"407 340 LINE",
"63 646 LINE",
"63 30 LINE"
);
},
{
nodes = (
"863 30 LINE",
"825 54 OFFCURVE",
"781 133 OFFCURVE",
"781 181 QCURVE SMOOTH",
"781 229 OFFCURVE",
"825 308 OFFCURVE",
"863 332 QCURVE",
"437 332 LINE",
"437 30 LINE"
);
},
{
nodes = (
"1113 212 OFFCURVE",
"1089 267 OFFCURVE",
"1049 308 OFFCURVE",
"993 332 OFFCURVE",
"962 332 QCURVE SMOOTH",
"931 332 OFFCURVE",
"876 308 OFFCURVE",
"835 267 OFFCURVE",
"811 212 OFFCURVE",
"811 181 QCURVE SMOOTH",
"811 149 OFFCURVE",
"835 94 OFFCURVE",
"876 54 OFFCURVE",
"931 30 OFFCURVE",
"962 30 QCURVE SMOOTH",
"993 30 OFFCURVE",
"1049 54 OFFCURVE",
"1089 94 OFFCURVE",
"1113 149 OFFCURVE",
"1113 181 QCURVE SMOOTH"
);
},
{
nodes = (
"993 362 OFFCURVE",
"1049 386 OFFCURVE",
"1089 427 OFFCURVE",
"1113 482 OFFCURVE",
"1113 513 QCURVE SMOOTH",
"1113 544 OFFCURVE",
"1089 600 OFFCURVE",
"1049 641 OFFCURVE",
"993 665 OFFCURVE",
"962 665 QCURVE SMOOTH",
"931 665 OFFCURVE",
"876 641 OFFCURVE",
"835 600 OFFCURVE",
"811 544 OFFCURVE",
"811 513 QCURVE SMOOTH",
"811 482 OFFCURVE",
"835 427 OFFCURVE",
"876 386 OFFCURVE",
"931 362 OFFCURVE",
"962 362 QCURVE SMOOTH"
);
},
{
nodes = (
"813 646 LINE",
"762 590 OFFCURVE",
"762 513 QCURVE SMOOTH",
"762 475 OFFCURVE",
"788 408 OFFCURVE",
"812 381 QCURVE",
"436 381 LINE",
"360 449 OFFCURVE",
"211 579 OFFCURVE",
"136 646 QCURVE"
);
},
{
nodes = (
"82 49 LINE",
"82 603 LINE",
"124 565 OFFCURVE",
"199 500 OFFCURVE",
"272 435 OFFCURVE",
"346 369 OFFCURVE",
"388 332 QCURVE",
"388 49 LINE"
);
},
{
nodes = (
"456 49 LINE",
"456 313 LINE",
"812 313 LINE",
"789 287 OFFCURVE",
"762 218 OFFCURVE",
"762 181 QCURVE SMOOTH",
"762 144 OFFCURVE",
"789 75 OFFCURVE",
"812 49 QCURVE"
);
},
{
nodes = (
"1094 154 OFFCURVE",
"1073 106 OFFCURVE",
"1037 70 OFFCURVE",
"989 49 OFFCURVE",
"962 49 QCURVE SMOOTH",
"935 49 OFFCURVE",
"887 70 OFFCURVE",
"851 106 OFFCURVE",
"830 154 OFFCURVE",
"830 181 QCURVE SMOOTH",
"830 208 OFFCURVE",
"851 256 OFFCURVE",
"887 292 OFFCURVE",
"935 313 OFFCURVE",
"962 313 QCURVE SMOOTH",
"989 313 OFFCURVE",
"1037 292 OFFCURVE",
"1073 256 OFFCURVE",
"1094 208 OFFCURVE",
"1094 181 QCURVE SMOOTH"
);
},
{
nodes = (
"935 381 OFFCURVE",
"887 402 OFFCURVE",
"851 438 OFFCURVE",
"830 486 OFFCURVE",
"830 513 QCURVE SMOOTH",
"830 540 OFFCURVE",
"851 589 OFFCURVE",
"887 625 OFFCURVE",
"935 646 OFFCURVE",
"962 646 QCURVE SMOOTH",
"989 646 OFFCURVE",
"1037 625 OFFCURVE",
"1073 589 OFFCURVE",
"1094 540 OFFCURVE",
"1094 513 QCURVE SMOOTH",
"1094 486 OFFCURVE",
"1073 438 OFFCURVE",
"1037 402 OFFCURVE",
"989 381 OFFCURVE",
"962 381 QCURVE SMOOTH"
);
}
);
width = 1165;
}
);
unicode = 0062;
},
{
glyphname = c;
layers = (
{
layerId = "AE796192-B776-4211-9DF5-23F45CECCAB6";
paths = (
{
nodes = (
"427 416 LINE",
"427 279 LINE",
"1169 279 LINE",
"1155 211 OFFCURVE",
"1090 106 OFFCURVE",
"998 36 OFFCURVE",
"887 0 OFFCURVE",
"827 0 QCURVE SMOOTH",
"370 0 LINE SMOOTH",
"298 0 OFFCURVE",
"172 55 OFFCURVE",
"78 149 OFFCURVE",
"23 276 OFFCURVE",
"23 348 QCURVE SMOOTH",
"23 420 OFFCURVE",
"78 546 OFFCURVE",
"172 640 OFFCURVE",
"298 695 OFFCURVE",
"370 695 QCURVE SMOOTH",
"827 695 LINE SMOOTH",
"887 695 OFFCURVE",
"999 657 OFFCURVE",
"1091 585 OFFCURVE",
"1157 481 OFFCURVE",
"1169 416 QCURVE"
);
},
{
nodes = (
"427 665 LINE",
"427 446 LINE",
"1129 446 LINE",
"1113 495 OFFCURVE",
"1054 575 OFFCURVE",
"975 633 OFFCURVE",
"879 665 OFFCURVE",
"827 665 QCURVE SMOOTH"
);
},
{
nodes = (
"427 249 LINE",
"427 30 LINE",
"827 30 LINE SMOOTH",
"879 30 OFFCURVE",
"975 62 OFFCURVE",
"1054 120 OFFCURVE",
"1113 200 OFFCURVE",
"1129 249 QCURVE"
);
},
{
nodes = (
"397 665 LINE",
"370 665 LINE SMOOTH",
"304 665 OFFCURVE",
"189 615 OFFCURVE",
"103 529 OFFCURVE",
"53 414 OFFCURVE",
"53 348 QCURVE SMOOTH",
"53 282 OFFCURVE",
"103 167 OFFCURVE",
"189 80 OFFCURVE",
"304 30 OFFCURVE",
"370 30 QCURVE SMOOTH",
"397 30 LINE"
);
},
{
nodes = (
"827 646 LINE SMOOTH",
"873 646 OFFCURVE",
"957 620 OFFCURVE",
"1028 572 OFFCURVE",
"1084 505 OFFCURVE",
"1102 465 QCURVE",
"446 465 LINE",
"446 646 LINE"
);
},
{
nodes = (
"1102 230 LINE",
"1084 189 OFFCURVE",
"1028 123 OFFCURVE",
"957 75 OFFCURVE",
"873 49 OFFCURVE",
"827 49 QCURVE SMOOTH",
"446 49 LINE",
"446 230 LINE"
);
},
{
nodes = (
"378 49 LINE",
"370 49 LINE SMOOTH",
"308 49 OFFCURVE",
"200 96 OFFCURVE",
"119 177 OFFCURVE",
"72 286 OFFCURVE",
"72 348 QCURVE SMOOTH",
"72 410 OFFCURVE",
"119 518 OFFCURVE",
"200 599 OFFCURVE",
"308 646 OFFCURVE",
"370 646 QCURVE SMOOTH",
"378 646 LINE"
);
}
);
width = 1192;
}
);
unicode = 0063;
},
{
glyphname = d;
layers = (
{
layerId = "AE796192-B776-4211-9DF5-23F45CECCAB6";
paths = (
{
nodes = (
"780 695 LINE SMOOTH",
"840 695 OFFCURVE",
"949 657 OFFCURVE",
"1038 588 OFFCURVE",
"1102 492 OFFCURVE",
"1117 434 QCURVE SMOOTH",
"1135 365 OFFCURVE",
"1114 229 OFFCURVE",
"1046 114 OFFCURVE",
"937 29 OFFCURVE",
"867 11 QCURVE SMOOTH",
"829 1 OFFCURVE",
"795 0 QCURVE",
"28 0 LINE",
"28 695 LINE"
);
},
{
nodes = (
"640 30 LINE",
"571 60 OFFCURVE",
"470 173 OFFCURVE",
"447 249 QCURVE",
"58 249 LINE",
"58 30 LINE"
);
},
{
nodes = (
"765 279 LINE",
"765 416 LINE",
"390 416 LINE",
"390 279 LINE"
);
},
{
nodes = (
"923 56 OFFCURVE",
"1023 134 OFFCURVE",
"1085 239 OFFCURVE",
"1104 363 OFFCURVE",
"1088 427 QCURVE SMOOTH",
"1074 479 OFFCURVE",
"1016 567 OFFCURVE",
"934 630 OFFCURVE",
"834 665 OFFCURVE",
"780 665 QCURVE SMOOTH",
"58 665 LINE",
"58 279 LINE",
"360 279 LINE",
"360 446 LINE",
"795 446 LINE",
"795 249 LINE",
"478 249 LINE",
"494 200 OFFCURVE",
"554 120 OFFCURVE",
"632 63 OFFCURVE",
"726 31 OFFCURVE",
"776 30 QCURVE",
"785 30 LINE SMOOTH",
"804 30 OFFCURVE",
"841 35 OFFCURVE",
"860 40 QCURVE SMOOTH"
);
},
{
nodes = (
"77 49 LINE",
"77 230 LINE",
"433 230 LINE",
"452 173 OFFCURVE",
"521 81 OFFCURVE",
"567 49 QCURVE"
);
},
{
nodes = (
"409 298 LINE",
"409 397 LINE",
"746 397 LINE",
"746 298 LINE"
);
},
{
nodes = (
"856 58 LINE",
"839 54 OFFCURVE",
"804 49 OFFCURVE",
"785 49 QCURVE SMOOTH",
"776 49 LINE",
"732 50 OFFCURVE",
"649 76 OFFCURVE",
"579 122 OFFCURVE",
"523 189 OFFCURVE",
"505 230 QCURVE",
"814 230 LINE",
"814 465 LINE",
"341 465 LINE",
"341 298 LINE",
"77 298 LINE",
"77 646 LINE",
"780 646 LINE SMOOTH",
"831 646 OFFCURVE",
"925 613 OFFCURVE",
"1002 554 OFFCURVE",
"1057 471 OFFCURVE",
"1070 422 QCURVE SMOOTH",
"1079 386 OFFCURVE",
"1079 348 QCURVE SMOOTH",
"1079 298 OFFCURVE",
"1047 205 OFFCURVE",
"988 128 OFFCURVE",
"906 71 OFFCURVE",
"855 58 QCURVE"
);
}
);
width = 1148;
}
);
unicode = 0064;
},
{
glyphname = e;
layers = (
{
layerId = "AE796192-B776-4211-9DF5-23F45CECCAB6";
paths = (
{
nodes = (
"1054 695 LINE",
"1054 416 LINE",
"430 416 LINE",
"430 363 LINE",
"846 363 LINE",
"846 208 LINE",
"430 208 LINE",
"430 155 LINE",
"1054 155 LINE",
"1054 0 LINE",
"26 0 LINE",
"26 695 LINE"
);
},
{
nodes = (
"1024 125 LINE",
"430 125 LINE",
"430 30 LINE",
"1024 30 LINE"
);
},
{
nodes = (
"400 208 LINE",
"56 208 LINE",
"56 30 LINE",
"400 30 LINE"
);
},
{
nodes = (
"816 333 LINE",
"400 333 LINE",
"400 665 LINE",
"56 665 LINE",
"56 238 LINE",
"816 238 LINE"
);
},
{
nodes = (
"1024 665 LINE",
"430 665 LINE",
"430 446 LINE",
"1024 446 LINE"
);
},
{
nodes = (
"1005 106 LINE",
"1005 49 LINE",
"449 49 LINE",
"449 106 LINE"
);
},
{
nodes = (
"381 49 LINE",
"75 49 LINE",
"75 189 LINE",
"381 189 LINE"
);
},
{
nodes = (
"797 314 LINE",
"797 257 LINE",
"75 257 LINE",
"75 646 LINE",
"381 646 LINE",
"381 314 LINE"
);
},
{
nodes = (
"1005 646 LINE",
"1005 465 LINE",
"449 465 LINE",
"449 646 LINE"
);
}
);
width = 1078;
}
);
unicode = 0065;
},
{
glyphname = f;
layers = (
{
layerId = "AE796192-B776-4211-9DF5-23F45CECCAB6";
paths = (
{
nodes = (
"1060 695 LINE",
"1060 416 LINE",
"437 416 LINE",
"437 363 LINE",
"852 363 LINE",
"852 208 LINE",
"437 208 LINE",
"437 0 LINE",
"33 0 LINE",
"33 695 LINE"
);
},
{
nodes = (
"822 333 LINE",
"63 333 LINE",
"63 30 LINE",
"407 30 LINE",
"407 238 LINE",
"822 238 LINE"
);
},
{
nodes = (
"63 363 LINE",
"407 363 LINE",
"407 665 LINE",
"63 665 LINE"
);
},
{
nodes = (
"1030 665 LINE",
"437 665 LINE",
"437 446 LINE",
"1030 446 LINE"
);
},
{
nodes = (
"803 314 LINE",
"803 257 LINE",
"388 257 LINE",
"388 49 LINE",
"82 49 LINE",
"82 314 LINE"
);
},
{
nodes = (
"82 382 LINE",
"82 646 LINE",
"388 646 LINE",
"388 382 LINE"
);
},
{
nodes = (
"1011 646 LINE",
"1011 465 LINE",
"456 465 LINE",
"456 646 LINE"
);
}
);
width = 1083;
}
);
unicode = 0066;
},
{
glyphname = g;
layers = (
{
layerId = "AE796192-B776-4211-9DF5-23F45CECCAB6";
paths = (
{
nodes = (
"424 279 LINE",
"757 279 LINE",
"757 363 LINE",
"1161 363 LINE",
"1161 0 LINE",
"367 0 LINE",
"298 1 OFFCURVE",
"172 54 OFFCURVE",
"75 147 OFFCURVE",
"18 273 OFFCURVE",
"18 347 QCURVE SMOOTH",
"18 419 OFFCURVE",
"73 545 OFFCURVE",
"168 640 OFFCURVE",
"295 695 OFFCURVE",
"367 695 QCURVE SMOOTH",
"825 695 LINE SMOOTH",
"884 695 OFFCURVE",
"993 657 OFFCURVE",
"1082 588 OFFCURVE",
"1146 492 OFFCURVE",
"1161 434 QCURVE SMOOTH",
"1166 416 LINE",
"424 416 LINE"
);
},
{
nodes = (
"424 665 LINE",
"424 446 LINE",
"1126 446 LINE",
"1110 495 OFFCURVE",
"1051 575 OFFCURVE",
"972 633 OFFCURVE",
"877 665 OFFCURVE",
"825 665 QCURVE SMOOTH"
);
},
{
nodes = (
"367 665 LINE SMOOTH",
"301 665 OFFCURVE",
"186 615 OFFCURVE",
"100 529 OFFCURVE",
"50 414 OFFCURVE",
"50 348 QCURVE SMOOTH",
"50 330 OFFCURVE",
"54 296 OFFCURVE",
"57 279 QCURVE",
"394 279 LINE",
"394 665 LINE"
);
},
{
nodes = (
"394 30 LINE",
"394 249 LINE",
"65 249 LINE",
"81 201 OFFCURVE",
"140 121 OFFCURVE",
"219 63 OFFCURVE",
"314 30 OFFCURVE",
"367 30 QCURVE SMOOTH"
);
},
{
nodes = (
"787 30 LINE",
"1131 30 LINE",
"1131 333 LINE",
"787 333 LINE"
);
},
{
nodes = (
"424 249 LINE",
"424 30 LINE",
"757 30 LINE",
"757 249 LINE"
);
},
{
nodes = (
"825 646 LINE SMOOTH",
"870 646 OFFCURVE",
"954 620 OFFCURVE",
"1025 572 OFFCURVE",
"1081 505 OFFCURVE",
"1099 465 QCURVE",
"443 465 LINE",
"443 646 LINE"
);
},
{
nodes = (
"375 646 LINE",
"375 298 LINE",
"73 298 LINE",
"71 312 OFFCURVE",
"69 334 OFFCURVE",
"69 348 QCURVE SMOOTH",
"69 410 OFFCURVE",
"116 518 OFFCURVE",
"197 599 OFFCURVE",
"305 646 OFFCURVE",
"367 646 QCURVE SMOOTH"
);
},
{
nodes = (
"367 49 LINE SMOOTH",
"321 49 OFFCURVE",
"236 75 OFFCURVE",
"164 123 OFFCURVE",
"109 189 OFFCURVE",
"92 230 QCURVE",
"375 230 LINE",
"375 49 LINE"
);
},
{
nodes = (
"806 314 LINE",
"1112 314 LINE",
"1112 49 LINE",
"806 49 LINE"
);
},
{
nodes = (
"738 230 LINE",
"738 49 LINE",
"443 49 LINE",
"443 230 LINE"
);
}
);
width = 1189;
}
);
unicode = 0067;
},
{
glyphname = h;
layers = (
{
layerId = "AE796192-B776-4211-9DF5-23F45CECCAB6";
paths = (
{
nodes = (
"779 362 LINE",
"779 695 LINE",
"1183 695 LINE",
"1183 0 LINE",
"779 0 LINE",
"779 208 LINE",
"435 208 LINE",
"435 0 LINE",
"31 0 LINE",
"31 695 LINE",
"435 695 LINE",
"435 362 LINE"
);
},
{
nodes = (
"61 665 LINE",
"61 238 LINE",
"405 238 LINE",
"405 665 LINE"
);
},
{
nodes = (
"405 30 LINE",
"405 208 LINE",
"61 208 LINE",
"61 30 LINE"
);
},
{
nodes = (
"435 238 LINE",
"779 238 LINE",
"779 332 LINE",
"435 332 LINE"
);
},
{
nodes = (
"809 665 LINE",
"809 30 LINE",
"1153 30 LINE",
"1153 665 LINE"
);
},
{
nodes = (
"80 646 LINE",
"386 646 LINE",
"386 257 LINE",
"80 257 LINE"
);
},
{
nodes = (
"386 49 LINE",
"80 49 LINE",
"80 189 LINE",
"386 189 LINE"
);
},
{
nodes = (
"454 257 LINE",
"454 313 LINE",
"760 313 LINE",
"760 257 LINE"
);
},
{
nodes = (
"828 646 LINE",
"1134 646 LINE",
"1134 49 LINE",
"828 49 LINE"
);
}
);
width = 1209;
}
);
unicode = 0068;
},
{
glyphname = i;
layers = (
{
layerId = "AE796192-B776-4211-9DF5-23F45CECCAB6";
paths = (
{
nodes = (
"26 695 LINE",
"430 695 LINE",
"430 0 LINE",
"26 0 LINE"
);
},
{
nodes = (
"400 30 LINE",
"400 333 LINE",
"56 333 LINE",
"56 30 LINE"
);
},
{
nodes = (
"56 665 LINE",
"56 363 LINE",
"400 363 LINE",
"400 665 LINE"
);
},
{
nodes = (
"381 49 LINE",
"75 49 LINE",
"75 314 LINE",
"381 314 LINE"
);
},
{
nodes = (
"75 646 LINE",
"381 646 LINE",
"381 382 LINE",
"75 382 LINE"
);
}
);
width = 455;
}
);
unicode = 0069;
},
{
glyphname = j;
layers = (
{
layerId = "AE796192-B776-4211-9DF5-23F45CECCAB6";
paths = (
{
nodes = (
"1093 181 LINE SMOOTH",
"1093 145 OFFCURVE",
"1067 82 OFFCURVE",
"1022 34 OFFCURVE",
"961 4 OFFCURVE",
"926 1 QCURVE",
"926 0 LINE",
"190 0 LINE",
"190 1 LINE",
"155 4 OFFCURVE",
"95 34 OFFCURVE",
"50 82 OFFCURVE",
"24 145 OFFCURVE",
"24 181 QCURVE SMOOTH",
"24 279 LINE",
"730 279 LINE",
"730 416 LINE",
"24 416 LINE",
"24 695 LINE",
"1093 695 LINE"
);
},
{
nodes = (
"54 446 LINE",
"740 446 LINE",
"1033 665 LINE",
"54 665 LINE"
);
},
{
nodes = (
"54 181 LINE SMOOTH",
"54 150 OFFCURVE",
"78 95 OFFCURVE",
"119 54 OFFCURVE",
"174 30 OFFCURVE",
"205 30 QCURVE SMOOTH",
"236 30 OFFCURVE",
"291 54 OFFCURVE",
"332 95 OFFCURVE",
"356 150 OFFCURVE",
"356 181 QCURVE SMOOTH",
"356 249 LINE",
"54 249 LINE"
);
},
{
nodes = (
"812 30 LINE",
"775 54 OFFCURVE",
"730 133 OFFCURVE",
"730 181 QCURVE SMOOTH",
"730 249 LINE",
"386 249 LINE",
"386 181 LINE SMOOTH",
"386 133 OFFCURVE",
"342 54 OFFCURVE",
"305 30 QCURVE"
);
},
{
nodes = (
"942 30 OFFCURVE",
"998 54 OFFCURVE",
"1039 95 OFFCURVE",
"1063 150 OFFCURVE",
"1063 181 QCURVE SMOOTH",
"1063 650 LINE",
"760 423 LINE",
"760 181 LINE SMOOTH",
"760 150 OFFCURVE",
"784 95 OFFCURVE",
"825 54 OFFCURVE",
"880 30 OFFCURVE",
"911 30 QCURVE SMOOTH"
);
},
{
nodes = (
"73 646 LINE",
"977 646 LINE",
"941 619 OFFCURVE",
"883 575 OFFCURVE",
"827 534 OFFCURVE",
"769 491 OFFCURVE",
"734 465 QCURVE",
"73 465 LINE"
);
},
{
nodes = (
"73 230 LINE",
"337 230 LINE",
"337 181 LINE SMOOTH",
"337 154 OFFCURVE",
"316 106 OFFCURVE",
"280 70 OFFCURVE",
"232 49 OFFCURVE",
"205 49 QCURVE SMOOTH",
"178 49 OFFCURVE",
"130 70 OFFCURVE",
"94 106 OFFCURVE",
"73 154 OFFCURVE",
"73 181 QCURVE SMOOTH"
);
},
{
nodes = (
"355 49 LINE",
"405 104 OFFCURVE",
"405 181 QCURVE SMOOTH",
"405 230 LINE",
"711 230 LINE",
"711 181 LINE SMOOTH",
"711 143 OFFCURVE",
"737 75 OFFCURVE",
"761 49 QCURVE"
);
},
{
nodes = (
"884 49 OFFCURVE",
"836 70 OFFCURVE",
"800 106 OFFCURVE",
"779 154 OFFCURVE",
"779 181 QCURVE SMOOTH",
"779 414 LINE",
"1044 613 LINE",
"1044 181 LINE SMOOTH",
"1044 154 OFFCURVE",
"1023 106 OFFCURVE",
"987 70 OFFCURVE",
"938 49 OFFCURVE",
"911 49 QCURVE SMOOTH"
);
}
);
width = 1118;
}
);
unicode = 006A;
},
{
glyphname = k;
layers = (
{
layerId = "AE796192-B776-4211-9DF5-23F45CECCAB6";
paths = (
{
nodes = (
"1139 695 LINE",
"1139 514 LINE SMOOTH",
"1139 458 OFFCURVE",
"1078 369 OFFCURVE",
"1030 348 QCURVE",
"1078 327 OFFCURVE",
"1139 238 OFFCURVE",
"1139 182 QCURVE SMOOTH",
"1139 0 LINE",
"28 0 LINE",
"28 695 LINE"
);
},
{
nodes = (
"432 665 LINE",
"432 363 LINE",
"776 363 LINE",
"776 665 LINE"
);
},
{
nodes = (
"402 30 LINE",
"402 665 LINE",
"58 665 LINE",
"58 30 LINE"
);
},
{
nodes = (
"776 30 LINE",
"776 333 LINE",
"432 333 LINE",
"432 30 LINE"
);
},
{
nodes = (
"1109 182 LINE SMOOTH",
"1109 213 OFFCURVE",
"1085 268 OFFCURVE",
"1044 309 OFFCURVE",
"988 333 OFFCURVE",
"957 333 QCURVE SMOOTH",
"806 333 LINE",
"806 30 LINE",
"1109 30 LINE"
);
},
{
nodes = (
"806 665 LINE",
"806 363 LINE",
"957 363 LINE SMOOTH",
"988 363 OFFCURVE",
"1044 387 OFFCURVE",
"1085 428 OFFCURVE",
"1109 483 OFFCURVE",
"1109 514 QCURVE SMOOTH",
"1109 665 LINE"
);
},
{
nodes = (
"757 646 LINE",
"757 382 LINE",
"451 382 LINE",
"451 646 LINE"
);
},
{
nodes = (
"77 49 LINE",
"77 646 LINE",
"383 646 LINE",
"383 49 LINE"
);
},
{
nodes = (
"451 49 LINE",
"451 314 LINE",
"757 314 LINE",
"757 49 LINE"
);
},
{
nodes = (
"1090 49 LINE",
"825 49 LINE",
"825 314 LINE",
"957 314 LINE SMOOTH",
"984 314 OFFCURVE",
"1033 293 OFFCURVE",
"1069 257 OFFCURVE",
"1090 209 OFFCURVE",
"1090 182 QCURVE SMOOTH"
);
},
{
nodes = (
"1090 646 LINE",
"1090 514 LINE SMOOTH",
"1090 487 OFFCURVE",
"1069 439 OFFCURVE",
"1033 403 OFFCURVE",
"984 382 OFFCURVE",
"957 382 QCURVE SMOOTH",
"825 382 LINE",
"825 646 LINE"
);
}
);
width = 1163;
}
);
unicode = 006B;
},
{
glyphname = l;
layers = (
{
layerId = "AE796192-B776-4211-9DF5-23F45CECCAB6";
paths = (
{
nodes = (
"432 695 LINE",
"432 280 LINE",
"889 280 LINE",
"889 0 LINE",
"28 0 LINE",
"28 695 LINE"
);
},
{
nodes = (
"859 250 LINE",
"432 250 LINE",
"432 30 LINE",
"859 30 LINE"
);
},
{
nodes = (
"402 30 LINE",
"402 665 LINE",
"58 665 LINE",
"58 30 LINE"
);
},
{
nodes = (
"840 231 LINE",
"840 49 LINE",
"451 49 LINE",
"451 231 LINE"
);
},
{
nodes = (
"383 49 LINE",
"77 49 LINE",
"77 646 LINE",
"383 646 LINE"
);
}
);
width = 914;
}
);
unicode = 006C;
},
{
glyphname = m;
layers = (
{
layerId = "AE796192-B776-4211-9DF5-23F45CECCAB6";
paths = (
{
nodes = (
"1221 0 LINE",
"858 0 LINE",
"858 260 LINE",
"624 -8 LINE",
"390 260 LINE",
"390 0 LINE",
"27 0 LINE",
"27 695 LINE",
"381 695 LINE",
"624 417 LINE",
"867 695 LINE",
"1221 695 LINE"
);
},
{
nodes = (
"360 30 LINE",
"360 285 LINE",
"57 285 LINE",
"57 30 LINE"
);
},
{
nodes = (
"609 55 LINE",
"609 389 LINE",
"368 665 LINE",
"57 665 LINE",
"57 315 LINE",
"381 315 LINE"
);
},
{
nodes = (
"639 55 LINE",
"867 315 LINE",
"1191 315 LINE",
"1191 665 LINE",
"880 665 LINE",
"639 389 LINE"
);
},
{
nodes = (
"1191 285 LINE",
"888 285 LINE",
"888 30 LINE",
"1191 30 LINE"
);
},
{
nodes = (
"76 49 LINE",
"76 266 LINE",
"341 266 LINE",
"341 49 LINE"
);
},
{
nodes = (
"390 334 LINE",
"76 334 LINE",
"76 646 LINE",
"360 646 LINE",
"419 579 OFFCURVE",
"532 450 OFFCURVE",
"590 383 QCURVE",
"590 105 LINE"
);
},
{
nodes = (
"658 383 LINE",
"717 451 OFFCURVE",
"829 578 OFFCURVE",
"888 646 QCURVE",
"1172 646 LINE",
"1172 334 LINE",
"858 334 LINE",
"658 105 LINE"
);
},
{
nodes = (
"1172 49 LINE",
"907 49 LINE",
"907 266 LINE",
"1172 266 LINE"
);
}
);
width = 1250;
}
);
unicode = 006D;
},
{
glyphname = n;
layers = (
{
layerId = "AE796192-B776-4211-9DF5-23F45CECCAB6";
paths = (
{
nodes = (
"777 695 LINE",
"1181 695 LINE",
"1181 0 LINE",
"787 0 LINE",
"433 314 LINE",
"433 0 LINE",
"29 0 LINE",
"29 695 LINE",
"424 695 LINE",
"777 380 LINE"
);
},
{
nodes = (
"403 340 LINE",
"59 646 LINE",
"59 30 LINE",
"403 30 LINE"
);
},
{
nodes = (
"1152 30 LINE",
"1152 332 LINE",
"787 332 LINE",
"413 665 LINE",
"84 665 LINE",
"798 30 LINE"
);
},
{
nodes = (
"807 665 LINE",
"807 362 LINE",
"1152 362 LINE",
"1152 665 LINE"
);
},
{
nodes = (
"384 49 LINE",
"78 49 LINE",
"78 603 LINE",
"120 565 OFFCURVE",
"195 500 OFFCURVE",
"268 435 OFFCURVE",
"342 369 OFFCURVE",
"384 332 QCURVE"
);
},
{
nodes = (
"805 49 LINE",
"635 200 OFFCURVE",
"304 496 OFFCURVE",
"134 646 QCURVE",
"406 646 LINE",
"780 313 LINE",
"1133 313 LINE",
"1133 49 LINE"
);
},
{
nodes = (
"1133 646 LINE",
"1133 381 LINE",
"826 381 LINE",
"826 646 LINE"
);
}
);
width = 1208;
}
);
unicode = 006E;
},
{
glyphname = p;
layers = (
{
layerId = "AE796192-B776-4211-9DF5-23F45CECCAB6";
paths = (
{
nodes = (
"890 695 LINE",
"933 692 OFFCURVE",
"1009 655 OFFCURVE",
"1066 595 OFFCURVE",
"1098 517 OFFCURVE",
"1098 473 QCURVE SMOOTH",
"1098 429 OFFCURVE",
"1066 350 OFFCURVE",
"1009 290 OFFCURVE",
"933 253 OFFCURVE",
"890 250 QCURVE",
"438 250 LINE",
"438 0 LINE",
"34 0 LINE",
"34 695 LINE"
);
},
{
nodes = (
"64 488 LINE",
"653 488 LINE",
"657 545 OFFCURVE",
"717 638 OFFCURVE",
"764 665 QCURVE",
"64 665 LINE"
);
},
{
nodes = (
"408 250 LINE",
"64 250 LINE",
"64 30 LINE",
"408 30 LINE"
);
},
{
nodes = (
"764 280 LINE",
"717 307 OFFCURVE",
"657 401 OFFCURVE",
"653 458 QCURVE",
"64 458 LINE",
"64 280 LINE"
);
},
{
nodes = (
"915 280 OFFCURVE",
"985 310 OFFCURVE",
"1038 363 OFFCURVE",
"1068 433 OFFCURVE",
"1068 473 QCURVE SMOOTH",
"1068 513 OFFCURVE",
"1038 583 OFFCURVE",
"985 635 OFFCURVE",
"915 665 OFFCURVE",
"875 665 QCURVE SMOOTH",
"835 665 OFFCURVE",
"765 635 OFFCURVE",
"713 583 OFFCURVE",
"683 513 OFFCURVE",
"683 473 QCURVE SMOOTH",
"683 433 OFFCURVE",
"713 363 OFFCURVE",
"765 310 OFFCURVE",
"835 280 OFFCURVE",
"875 280 QCURVE SMOOTH"
);
},
{
nodes = (
"83 646 LINE",
"707 646 LINE",
"680 619 OFFCURVE",
"642 547 OFFCURVE",
"636 507 QCURVE",
"83 507 LINE"
);
},
{
nodes = (
"389 49 LINE",
"83 49 LINE",
"83 231 LINE",
"389 231 LINE"
);
},
{
nodes = (
"83 299 LINE",
"83 439 LINE",
"636 439 LINE",
"642 399 OFFCURVE",
"680 326 OFFCURVE",
"708 299 QCURVE"
);
},
{
nodes = (
"839 299 OFFCURVE",
"776 326 OFFCURVE",
"729 374 OFFCURVE",
"702 437 OFFCURVE",
"702 473 QCURVE SMOOTH",
"702 509 OFFCURVE",
"729 572 OFFCURVE",
"776 619 OFFCURVE",
"839 646 OFFCURVE",
"875 646 QCURVE SMOOTH",
"911 646 OFFCURVE",
"974 619 OFFCURVE",
"1022 572 OFFCURVE",
"1049 509 OFFCURVE",
"1049 473 QCURVE SMOOTH",
"1049 437 OFFCURVE",
"1022 374 OFFCURVE",
"974 326 OFFCURVE",
"911 299 OFFCURVE",
"875 299 QCURVE SMOOTH"
);
}
);
width = 1118;
}
);
unicode = 0070;
},
{
glyphname = q;
layers = (
{
layerId = "AE796192-B776-4211-9DF5-23F45CECCAB6";
paths = (
{
nodes = (
"841 695 LINE",
"910 692 OFFCURVE",
"1031 635 OFFCURVE",
"1121 541 OFFCURVE",
"1173 417 OFFCURVE",
"1173 347 QCURVE SMOOTH",
"1173 277 OFFCURVE",
"1121 154 OFFCURVE",
"1031 60 OFFCURVE",
"910 3 OFFCURVE",
"841 0 QCURVE",
"841 -125 LINE",
"354 -125 LINE",
"354 0 LINE",
"285 3 OFFCURVE",
"163 60 OFFCURVE",
"73 154 OFFCURVE",
"21 277 OFFCURVE",
"21 347 QCURVE SMOOTH",
"21 419 OFFCURVE",
"76 546 OFFCURVE",
"170 640 OFFCURVE",
"297 695 OFFCURVE",
"369 695 QCURVE SMOOTH"
);
},
{
nodes = (
"811 664 LINE",
"748 661 OFFCURVE",
"638 609 OFFCURVE",
"555 523 OFFCURVE",
"508 411 OFFCURVE",
"508 347 QCURVE SMOOTH",
"508 283 OFFCURVE",
"555 170 OFFCURVE",
"638 85 OFFCURVE",
"748 33 OFFCURVE",
"811 30 QCURVE"
);
},
{
nodes = (
"51 281 OFFCURVE",
"101 166 OFFCURVE",
"188 80 OFFCURVE",
"303 30 OFFCURVE",
"369 30 QCURVE SMOOTH",
"685 30 LINE",
"639 50 OFFCURVE",
"563 115 OFFCURVE",
"508 197 OFFCURVE",
"478 294 OFFCURVE",
"478 347 QCURVE SMOOTH",
"478 400 OFFCURVE",
"508 497 OFFCURVE",
"563 579 OFFCURVE",
"639 644 OFFCURVE",
"685 665 QCURVE",
"369 665 LINE SMOOTH",
"303 665 OFFCURVE",
"188 615 OFFCURVE",
"101 528 OFFCURVE",
"51 413 OFFCURVE",
"51 347 QCURVE SMOOTH"
);
},
{
nodes = (
"811 -95 LINE",
"811 0 LINE",
"384 0 LINE",
"384 -95 LINE"
);
},
{
nodes = (
"841 30 LINE",
"904 33 OFFCURVE",
"1014 85 OFFCURVE",
"1096 170 OFFCURVE",
"1143 283 OFFCURVE",
"1143 347 QCURVE SMOOTH",
"1143 411 OFFCURVE",
"1096 523 OFFCURVE",
"1014 609 OFFCURVE",
"904 661 OFFCURVE",
"841 664 QCURVE"
);
},
{
nodes = (
"792 51 LINE",
"736 57 OFFCURVE",
"639 108 OFFCURVE",
"568 188 OFFCURVE",
"527 290 OFFCURVE",
"527 347 QCURVE SMOOTH",
"527 404 OFFCURVE",
"568 506 OFFCURVE",
"639 586 OFFCURVE",
"736 637 OFFCURVE",
"792 643 QCURVE"
);
},
{
nodes = (
"70 409 OFFCURVE",
"117 518 OFFCURVE",
"198 599 OFFCURVE",
"307 646 OFFCURVE",
"369 646 QCURVE SMOOTH",
"614 646 LINE",
"538 596 OFFCURVE",
"459 444 OFFCURVE",
"459 347 QCURVE SMOOTH",
"459 302 OFFCURVE",
"482 216 OFFCURVE",
"522 139 OFFCURVE",
"579 74 OFFCURVE",
"613 49 QCURVE",
"369 49 LINE SMOOTH",
"307 49 OFFCURVE",
"198 96 OFFCURVE",
"117 177 OFFCURVE",
"70 285 OFFCURVE",
"70 347 QCURVE SMOOTH"
);
},
{
nodes = (
"403 -76 LINE",
"403 -19 LINE",
"792 -19 LINE",
"792 -76 LINE"
);
},
{
nodes = (
"860 643 LINE",
"916 637 OFFCURVE",
"1012 586 OFFCURVE",
"1083 506 OFFCURVE",
"1124 404 OFFCURVE",
"1124 347 QCURVE SMOOTH",
"1124 290 OFFCURVE",
"1083 188 OFFCURVE",
"1012 108 OFFCURVE",
"915 57 OFFCURVE",
"860 50 QCURVE"
);
}
);
width = 1195;
}
);
unicode = 0071;
},
{
glyphname = r;
layers = (
{
layerId = "AE796192-B776-4211-9DF5-23F45CECCAB6";
paths = (
{
nodes = (
"1180 431 OFFCURVE",
"1150 355 OFFCURVE",
"1098 296 OFFCURVE",
"1028 258 OFFCURVE",
"987 252 QCURVE",
"1197 0 LINE",
"784 0 LINE",
"432 423 LINE",
"432 0 LINE",
"28 0 LINE",
"28 695 LINE",
"972 695 LINE",
"1015 692 OFFCURVE",
"1091 655 OFFCURVE",
"1148 595 OFFCURVE",
"1180 517 OFFCURVE",
"1180 473 QCURVE SMOOTH"
);
},
{
nodes = (
"1150 513 OFFCURVE",
"1119 583 OFFCURVE",
"1067 635 OFFCURVE",
"997 665 OFFCURVE",
"957 665 QCURVE SMOOTH",
"917 665 OFFCURVE",
"847 635 OFFCURVE",
"794 583 OFFCURVE",
"764 513 OFFCURVE",
"764 473 QCURVE SMOOTH",
"764 433 OFFCURVE",
"794 363 OFFCURVE",
"847 310 OFFCURVE",
"917 280 OFFCURVE",
"957 280 QCURVE SMOOTH",
"997 280 OFFCURVE",
"1067 310 OFFCURVE",
"1119 363 OFFCURVE",
"1150 433 OFFCURVE",
"1150 473 QCURVE SMOOTH"
);
},
{
nodes = (
"269 665 LINE",
"402 506 LINE",
"402 665 LINE"
);
},
{
nodes = (
"402 459 LINE",
"230 665 LINE",
"58 665 LINE",
"58 30 LINE",
"402 30 LINE"
);
},
{
nodes = (
"590 280 LINE",
"846 280 LINE",
"795 309 OFFCURVE",
"734 410 OFFCURVE",
"734 473 QCURVE SMOOTH",
"734 535 OFFCURVE",
"795 636 OFFCURVE",
"846 665 QCURVE",
"432 665 LINE",
"432 470 LINE"
);
},
{
nodes = (
"1133 30 LINE",
"950 250 LINE",
"615 250 LINE",
"798 30 LINE"
);
},
{
nodes = (
"1131 437 OFFCURVE",
"1104 374 OFFCURVE",
"1056 326 OFFCURVE",
"993 299 OFFCURVE",
"957 299 QCURVE SMOOTH",
"921 299 OFFCURVE",
"858 326 OFFCURVE",
"810 374 OFFCURVE",
"783 437 OFFCURVE",
"783 473 QCURVE SMOOTH",
"783 509 OFFCURVE",
"810 572 OFFCURVE",
"858 619 OFFCURVE",
"921 646 OFFCURVE",
"957 646 QCURVE SMOOTH",
"993 646 OFFCURVE",
"1056 619 OFFCURVE",
"1104 572 OFFCURVE",
"1131 509 OFFCURVE",
"1131 473 QCURVE SMOOTH"
);
},
{
nodes = (
"383 646 LINE",
"383 560 LINE",
"359 589 OFFCURVE",
"327 626 OFFCURVE",
"310 646 QCURVE"
);
},
{
nodes = (
"383 49 LINE",
"77 49 LINE",
"77 646 LINE",
"221 646 LINE",
"383 451 LINE"
);
},
{
nodes = (
"451 477 LINE",
"451 646 LINE",
"788 646 LINE",
"753 613 OFFCURVE",
"715 526 OFFCURVE",
"715 473 QCURVE SMOOTH",
"715 419 OFFCURVE",
"753 332 OFFCURVE",
"788 299 QCURVE",
"599 299 LINE"
);
},
{
nodes = (
"806 49 LINE",
"766 97 OFFCURVE",
"694 184 OFFCURVE",
"656 231 QCURVE",
"942 231 LINE",
"982 183 OFFCURVE",
"1054 96 OFFCURVE",
"1092 49 QCURVE"
);
}
);
width = 1209;
}
);
unicode = 0072;
},
{
glyphname = s;
layers = (
{
layerId = "AE796192-B776-4211-9DF5-23F45CECCAB6";
paths = (
{
nodes = (
"1139 695 LINE",
"1139 498 LINE",
"973 498 LINE",
"973 361 LINE",
"1007 358 OFFCURVE",
"1068 328 OFFCURVE",
"1113 280 OFFCURVE",
"1139 217 OFFCURVE",
"1139 181 QCURVE SMOOTH",
"1139 145 OFFCURVE",
"1113 82 OFFCURVE",
"1068 34 OFFCURVE",
"1007 3 OFFCURVE",
"973 0 QCURVE",
"28 0 LINE",
"28 196 LINE",
"195 196 LINE",
"195 333 LINE",
"160 336 OFFCURVE",
"99 366 OFFCURVE",
"54 414 OFFCURVE",
"28 477 OFFCURVE",
"28 513 QCURVE SMOOTH",
"28 549 OFFCURVE",
"54 612 OFFCURVE",
"100 661 OFFCURVE",
"161 692 OFFCURVE",
"196 695 QCURVE"
);
},
{
nodes = (
"58 482 OFFCURVE",
"82 427 OFFCURVE",
"123 386 OFFCURVE",
"178 362 OFFCURVE",
"210 362 QCURVE SMOOTH",
"240 362 OFFCURVE",
"294 384 OFFCURVE",
"335 423 OFFCURVE",
"359 476 OFFCURVE",
"361 506 QCURVE",
"360 541 OFFCURVE",
"335 599 OFFCURVE",
"294 641 OFFCURVE",
"240 665 OFFCURVE",
"210 665 QCURVE SMOOTH",
"178 665 OFFCURVE",
"123 641 OFFCURVE",
"82 600 OFFCURVE",
"58 544 OFFCURVE",
"58 513 QCURVE SMOOTH"
);
},
{
nodes = (
"858 30 LINE",
"823 53 OFFCURVE",
"778 128 OFFCURVE",
"776 174 QCURVE",
"388 484 LINE",
"383 454 OFFCURVE",
"354 401 OFFCURVE",
"311 361 OFFCURVE",
"255 336 OFFCURVE",
"224 333 QCURVE",
"224 166 LINE",
"58 166 LINE",
"58 30 LINE"
);
},
{
nodes = (
"1109 212 OFFCURVE",
"1085 267 OFFCURVE",
"1044 308 OFFCURVE",
"989 332 OFFCURVE",
"958 332 QCURVE SMOOTH",
"927 332 OFFCURVE",
"873 309 OFFCURVE",
"832 268 OFFCURVE",
"807 210 OFFCURVE",
"806 176 QCURVE",
"807 146 OFFCURVE",
"832 92 OFFCURVE",
"873 53 OFFCURVE",
"927 30 OFFCURVE",
"958 30 QCURVE SMOOTH",
"989 30 OFFCURVE",
"1044 54 OFFCURVE",
"1085 94 OFFCURVE",
"1109 149 OFFCURVE",
"1109 181 QCURVE SMOOTH"
);
},
{
nodes = (
"309 665 LINE",
"344 641 OFFCURVE",
"389 566 OFFCURVE",
"391 521 QCURVE",
"779 210 LINE",
"784 240 OFFCURVE",
"813 293 OFFCURVE",
"856 334 OFFCURVE",
"911 359 OFFCURVE",
"943 361 QCURVE",
"943 528 LINE",
"1109 528 LINE",
"1109 665 LINE"
);
},
{
nodes = (
"77 540 OFFCURVE",
"98 589 OFFCURVE",
"134 625 OFFCURVE",
"182 646 OFFCURVE",
"210 646 QCURVE SMOOTH",
"236 646 OFFCURVE",
"282 625 OFFCURVE",
"318 588 OFFCURVE",
"340 536 OFFCURVE",
"342 506 QCURVE",
"340 480 OFFCURVE",
"319 434 OFFCURVE",
"283 400 OFFCURVE",
"236 381 OFFCURVE",
"210 381 QCURVE SMOOTH",
"182 381 OFFCURVE",
"134 402 OFFCURVE",
"98 438 OFFCURVE",
"77 486 OFFCURVE",
"77 513 QCURVE SMOOTH"
);
},
{
nodes = (
"77 49 LINE",
"77 147 LINE",
"243 147 LINE",
"243 316 LINE",
"299 325 OFFCURVE",
"382 398 OFFCURVE",
"399 451 QCURVE",
"447 413 OFFCURVE",
"535 342 OFFCURVE",
"622 273 OFFCURVE",
"710 202 OFFCURVE",
"757 164 QCURVE",
"759 132 OFFCURVE",
"787 72 OFFCURVE",
"807 49 QCURVE"
);
},
{
nodes = (
"1090 154 OFFCURVE",
"1069 106 OFFCURVE",
"1033 70 OFFCURVE",
"985 49 OFFCURVE",
"958 49 QCURVE SMOOTH",
"931 49 OFFCURVE",
"884 69 OFFCURVE",
"848 103 OFFCURVE",
"826 149 OFFCURVE",
"825 176 QCURVE",
"826 206 OFFCURVE",
"848 256 OFFCURVE",
"884 293 OFFCURVE",
"931 313 OFFCURVE",
"958 313 QCURVE SMOOTH",
"985 313 OFFCURVE",
"1033 292 OFFCURVE",
"1069 256 OFFCURVE",
"1090 208 OFFCURVE",
"1090 181 QCURVE SMOOTH"
);
},
{
nodes = (
"1090 646 LINE",
"1090 547 LINE",
"924 547 LINE",
"924 377 LINE",
"898 372 OFFCURVE",
"849 348 OFFCURVE",
"808 312 OFFCURVE",
"776 268 OFFCURVE",
"767 244 QCURVE",
"719 282 OFFCURVE",
"631 353 OFFCURVE",
"545 422 OFFCURVE",
"457 493 OFFCURVE",
"410 531 QCURVE",
"408 563 OFFCURVE",
"381 623 OFFCURVE",
"361 646 QCURVE"
);
}
);
width = 1163;
}
);
unicode = 0073;
},
{
glyphname = t;
layers = (
{
layerId = "AE796192-B776-4211-9DF5-23F45CECCAB6";
paths = (
{
nodes = (
"1092 695 LINE",
"1092 416 LINE",
"759 416 LINE",
"759 0 LINE",
"355 0 LINE",
"355 416 LINE",
"23 416 LINE",
"23 695 LINE"
);
},
{
nodes = (
"53 446 LINE",
"542 446 LINE",
"542 665 LINE",
"53 665 LINE"
);
},
{
nodes = (
"729 30 LINE",
"729 416 LINE",
"385 416 LINE",
"385 30 LINE"
);
},
{
nodes = (
"1062 665 LINE",
"572 665 LINE",
"572 446 LINE",
"1062 446 LINE"
);
},
{
nodes = (
"72 465 LINE",
"72 646 LINE",
"523 646 LINE",
"523 465 LINE"
);
},
{
nodes = (
"710 49 LINE",
"404 49 LINE",
"404 397 LINE",
"710 397 LINE"
);
},
{
nodes = (
"1043 465 LINE",
"591 465 LINE",
"591 646 LINE",
"1043 646 LINE"
);
}
);
width = 1112;
}
);
unicode = 0074;
},
{
glyphname = u;
layers = (
{
layerId = "AE796192-B776-4211-9DF5-23F45CECCAB6";
paths = (
{
nodes = (
"732 695 LINE",
"1095 695 LINE",
"1095 182 LINE SMOOTH",
"1095 146 OFFCURVE",
"1069 83 OFFCURVE",
"1024 34 OFFCURVE",
"963 3 OFFCURVE",
"928 0 QCURVE",
"192 1 LINE",
"157 4 OFFCURVE",
"97 35 OFFCURVE",
"52 83 OFFCURVE",
"26 146 OFFCURVE",
"26 182 QCURVE SMOOTH",
"26 695 LINE",
"388 695 LINE",
"388 363 LINE",
"732 363 LINE"
);
},
{
nodes = (
"56 182 LINE SMOOTH",
"56 150 OFFCURVE",
"80 95 OFFCURVE",
"121 54 OFFCURVE",
"176 30 OFFCURVE",
"207 30 QCURVE SMOOTH",
"238 30 OFFCURVE",
"293 54 OFFCURVE",
"334 95 OFFCURVE",
"358 150 OFFCURVE",
"358 182 QCURVE SMOOTH",
"358 665 LINE",
"56 665 LINE"
);
},
{
nodes = (
"814 30 LINE",
"777 55 OFFCURVE",
"732 134 OFFCURVE",
"732 182 QCURVE SMOOTH",
"732 333 LINE",
"388 333 LINE",
"388 182 LINE SMOOTH",
"388 134 OFFCURVE",
"344 55 OFFCURVE",
"307 30 QCURVE"
);
},
{
nodes = (
"762 182 LINE SMOOTH",
"762 150 OFFCURVE",
"786 95 OFFCURVE",
"827 54 OFFCURVE",
"882 30 OFFCURVE",
"913 30 QCURVE SMOOTH",
"944 30 OFFCURVE",
"1000 54 OFFCURVE",
"1041 95 OFFCURVE",
"1065 150 OFFCURVE",
"1065 182 QCURVE SMOOTH",
"1065 665 LINE",
"762 665 LINE"
);
},
{
nodes = (
"75 646 LINE",
"339 646 LINE",
"339 182 LINE SMOOTH",
"339 154 OFFCURVE",
"318 106 OFFCURVE",
"282 70 OFFCURVE",
"234 49 OFFCURVE",
"207 49 QCURVE SMOOTH",
"180 49 OFFCURVE",
"132 70 OFFCURVE",
"96 106 OFFCURVE",
"75 154 OFFCURVE",
"75 182 QCURVE SMOOTH"
);
},
{
nodes = (
"358 49 LINE",
"384 76 OFFCURVE",
"407 141 OFFCURVE",
"407 182 QCURVE SMOOTH",
"407 314 LINE",
"713 314 LINE",
"713 182 LINE SMOOTH",
"713 148 OFFCURVE",
"744 75 OFFCURVE",
"763 49 QCURVE"
);
},
{
nodes = (
"781 646 LINE",
"1046 646 LINE",
"1046 182 LINE SMOOTH",
"1046 154 OFFCURVE",
"1025 106 OFFCURVE",
"989 70 OFFCURVE",
"940 49 OFFCURVE",
"913 49 QCURVE SMOOTH",
"886 49 OFFCURVE",
"838 70 OFFCURVE",
"802 106 OFFCURVE",
"781 154 OFFCURVE",
"781 182 QCURVE SMOOTH"
);
}
);
width = 1118;
}
);
unicode = 0075;
},
{
glyphname = v;
layers = (
{
layerId = "AE796192-B776-4211-9DF5-23F45CECCAB6";
paths = (
{
nodes = (
"709 695 LINE",
"1114 695 LINE",
"919 0 LINE",
"190 0 LINE",
"-6 695 LINE",
"399 695 LINE",
"540 196 LINE",
"543 196 LINE",
"569 196 LINE"
);
},
{
nodes = (
"34 665 LINE",
"166 196 LINE",
"508 196 LINE",
"377 665 LINE"
);
},
{
nodes = (
"522 30 LINE",
"560 166 LINE",
"174 166 LINE",
"212 30 LINE"
);
},
{
nodes = (
"732 665 LINE",
"553 30 LINE",
"896 30 LINE",
"1075 665 LINE"
);
},
{
nodes = (
"363 646 LINE",
"392 539 OFFCURVE",
"455 321 OFFCURVE",
"484 215 QCURVE",
"180 215 LINE",
"150 321 OFFCURVE",
"88 542 OFFCURVE",
"59 646 QCURVE"
);
},
{
nodes = (
"226 49 LINE",
"219 75 OFFCURVE",
"205 124 OFFCURVE",
"198 147 QCURVE",
"536 147 LINE",
"528 119 OFFCURVE",
"514 73 OFFCURVE",
"507 49 QCURVE"
);
},
{
nodes = (
"1051 646 LINE",
"1029 568 OFFCURVE",
"987 420 OFFCURVE",
"945 274 OFFCURVE",
"903 126 OFFCURVE",
"881 49 QCURVE",
"577 49 LINE",
"599 126 OFFCURVE",
"641 274 OFFCURVE",
"683 421 OFFCURVE",
"725 569 OFFCURVE",
"746 646 QCURVE"
);
}
);
width = 1102;
}
);
unicode = 0076;
},
{
glyphname = w;
layers = (
{
layerId = "AE796192-B776-4211-9DF5-23F45CECCAB6";
paths = (
{
nodes = (
"1620 0 LINE",
"185 0 LINE",
"-11 695 LINE",
"395 695 LINE",
"535 196 LINE",
"564 196 LINE",
"701 695 LINE",
"704 695 LINE",
"1105 696 LINE",
"1241 196 LINE",
"1271 196 LINE",
"1411 695 LINE",
"1816 695 LINE"
);
},
{
nodes = (
"1302 196 LINE",
"1645 196 LINE",
"1776 665 LINE",
"1433 665 LINE"
);
},
{
nodes = (
"918 665 LINE",
"918 196 LINE",
"1210 196 LINE",
"1078 665 LINE"
);
},
{
nodes = (
"595 196 LINE",
"888 196 LINE",
"888 665 LINE",
"727 665 LINE"
);
},
{
nodes = (
"29 665 LINE",
"161 196 LINE",
"504 196 LINE",
"372 665 LINE"
);
},
{
nodes = (
"208 30 LINE",
"517 30 LINE",
"556 166 LINE",
"169 166 LINE"
);
},
{
nodes = (
"1262 166 LINE",
"587 166 LINE",
"548 30 LINE",
"1224 30 LINE"
);
},
{
nodes = (
"1636 166 LINE",
"1293 166 LINE",
"1255 30 LINE",
"1598 30 LINE"
);
},
{
nodes = (
"1447 646 LINE",
"1752 646 LINE",
"1736 589 OFFCURVE",
"1706 482 OFFCURVE",
"1677 377 OFFCURVE",
"1647 271 OFFCURVE",
"1631 215 QCURVE",
"1326 215 LINE"
);
},
{
nodes = (
"1064 646 LINE",
"1094 540 OFFCURVE",
"1156 319 OFFCURVE",
"1185 215 QCURVE",
"937 215 LINE",
"937 646 LINE"
);
},
{
nodes = (
"741 646 LINE",
"869 646 LINE",
"869 215 LINE",
"620 215 LINE"
);
},
{
nodes = (
"358 646 LINE",
"388 540 OFFCURVE",
"450 319 OFFCURVE",
"479 215 QCURVE",
"175 215 LINE",
"145 321 OFFCURVE",
"83 542 OFFCURVE",
"54 646 QCURVE"
);
},
{
nodes = (
"194 147 LINE",
"531 147 LINE",
"522 117 OFFCURVE",
"511 76 OFFCURVE",
"503 49 QCURVE",
"222 49 LINE"
);
},
{
nodes = (
"1209 49 LINE",
"573 49 LINE",
"582 79 OFFCURVE",
"593 120 OFFCURVE",
"601 147 QCURVE",
"1238 147 LINE"
);
},
{
nodes = (
"1583 49 LINE",
"1279 49 LINE",
"1287 77 OFFCURVE",
"1301 123 OFFCURVE",
"1308 147 QCURVE",
"1612 147 LINE"
);
}
);
width = 1799;
}
);
unicode = 0077;
},
{
glyphname = x;
layers = (
{
layerId = "AE796192-B776-4211-9DF5-23F45CECCAB6";
paths = (
{
nodes = (
"1134 695 LINE",
"1134 514 LINE SMOOTH",
"1134 458 OFFCURVE",
"1073 369 OFFCURVE",
"1025 348 QCURVE",
"1073 327 OFFCURVE",
"1134 238 OFFCURVE",
"1134 182 QCURVE SMOOTH",
"1134 0 LINE",
"23 0 LINE",
"23 182 LINE SMOOTH",
"23 238 OFFCURVE",
"84 327 OFFCURVE",
"133 348 QCURVE",
"84 369 OFFCURVE",
"23 458 OFFCURVE",
"23 514 QCURVE SMOOTH",
"23 695 LINE"
);
},
{
nodes = (
"53 514 LINE SMOOTH",
"53 483 OFFCURVE",
"77 428 OFFCURVE",
"118 387 OFFCURVE",
"173 363 OFFCURVE",
"205 363 QCURVE SMOOTH",
"236 363 OFFCURVE",
"291 387 OFFCURVE",
"332 428 OFFCURVE",
"356 483 OFFCURVE",
"356 514 QCURVE SMOOTH",
"356 665 LINE",
"53 665 LINE"
);
},
{
nodes = (
"356 30 LINE",
"356 182 LINE SMOOTH",
"356 213 OFFCURVE",
"332 268 OFFCURVE",
"291 309 OFFCURVE",
"236 333 OFFCURVE",
"205 333 QCURVE SMOOTH",
"173 333 OFFCURVE",
"118 309 OFFCURVE",
"77 268 OFFCURVE",
"53 213 OFFCURVE",
"53 182 QCURVE SMOOTH",
"53 30 LINE"
);
},
{
nodes = (
"771 30 LINE",
"771 182 LINE SMOOTH",
"771 238 OFFCURVE",
"832 327 OFFCURVE",
"881 348 QCURVE",
"832 369 OFFCURVE",
"771 458 OFFCURVE",
"771 514 QCURVE SMOOTH",
"771 665 LINE",
"386 665 LINE",
"386 514 LINE SMOOTH",
"386 458 OFFCURVE",
"325 369 OFFCURVE",
"277 348 QCURVE",
"325 327 OFFCURVE",
"386 238 OFFCURVE",
"386 182 QCURVE SMOOTH",
"386 30 LINE"
);
},
{
nodes = (
"1104 182 LINE SMOOTH",
"1104 213 OFFCURVE",
"1080 268 OFFCURVE",
"1039 309 OFFCURVE",
"984 333 OFFCURVE",
"953 333 QCURVE SMOOTH",
"921 333 OFFCURVE",
"866 309 OFFCURVE",
"825 268 OFFCURVE",
"801 213 OFFCURVE",
"801 182 QCURVE SMOOTH",
"801 30 LINE",
"1104 30 LINE"
);
},
{
nodes = (
"801 665 LINE",
"801 514 LINE SMOOTH",
"801 483 OFFCURVE",
"825 428 OFFCURVE",
"866 387 OFFCURVE",
"921 363 OFFCURVE",
"953 363 QCURVE SMOOTH",
"984 363 OFFCURVE",
"1039 387 OFFCURVE",
"1080 428 OFFCURVE",
"1104 483 OFFCURVE",
"1104 514 QCURVE SMOOTH",
"1104 665 LINE"
);
},
{
nodes = (
"72 646 LINE",
"337 646 LINE",
"337 514 LINE SMOOTH",
"337 487 OFFCURVE",
"316 439 OFFCURVE",
"280 403 OFFCURVE",
"232 382 OFFCURVE",
"205 382 QCURVE SMOOTH",
"177 382 OFFCURVE",
"129 403 OFFCURVE",
"93 439 OFFCURVE",
"72 487 OFFCURVE",
"72 514 QCURVE SMOOTH"
);
},
{
nodes = (
"72 49 LINE",
"72 182 LINE SMOOTH",
"72 209 OFFCURVE",
"93 257 OFFCURVE",
"129 293 OFFCURVE",
"177 314 OFFCURVE",
"205 314 QCURVE SMOOTH",
"232 314 OFFCURVE",
"280 293 OFFCURVE",
"316 257 OFFCURVE",
"337 209 OFFCURVE",
"337 182 QCURVE SMOOTH",
"337 49 LINE"
);
},
{
nodes = (
"1085 49 LINE",
"820 49 LINE",
"820 182 LINE SMOOTH",
"820 209 OFFCURVE",
"841 257 OFFCURVE",
"877 293 OFFCURVE",
"925 314 OFFCURVE",
"953 314 QCURVE SMOOTH",
"980 314 OFFCURVE",
"1028 293 OFFCURVE",
"1064 257 OFFCURVE",
"1085 209 OFFCURVE",
"1085 182 QCURVE SMOOTH"
);
},
{
nodes = (
"1085 646 LINE",
"1085 514 LINE SMOOTH",
"1085 487 OFFCURVE",
"1064 439 OFFCURVE",
"1028 403 OFFCURVE",
"980 382 OFFCURVE",
"953 382 QCURVE SMOOTH",
"925 382 OFFCURVE",
"877 403 OFFCURVE",
"841 439 OFFCURVE",
"820 487 OFFCURVE",
"820 514 QCURVE SMOOTH",
"820 646 LINE"
);
},
{
nodes = (
"405 49 LINE",
"405 182 LINE SMOOTH",
"405 233 OFFCURVE",
"354 321 OFFCURVE",
"316 348 QCURVE",
"356 375 OFFCURVE",
"405 462 OFFCURVE",
"405 514 QCURVE SMOOTH",
"405 646 LINE",
"752 646 LINE",
"752 514 LINE SMOOTH",
"752 463 OFFCURVE",
"801 375 OFFCURVE",
"841 348 QCURVE",
"801 321 OFFCURVE",
"752 233 OFFCURVE",
"752 182 QCURVE SMOOTH",
"752 49 LINE"
);
}
);
width = 1154;
}
);
unicode = 0078;
},
{
glyphname = y;
layers = (
{
layerId = "AE796192-B776-4211-9DF5-23F45CECCAB6";
paths = (
{
nodes = (
"1092 695 LINE",
"1092 431 LINE SMOOTH",
"1092 395 OFFCURVE",
"1066 332 OFFCURVE",
"1021 284 OFFCURVE",
"961 253 OFFCURVE",
"926 250 QCURVE",
"760 250 LINE",
"760 0 LINE",
"356 0 LINE",
"356 250 LINE",
"190 250 LINE",
"155 253 OFFCURVE",
"95 284 OFFCURVE",
"50 332 OFFCURVE",
"24 395 OFFCURVE",
"24 431 QCURVE SMOOTH",
"24 695 LINE"
);
},
{
nodes = (
"54 431 LINE SMOOTH",
"54 400 OFFCURVE",
"78 345 OFFCURVE",
"118 304 OFFCURVE",
"173 280 OFFCURVE",
"205 280 QCURVE SMOOTH",
"236 280 OFFCURVE",
"291 304 OFFCURVE",
"332 345 OFFCURVE",
"356 400 OFFCURVE",
"356 431 QCURVE SMOOTH",
"356 665 LINE",
"54 665 LINE"
);
},
{
nodes = (
"730 250 LINE",
"386 250 LINE",
"386 30 LINE",
"730 30 LINE"
);
},
{
nodes = (
"812 280 LINE",
"775 304 OFFCURVE",
"730 383 OFFCURVE",
"730 431 QCURVE SMOOTH",
"730 665 LINE",
"386 665 LINE",
"386 431 LINE SMOOTH",
"386 383 OFFCURVE",
"342 304 OFFCURVE",
"304 280 QCURVE"
);
},
{
nodes = (
"1063 665 LINE",
"760 665 LINE",
"760 431 LINE SMOOTH",
"760 400 OFFCURVE",
"784 345 OFFCURVE",
"825 304 OFFCURVE",
"880 280 OFFCURVE",
"911 280 QCURVE SMOOTH",
"942 280 OFFCURVE",
"998 304 OFFCURVE",
"1039 345 OFFCURVE",
"1063 400 OFFCURVE",
"1063 431 QCURVE SMOOTH"
);
},
{
nodes = (
"73 646 LINE",
"337 646 LINE",
"337 431 LINE SMOOTH",
"337 404 OFFCURVE",
"316 356 OFFCURVE",
"280 320 OFFCURVE",
"232 299 OFFCURVE",
"205 299 QCURVE SMOOTH",
"178 299 OFFCURVE",
"130 320 OFFCURVE",
"94 356 OFFCURVE",
"73 404 OFFCURVE",
"73 431 QCURVE SMOOTH"
);
},
{
nodes = (
"711 49 LINE",
"405 49 LINE",
"405 231 LINE",
"711 231 LINE"
);
},
{
nodes = (
"355 299 LINE",
"378 325 OFFCURVE",
"405 394 OFFCURVE",
"405 431 QCURVE SMOOTH",
"405 646 LINE",
"711 646 LINE",
"711 431 LINE SMOOTH",
"711 393 OFFCURVE",
"737 325 OFFCURVE",
"761 299 QCURVE"
);
},
{
nodes = (
"1044 431 LINE SMOOTH",
"1044 404 OFFCURVE",
"1023 356 OFFCURVE",
"987 320 OFFCURVE",
"938 299 OFFCURVE",
"911 299 QCURVE SMOOTH",
"884 299 OFFCURVE",
"836 320 OFFCURVE",
"800 356 OFFCURVE",
"779 404 OFFCURVE",
"779 431 QCURVE SMOOTH",
"779 646 LINE",
"1044 646 LINE"
);
}
);
width = 1114;
}
);
unicode = 0079;
},
{
glyphname = z;
layers = (
{
layerId = "AE796192-B776-4211-9DF5-23F45CECCAB6";
paths = (
{
nodes = (
"973 196 LINE",
"1140 196 LINE",
"1140 0 LINE",
"195 0 LINE",
"160 3 OFFCURVE",
"100 34 OFFCURVE",
"55 82 OFFCURVE",
"29 145 OFFCURVE",
"29 181 QCURVE SMOOTH",
"29 217 OFFCURVE",
"55 280 OFFCURVE",
"100 328 OFFCURVE",
"160 358 OFFCURVE",
"195 361 QCURVE",
"195 362 LINE",
"195 498 LINE",
"29 498 LINE",
"29 695 LINE",
"973 695 LINE",
"1008 692 OFFCURVE",
"1069 661 OFFCURVE",
"1114 612 OFFCURVE",
"1140 549 OFFCURVE",
"1140 513 QCURVE SMOOTH",
"1140 477 OFFCURVE",
"1114 414 OFFCURVE",
"1069 366 OFFCURVE",
"1008 336 OFFCURVE",
"973 333 QCURVE",
"973 332 LINE"
);
},
{
nodes = (
"1110 544 OFFCURVE",
"1086 600 OFFCURVE",
"1045 641 OFFCURVE",
"989 665 OFFCURVE",
"958 665 QCURVE SMOOTH",
"927 665 OFFCURVE",
"872 641 OFFCURVE",
"831 600 OFFCURVE",
"807 544 OFFCURVE",
"807 513 QCURVE SMOOTH",
"807 482 OFFCURVE",
"831 427 OFFCURVE",
"872 386 OFFCURVE",
"927 362 OFFCURVE",
"958 362 QCURVE SMOOTH",
"989 362 OFFCURVE",
"1045 386 OFFCURVE",
"1086 427 OFFCURVE",
"1110 482 OFFCURVE",
"1110 513 QCURVE SMOOTH"
);
},
{
nodes = (
"225 528 LINE",
"225 362 LINE",
"859 362 LINE",
"822 387 OFFCURVE",
"777 465 OFFCURVE",
"777 513 QCURVE SMOOTH",
"777 561 OFFCURVE",
"822 640 OFFCURVE",
"859 665 QCURVE",
"59 665 LINE",
"59 528 LINE"
);
},
{
nodes = (
"59 149 OFFCURVE",
"83 94 OFFCURVE",
"124 54 OFFCURVE",
"179 30 OFFCURVE",
"210 30 QCURVE SMOOTH",
"241 30 OFFCURVE",
"297 54 OFFCURVE",
"338 94 OFFCURVE",
"362 149 OFFCURVE",
"362 181 QCURVE SMOOTH",
"362 212 OFFCURVE",
"338 267 OFFCURVE",
"297 308 OFFCURVE",
"241 332 OFFCURVE",
"210 332 QCURVE SMOOTH",
"179 332 OFFCURVE",
"124 308 OFFCURVE",
"83 267 OFFCURVE",
"59 212 OFFCURVE",
"59 181 QCURVE SMOOTH"
);
},
{
nodes = (
"943 166 LINE",
"943 332 LINE",
"310 332 LINE",
"347 308 OFFCURVE",
"392 229 OFFCURVE",
"392 181 QCURVE SMOOTH",
"392 133 OFFCURVE",
"347 54 OFFCURVE",
"310 30 QCURVE",
"1110 30 LINE",
"1110 166 LINE"
);
},
{
nodes = (
"1091 486 OFFCURVE",
"1070 438 OFFCURVE",
"1034 402 OFFCURVE",
"985 381 OFFCURVE",
"958 381 QCURVE SMOOTH",
"931 381 OFFCURVE",
"883 402 OFFCURVE",
"847 438 OFFCURVE",
"826 486 OFFCURVE",
"826 513 QCURVE SMOOTH",
"826 540 OFFCURVE",
"847 589 OFFCURVE",
"883 625 OFFCURVE",
"931 646 OFFCURVE",
"958 646 QCURVE SMOOTH",
"985 646 OFFCURVE",
"1034 625 OFFCURVE",
"1070 589 OFFCURVE",
"1091 540 OFFCURVE",
"1091 513 QCURVE SMOOTH"
);
},
{
nodes = (
"78 547 LINE",
"78 646 LINE",
"808 646 LINE",
"758 591 OFFCURVE",
"758 513 QCURVE SMOOTH",
"758 475 OFFCURVE",
"785 407 OFFCURVE",
"808 381 QCURVE",
"244 381 LINE",
"244 547 LINE"
);
},
{
nodes = (
"78 208 OFFCURVE",
"99 256 OFFCURVE",
"135 292 OFFCURVE",
"183 313 OFFCURVE",
"210 313 QCURVE SMOOTH",
"237 313 OFFCURVE",
"286 292 OFFCURVE",
"322 256 OFFCURVE",
"343 208 OFFCURVE",
"343 181 QCURVE SMOOTH",
"343 154 OFFCURVE",
"322 106 OFFCURVE",
"286 70 OFFCURVE",
"237 49 OFFCURVE",
"210 49 QCURVE SMOOTH",
"183 49 OFFCURVE",
"135 70 OFFCURVE",
"99 106 OFFCURVE",
"78 154 OFFCURVE",
"78 181 QCURVE SMOOTH"
);
},
{
nodes = (
"1091 147 LINE",
"1091 49 LINE",
"361 49 LINE",
"385 75 OFFCURVE",
"411 143 OFFCURVE",
"411 181 QCURVE SMOOTH",
"411 219 OFFCURVE",
"385 287 OFFCURVE",
"361 313 QCURVE",
"924 313 LINE",
"924 147 LINE"
);
}
);
width = 1162;
}
);
unicode = 007A;
},
{
glyphname = D;
layers = (
{
layerId = "AE796192-B776-4211-9DF5-23F45CECCAB6";
paths = (
{
nodes = (
"780 695 LINE SMOOTH",
"840 695 OFFCURVE",
"949 657 OFFCURVE",
"1038 588 OFFCURVE",
"1102 492 OFFCURVE",
"1117 434 QCURVE SMOOTH",
"1135 365 OFFCURVE",
"1114 229 OFFCURVE",
"1046 114 OFFCURVE",
"937 29 OFFCURVE",
"867 11 QCURVE SMOOTH",
"829 1 OFFCURVE",
"795 0 QCURVE",
"28 0 LINE",
"28 695 LINE"
);
},
{
nodes = (
"640 30 LINE",
"571 60 OFFCURVE",
"470 173 OFFCURVE",
"447 249 QCURVE",
"58 249 LINE",
"58 30 LINE"
);
},
{
nodes = (
"765 279 LINE",
"765 416 LINE",
"390 416 LINE",
"390 279 LINE"
);
},
{
nodes = (
"923 56 OFFCURVE",
"1023 134 OFFCURVE",
"1085 239 OFFCURVE",
"1104 363 OFFCURVE",
"1088 427 QCURVE SMOOTH",
"1074 479 OFFCURVE",
"1016 567 OFFCURVE",
"934 630 OFFCURVE",
"834 665 OFFCURVE",
"780 665 QCURVE SMOOTH",
"58 665 LINE",
"58 279 LINE",
"360 279 LINE",
"360 446 LINE",
"795 446 LINE",
"795 249 LINE",
"478 249 LINE",
"494 200 OFFCURVE",
"554 120 OFFCURVE",
"632 63 OFFCURVE",
"726 31 OFFCURVE",
"776 30 QCURVE",
"785 30 LINE SMOOTH",
"804 30 OFFCURVE",
"841 35 OFFCURVE",
"860 40 QCURVE SMOOTH"
);
},
{
nodes = (
"77 49 LINE",
"77 230 LINE",
"433 230 LINE",
"452 173 OFFCURVE",
"521 81 OFFCURVE",
"567 49 QCURVE"
);
},
{
nodes = (
"409 298 LINE",
"409 397 LINE",
"746 397 LINE",
"746 298 LINE"
);
},
{
nodes = (
"856 58 LINE",
"839 54 OFFCURVE",
"804 49 OFFCURVE",
"785 49 QCURVE SMOOTH",
"776 49 LINE",
"732 50 OFFCURVE",
"649 76 OFFCURVE",
"579 122 OFFCURVE",
"523 189 OFFCURVE",
"505 230 QCURVE",
"814 230 LINE",
"814 465 LINE",
"341 465 LINE",
"341 298 LINE",
"77 298 LINE",
"77 646 LINE",
"780 646 LINE SMOOTH",
"831 646 OFFCURVE",
"925 613 OFFCURVE",
"1002 554 OFFCURVE",
"1057 471 OFFCURVE",
"1070 422 QCURVE SMOOTH",
"1079 386 OFFCURVE",
"1079 348 QCURVE SMOOTH",
"1079 298 OFFCURVE",
"1047 205 OFFCURVE",
"988 128 OFFCURVE",
"906 71 OFFCURVE",
"855 58 QCURVE"
);
}
);
width = 1148;
}
);
unicode = 0044;
},
{
glyphname = B;
layers = (
{
layerId = "AE796192-B776-4211-9DF5-23F45CECCAB6";
paths = (
{
nodes = (
"1143 457 OFFCURVE",
"1082 368 OFFCURVE",
"1034 347 QCURVE",
"1082 326 OFFCURVE",
"1143 237 OFFCURVE",
"1143 181 QCURVE SMOOTH",
"1143 145 OFFCURVE",
"1117 82 OFFCURVE",
"1072 34 OFFCURVE",
"1012 3 OFFCURVE",
"977 0 QCURVE",
"33 0 LINE",
"33 695 LINE",
"977 696 LINE",
"1012 693 OFFCURVE",
"1072 662 OFFCURVE",
"1117 612 OFFCURVE",
"1143 549 OFFCURVE",
"1143 513 QCURVE SMOOTH"
);
},
{
nodes = (
"87 665 LINE",
"428 362 LINE",
"863 362 LINE",
"825 387 OFFCURVE",
"781 465 OFFCURVE",
"781 513 QCURVE SMOOTH",
"781 561 OFFCURVE",
"825 640 OFFCURVE",
"863 665 QCURVE"
);
},
{
nodes = (
"407 30 LINE",
"407 340 LINE",
"63 646 LINE",
"63 30 LINE"
);
},
{
nodes = (
"863 30 LINE",
"825 54 OFFCURVE",
"781 133 OFFCURVE",
"781 181 QCURVE SMOOTH",
"781 229 OFFCURVE",
"825 308 OFFCURVE",
"863 332 QCURVE",
"437 332 LINE",
"437 30 LINE"
);
},
{
nodes = (
"1113 212 OFFCURVE",
"1089 267 OFFCURVE",
"1049 308 OFFCURVE",
"993 332 OFFCURVE",
"962 332 QCURVE SMOOTH",
"931 332 OFFCURVE",
"876 308 OFFCURVE",
"835 267 OFFCURVE",
"811 212 OFFCURVE",
"811 181 QCURVE SMOOTH",
"811 149 OFFCURVE",
"835 94 OFFCURVE",
"876 54 OFFCURVE",
"931 30 OFFCURVE",
"962 30 QCURVE SMOOTH",
"993 30 OFFCURVE",
"1049 54 OFFCURVE",
"1089 94 OFFCURVE",
"1113 149 OFFCURVE",
"1113 181 QCURVE SMOOTH"
);
},
{
nodes = (
"993 362 OFFCURVE",
"1049 386 OFFCURVE",
"1089 427 OFFCURVE",
"1113 482 OFFCURVE",
"1113 513 QCURVE SMOOTH",
"1113 544 OFFCURVE",
"1089 600 OFFCURVE",
"1049 641 OFFCURVE",
"993 665 OFFCURVE",
"962 665 QCURVE SMOOTH",
"931 665 OFFCURVE",
"876 641 OFFCURVE",
"835 600 OFFCURVE",
"811 544 OFFCURVE",
"811 513 QCURVE SMOOTH",
"811 482 OFFCURVE",
"835 427 OFFCURVE",
"876 386 OFFCURVE",
"931 362 OFFCURVE",
"962 362 QCURVE SMOOTH"
);
},
{
nodes = (
"813 646 LINE",
"762 590 OFFCURVE",
"762 513 QCURVE SMOOTH",
"762 475 OFFCURVE",
"788 408 OFFCURVE",
"812 381 QCURVE",
"436 381 LINE",
"360 449 OFFCURVE",
"211 579 OFFCURVE",
"136 646 QCURVE"
);
},
{
nodes = (
"82 49 LINE",
"82 603 LINE",
"124 565 OFFCURVE",
"199 500 OFFCURVE",
"272 435 OFFCURVE",
"346 369 OFFCURVE",
"388 332 QCURVE",
"388 49 LINE"
);
},
{
nodes = (
"456 49 LINE",
"456 313 LINE",
"812 313 LINE",
"789 287 OFFCURVE",
"762 218 OFFCURVE",
"762 181 QCURVE SMOOTH",
"762 144 OFFCURVE",
"789 75 OFFCURVE",
"812 49 QCURVE"
);
},
{
nodes = (
"1094 154 OFFCURVE",
"1073 106 OFFCURVE",
"1037 70 OFFCURVE",
"989 49 OFFCURVE",
"962 49 QCURVE SMOOTH",
"935 49 OFFCURVE",
"887 70 OFFCURVE",
"851 106 OFFCURVE",
"830 154 OFFCURVE",
"830 181 QCURVE SMOOTH",
"830 208 OFFCURVE",
"851 256 OFFCURVE",
"887 292 OFFCURVE",
"935 313 OFFCURVE",
"962 313 QCURVE SMOOTH",
"989 313 OFFCURVE",
"1037 292 OFFCURVE",
"1073 256 OFFCURVE",
"1094 208 OFFCURVE",
"1094 181 QCURVE SMOOTH"
);
},
{
nodes = (
"935 381 OFFCURVE",
"887 402 OFFCURVE",
"851 438 OFFCURVE",
"830 486 OFFCURVE",
"830 513 QCURVE SMOOTH",
"830 540 OFFCURVE",
"851 589 OFFCURVE",
"887 625 OFFCURVE",
"935 646 OFFCURVE",
"962 646 QCURVE SMOOTH",
"989 646 OFFCURVE",
"1037 625 OFFCURVE",
"1073 589 OFFCURVE",
"1094 540 OFFCURVE",
"1094 513 QCURVE SMOOTH",
"1094 486 OFFCURVE",
"1073 438 OFFCURVE",
"1037 402 OFFCURVE",
"989 381 OFFCURVE",
"962 381 QCURVE SMOOTH"
);
}
);
width = 1165;
}
);
unicode = 0042;
},
{
glyphname = C;
layers = (
{
layerId = "AE796192-B776-4211-9DF5-23F45CECCAB6";
paths = (
{
nodes = (
"427 416 LINE",
"427 279 LINE",
"1169 279 LINE",
"1155 211 OFFCURVE",
"1090 106 OFFCURVE",
"998 36 OFFCURVE",
"887 0 OFFCURVE",
"827 0 QCURVE SMOOTH",
"370 0 LINE SMOOTH",
"298 0 OFFCURVE",
"172 55 OFFCURVE",
"78 149 OFFCURVE",
"23 276 OFFCURVE",
"23 348 QCURVE SMOOTH",
"23 420 OFFCURVE",
"78 546 OFFCURVE",
"172 640 OFFCURVE",
"298 695 OFFCURVE",
"370 695 QCURVE SMOOTH",
"827 695 LINE SMOOTH",
"887 695 OFFCURVE",
"999 657 OFFCURVE",
"1091 585 OFFCURVE",
"1157 481 OFFCURVE",
"1169 416 QCURVE"
);
},
{
nodes = (
"427 665 LINE",
"427 446 LINE",
"1129 446 LINE",
"1113 495 OFFCURVE",
"1054 575 OFFCURVE",
"975 633 OFFCURVE",
"879 665 OFFCURVE",
"827 665 QCURVE SMOOTH"
);
},
{
nodes = (
"427 249 LINE",
"427 30 LINE",
"827 30 LINE SMOOTH",
"879 30 OFFCURVE",
"975 62 OFFCURVE",
"1054 120 OFFCURVE",
"1113 200 OFFCURVE",
"1129 249 QCURVE"
);
},
{
nodes = (
"397 665 LINE",
"370 665 LINE SMOOTH",
"304 665 OFFCURVE",
"189 615 OFFCURVE",
"103 529 OFFCURVE",
"53 414 OFFCURVE",
"53 348 QCURVE SMOOTH",
"53 282 OFFCURVE",
"103 167 OFFCURVE",
"189 80 OFFCURVE",
"304 30 OFFCURVE",
"370 30 QCURVE SMOOTH",
"397 30 LINE"
);
},
{
nodes = (
"827 646 LINE SMOOTH",
"873 646 OFFCURVE",
"957 620 OFFCURVE",
"1028 572 OFFCURVE",
"1084 505 OFFCURVE",
"1102 465 QCURVE",
"446 465 LINE",
"446 646 LINE"
);
},
{
nodes = (
"1102 230 LINE",
"1084 189 OFFCURVE",
"1028 123 OFFCURVE",
"957 75 OFFCURVE",
"873 49 OFFCURVE",
"827 49 QCURVE SMOOTH",
"446 49 LINE",
"446 230 LINE"
);
},
{
nodes = (
"378 49 LINE",
"370 49 LINE SMOOTH",
"308 49 OFFCURVE",
"200 96 OFFCURVE",
"119 177 OFFCURVE",
"72 286 OFFCURVE",
"72 348 QCURVE SMOOTH",
"72 410 OFFCURVE",
"119 518 OFFCURVE",
"200 599 OFFCURVE",
"308 646 OFFCURVE",
"370 646 QCURVE SMOOTH",
"378 646 LINE"
);
}
);
width = 1192;
}
);
unicode = 0043;
},
{
glyphname = A;
layers = (
{
layerId = "AE796192-B776-4211-9DF5-23F45CECCAB6";
paths = (
{
nodes = (
"972 695 LINE",
"1014 692 OFFCURVE",
"1087 657 OFFCURVE",
"1142 602 OFFCURVE",
"1176 529 OFFCURVE",
"1179 488 QCURVE",
"1180 488 LINE",
"1180 0 LINE",
"734 0 LINE",
"734 104 LINE",
"473 104 LINE",
"473 0 LINE",
"28 0 LINE",
"28 488 LINE",
"31 529 OFFCURVE",
"66 602 OFFCURVE",
"121 657 OFFCURVE",
"194 692 OFFCURVE",
"236 695 QCURVE"
);
},
{
nodes = (
"1150 513 OFFCURVE",
"1119 583 OFFCURVE",
"1067 635 OFFCURVE",
"997 665 OFFCURVE",
"957 665 QCURVE SMOOTH",
"917 665 OFFCURVE",
"847 635 OFFCURVE",
"794 583 OFFCURVE",
"764 513 OFFCURVE",
"764 473 QCURVE SMOOTH",
"764 433 OFFCURVE",
"794 363 OFFCURVE",
"847 310 OFFCURVE",
"917 280 OFFCURVE",
"957 280 QCURVE SMOOTH",
"997 280 OFFCURVE",
"1067 310 OFFCURVE",
"1119 363 OFFCURVE",
"1150 433 OFFCURVE",
"1150 473 QCURVE SMOOTH"
);
},
{
nodes = (
"473 458 LINE",
"473 321 LINE",
"734 321 LINE",
"734 458 LINE"
);
},
{
nodes = (
"362 665 LINE",
"410 638 OFFCURVE",
"469 545 OFFCURVE",
"473 488 QCURVE",
"734 488 LINE",
"735 488 LINE",
"739 545 OFFCURVE",
"798 638 OFFCURVE",
"846 665 QCURVE"
);
},
{
nodes = (
"211 665 OFFCURVE",
"141 635 OFFCURVE",
"88 583 OFFCURVE",
"58 513 OFFCURVE",
"58 473 QCURVE SMOOTH",
"58 433 OFFCURVE",
"88 363 OFFCURVE",
"141 310 OFFCURVE",
"211 280 OFFCURVE",
"251 280 QCURVE SMOOTH",
"291 280 OFFCURVE",
"361 310 OFFCURVE",
"413 363 OFFCURVE",
"444 433 OFFCURVE",
"444 473 QCURVE SMOOTH",
"444 513 OFFCURVE",
"413 583 OFFCURVE",
"361 635 OFFCURVE",
"291 665 OFFCURVE",
"251 665 QCURVE SMOOTH"
);
},
{
nodes = (
"444 361 LINE",
"415 311 OFFCURVE",
"313 250 OFFCURVE",
"251 250 QCURVE SMOOTH",
"188 250 OFFCURVE",
"87 311 OFFCURVE",
"58 361 QCURVE",
"58 30 LINE",
"444 30 LINE"
);
},
{
nodes = (
"734 134 LINE",
"734 291 LINE",
"473 291 LINE",
"473 134 LINE"
);
},
{
nodes = (
"1150 361 LINE",
"1121 311 OFFCURVE",
"1019 250 OFFCURVE",
"957 250 QCURVE SMOOTH",
"895 250 OFFCURVE",
"793 311 OFFCURVE",
"764 361 QCURVE",
"764 30 LINE",
"1150 30 LINE"
);
},
{
nodes = (
"1131 437 OFFCURVE",
"1104 374 OFFCURVE",
"1056 326 OFFCURVE",
"993 299 OFFCURVE",
"957 299 QCURVE SMOOTH",
"921 299 OFFCURVE",
"858 326 OFFCURVE",
"810 374 OFFCURVE",
"783 437 OFFCURVE",
"783 473 QCURVE SMOOTH",
"783 509 OFFCURVE",
"810 572 OFFCURVE",
"858 619 OFFCURVE",
"921 646 OFFCURVE",
"957 646 QCURVE SMOOTH",
"993 646 OFFCURVE",
"1056 619 OFFCURVE",
"1104 572 OFFCURVE",
"1131 509 OFFCURVE",
"1131 473 QCURVE SMOOTH"
);
},
{
nodes = (
"715 439 LINE",
"715 340 LINE",
"492 340 LINE",
"492 439 LINE"
);
},
{
nodes = (
"789 646 LINE",
"760 619 OFFCURVE",
"724 548 OFFCURVE",
"718 507 QCURVE",
"490 507 LINE",
"479 590 OFFCURVE",
"419 646 QCURVE"
);
},
{
nodes = (
"287 646 OFFCURVE",
"350 619 OFFCURVE",
"398 572 OFFCURVE",
"425 509 OFFCURVE",
"425 473 QCURVE SMOOTH",
"425 437 OFFCURVE",
"398 374 OFFCURVE",
"350 326 OFFCURVE",
"287 299 OFFCURVE",
"251 299 QCURVE SMOOTH",
"215 299 OFFCURVE",
"152 326 OFFCURVE",
"104 374 OFFCURVE",
"77 437 OFFCURVE",
"77 473 QCURVE SMOOTH",
"77 509 OFFCURVE",
"104 572 OFFCURVE",
"152 619 OFFCURVE",
"215 646 OFFCURVE",
"251 646 QCURVE SMOOTH"
);
},
{
nodes = (
"425 49 LINE",
"77 49 LINE",
"77 305 LINE",
"110 270 OFFCURVE",
"200 231 OFFCURVE",
"251 231 QCURVE SMOOTH",
"302 231 OFFCURVE",
"392 270 OFFCURVE",
"425 305 QCURVE"
);
},
{
nodes = (
"492 153 LINE",
"492 272 LINE",
"715 272 LINE",
"715 153 LINE"
);
},
{
nodes = (
"1131 49 LINE",
"783 49 LINE",
"783 305 LINE",
"816 270 OFFCURVE",
"904 231 OFFCURVE",
"957 231 QCURVE SMOOTH",
"1008 231 OFFCURVE",
"1098 270 OFFCURVE",
"1131 305 QCURVE"
);
}
);
width = 1209;
}
);
unicode = 0041;
},
{
glyphname = two;
layers = (
{
layerId = "AE796192-B776-4211-9DF5-23F45CECCAB6";
paths = (
{
nodes = (
"971 695 LINE",
"1006 692 OFFCURVE",
"1067 661 OFFCURVE",
"1113 612 OFFCURVE",
"1139 549 OFFCURVE",
"1139 513 QCURVE SMOOTH",
"1139 477 OFFCURVE",
"1113 414 OFFCURVE",
"1068 366 OFFCURVE",
"1007 336 OFFCURVE",
"972 333 QCURVE",
"972 196 LINE",
"1139 196 LINE",
"1139 0 LINE",
"28 0 LINE",
"28 181 LINE SMOOTH",
"28 217 OFFCURVE",
"54 280 OFFCURVE",
"99 328 OFFCURVE",
"160 358 OFFCURVE",
"194 361 QCURVE",
"194 498 LINE",
"28 498 LINE",
"28 695 LINE"
);
},
{
nodes = (
"58 665 LINE",
"58 528 LINE",
"224 528 LINE",
"224 331 LINE",
"216 332 OFFCURVE",
"178 332 OFFCURVE",
"123 308 OFFCURVE",
"82 267 OFFCURVE",
"58 212 OFFCURVE",
"58 181 QCURVE SMOOTH",
"58 30 LINE",
"1109 30 LINE",
"1109 166 LINE",
"943 166 LINE",
"943 333 LINE",
"912 336 OFFCURVE",
"856 361 OFFCURVE",
"813 401 OFFCURVE",
"784 454 OFFCURVE",
"779 484 QCURVE",
"225 50 LINE",
"182 50 LINE",
"776 521 LINE",
"778 566 OFFCURVE",
"823 641 OFFCURVE",
"858 665 QCURVE"
);
},
{
nodes = (
"77 181 LINE SMOOTH",
"77 208 OFFCURVE",
"98 256 OFFCURVE",
"134 292 OFFCURVE",
"182 313 OFFCURVE",
"209 313 QCURVE",
"243 312 LINE",
"243 547 LINE",
"77 547 LINE",
"77 646 LINE",
"806 646 LINE",
"786 623 OFFCURVE",
"759 563 OFFCURVE",
"757 531 QCURVE",
"710 493 OFFCURVE",
"622 422 OFFCURVE",
"151 50 QCURVE",
"77 50 LINE"
);
},
{
nodes = (
"720 413 LINE",
"768 451 LINE",
"785 398 OFFCURVE",
"868 325 OFFCURVE",
"924 316 QCURVE",
"924 147 LINE",
"1090 147 LINE",
"1090 49 LINE",
"259 50 LINE"
);
},
{
nodes = (
"1109 544 OFFCURVE",
"1085 600 OFFCURVE",
"1044 641 OFFCURVE",
"989 665 OFFCURVE",
"957 665 QCURVE SMOOTH",
"927 665 OFFCURVE",
"873 641 OFFCURVE",
"832 599 OFFCURVE",
"807 541 OFFCURVE",
"806 506 QCURVE",
"808 476 OFFCURVE",
"832 423 OFFCURVE",
"873 384 OFFCURVE",
"927 362 OFFCURVE",
"957 362 QCURVE SMOOTH",
"989 362 OFFCURVE",
"1044 386 OFFCURVE",
"1085 427 OFFCURVE",
"1109 482 OFFCURVE",
"1109 513 QCURVE SMOOTH"
);
},
{
nodes = (
"1090 486 OFFCURVE",
"1069 438 OFFCURVE",
"1033 402 OFFCURVE",
"985 381 OFFCURVE",
"957 381 QCURVE SMOOTH",
"931 381 OFFCURVE",
"884 400 OFFCURVE",
"848 434 OFFCURVE",
"827 480 OFFCURVE",
"825 506 QCURVE",
"827 536 OFFCURVE",
"849 588 OFFCURVE",
"885 625 OFFCURVE",
"931 646 OFFCURVE",
"957 646 QCURVE SMOOTH",
"985 646 OFFCURVE",
"1033 625 OFFCURVE",
"1069 589 OFFCURVE",
"1090 540 OFFCURVE",
"1090 513 QCURVE SMOOTH"
);
}
);
width = 1163;
}
);
unicode = 0032;
},
{
glyphname = one;
layers = (
{
layerId = "AE796192-B776-4211-9DF5-23F45CECCAB6";
paths = (
{
nodes = (
"183 0 LINE",
"183 415 LINE",
"28 415 LINE",
"28 695 LINE",
"587 695 LINE",
"587 0 LINE"
);
},
{
nodes = (
"58 445 LINE",
"183 445 LINE",
"183 665 LINE",
"58 665 LINE"
);
},
{
nodes = (
"213 665 LINE",
"213 30 LINE",
"557 30 LINE",
"557 665 LINE"
);
},
{
nodes = (
"77 464 LINE",
"77 646 LINE",
"164 646 LINE",
"164 464 LINE"
);
},
{
nodes = (
"232 646 LINE",
"538 646 LINE",
"538 49 LINE",
"232 49 LINE"
);
}
);
width = 612;
}
);
unicode = 0031;
},
{
glyphname = zero;
layers = (
{
layerId = "AE796192-B776-4211-9DF5-23F45CECCAB6";
paths = (
{
nodes = (
"843 694 LINE",
"910 691 OFFCURVE",
"1028 638 OFFCURVE",
"1118 548 OFFCURVE",
"1172 429 OFFCURVE",
"1175 362 QCURVE",
"1175 332 LINE",
"1172 264 OFFCURVE",
"1118 146 OFFCURVE",
"1028 57 OFFCURVE",
"910 3 OFFCURVE",
"843 0 QCURVE",
"370 0 LINE SMOOTH",
"298 0 OFFCURVE",
"172 55 OFFCURVE",
"78 149 OFFCURVE",
"23 275 OFFCURVE",
"23 347 QCURVE SMOOTH",
"23 419 OFFCURVE",
"78 546 OFFCURVE",
"172 640 OFFCURVE",
"298 695 OFFCURVE",
"370 695 QCURVE SMOOTH",
"843 695 LINE"
);
},
{
nodes = (
"1145 362 LINE",
"1142 425 OFFCURVE",
"1090 535 OFFCURVE",
"1004 618 OFFCURVE",
"892 665 OFFCURVE",
"828 665 QCURVE SMOOTH",
"764 665 OFFCURVE",
"651 618 OFFCURVE",
"565 535 OFFCURVE",
"513 425 OFFCURVE",
"510 362 QCURVE"
);
},
{
nodes = (
"687 30 LINE",
"643 49 OFFCURVE",
"569 111 OFFCURVE",
"515 189 OFFCURVE",
"483 281 OFFCURVE",
"481 332 QCURVE",
"480 332 LINE",
"480 362 LINE",
"481 362 LINE",
"483 413 OFFCURVE",
"515 505 OFFCURVE",
"569 583 OFFCURVE",
"643 645 OFFCURVE",
"687 665 QCURVE",
"370 665 LINE SMOOTH",
"304 665 OFFCURVE",
"189 615 OFFCURVE",
"103 528 OFFCURVE",
"53 413 OFFCURVE",
"53 347 QCURVE SMOOTH",
"53 281 OFFCURVE",
"103 166 OFFCURVE",
"189 80 OFFCURVE",
"304 30 OFFCURVE",
"370 30 QCURVE SMOOTH"
);
},
{
nodes = (
"892 30 OFFCURVE",
"1004 77 OFFCURVE",
"1090 159 OFFCURVE",
"1142 269 OFFCURVE",
"1145 332 QCURVE",
"510 332 LINE",
"513 269 OFFCURVE",
"565 159 OFFCURVE",
"651 77 OFFCURVE",
"764 30 OFFCURVE",
"828 30 QCURVE SMOOTH"
);
},
{
nodes = (
"885 646 OFFCURVE",
"987 605 OFFCURVE",
"1066 533 OFFCURVE",
"1118 436 OFFCURVE",
"1124 381 QCURVE",
"531 381 LINE",
"537 437 OFFCURVE",
"589 534 OFFCURVE",
"668 605 OFFCURVE",
"771 646 OFFCURVE",
"828 646 QCURVE SMOOTH"
);
},
{
nodes = (
"370 49 LINE SMOOTH",
"308 49 OFFCURVE",
"200 96 OFFCURVE",
"119 177 OFFCURVE",
"72 285 OFFCURVE",
"72 347 QCURVE SMOOTH",
"72 409 OFFCURVE",
"119 518 OFFCURVE",
"200 599 OFFCURVE",
"308 646 OFFCURVE",
"370 646 QCURVE SMOOTH",
"616 646 LINE",
"549 598 OFFCURVE",
"465 450 OFFCURVE",
"462 362 QCURVE SMOOTH",
"461 331 LINE",
"465 242 OFFCURVE",
"546 97 OFFCURVE",
"616 49 QCURVE"
);
},
{
nodes = (
"771 49 OFFCURVE",
"668 90 OFFCURVE",
"589 161 OFFCURVE",
"537 257 OFFCURVE",
"531 313 QCURVE",
"1124 313 LINE",
"1118 257 OFFCURVE",
"1067 161 OFFCURVE",
"987 90 OFFCURVE",
"885 49 OFFCURVE",
"828 49 QCURVE SMOOTH"
);
}
);
width = 1195;
}
);
unicode = 0030;
},
{
glyphname = three;
layers = (
{
layerId = "AE796192-B776-4211-9DF5-23F45CECCAB6";
paths = (
{
nodes = (
"565 416 LINE",
"78 416 LINE",
"78 695 LINE",
"565 695 LINE",
"977 696 LINE",
"1012 693 OFFCURVE",
"1072 662 OFFCURVE",
"1117 612 OFFCURVE",
"1143 549 OFFCURVE",
"1143 513 QCURVE SMOOTH",
"1143 457 OFFCURVE",
"1082 368 OFFCURVE",
"1034 347 QCURVE",
"1082 326 OFFCURVE",
"1143 237 OFFCURVE",
"1143 181 QCURVE SMOOTH",
"1143 145 OFFCURVE",
"1117 82 OFFCURVE",
"1072 34 OFFCURVE",
"1012 3 OFFCURVE",
"977 0 QCURVE",
"78 0 LINE",
"78 155 LINE",
"565 155 LINE",
"565 208 LINE",
"286 208 LINE",
"286 363 LINE",
"565 363 LINE"
);
},
{
nodes = (
"108 446 LINE",
"585 446 LINE",
"585 332 LINE",
"565 332 LINE",
"565 333 LINE",
"316 333 LINE",
"316 238 LINE",
"588 238 LINE",
"589 125 LINE",
"108 125 LINE",
"108 30 LINE",
"863 30 LINE",
"825 54 OFFCURVE",
"781 133 OFFCURVE",
"781 181 QCURVE SMOOTH",
"781 229 OFFCURVE",
"825 308 OFFCURVE",
"879 350 QCURVE",
"825 387 OFFCURVE",
"781 465 OFFCURVE",
"781 513 QCURVE SMOOTH",
"781 561 OFFCURVE",
"825 640 OFFCURVE",
"863 665 QCURVE",
"108 665 LINE"
);
},
{
nodes = (
"607 257 LINE",
"335 257 LINE",
"335 314 LINE",
"607 314 LINE",
"607 465 LINE",
"127 465 LINE",
"127 646 LINE",
"813 646 LINE",
"762 590 OFFCURVE",
"762 513 QCURVE SMOOTH",
"762 475 OFFCURVE",
"786 397 OFFCURVE",
"850 349 QCURVE",
"793 303 OFFCURVE",
"762 218 OFFCURVE",
"762 181 QCURVE SMOOTH",
"762 144 OFFCURVE",
"789 75 OFFCURVE",
"812 49 QCURVE",
"127 49 LINE",
"127 106 LINE",
"607 106 LINE"
);
},
{
nodes = (
"993 362 OFFCURVE",
"1049 386 OFFCURVE",
"1089 427 OFFCURVE",
"1113 482 OFFCURVE",
"1113 513 QCURVE SMOOTH",
"1113 544 OFFCURVE",
"1089 600 OFFCURVE",
"1049 641 OFFCURVE",
"993 665 OFFCURVE",
"962 665 QCURVE SMOOTH",
"931 665 OFFCURVE",
"876 641 OFFCURVE",
"835 600 OFFCURVE",
"811 544 OFFCURVE",
"811 513 QCURVE SMOOTH",
"811 482 OFFCURVE",
"835 427 OFFCURVE",
"876 386 OFFCURVE",
"931 362 OFFCURVE",
"962 362 QCURVE SMOOTH"
);
},
{
nodes = (
"1113 212 OFFCURVE",
"1089 267 OFFCURVE",
"1049 308 OFFCURVE",
"993 332 OFFCURVE",
"962 332 QCURVE SMOOTH",
"931 332 OFFCURVE",
"876 308 OFFCURVE",
"835 267 OFFCURVE",
"811 212 OFFCURVE",
"811 181 QCURVE SMOOTH",
"811 149 OFFCURVE",
"835 94 OFFCURVE",
"876 54 OFFCURVE",
"931 30 OFFCURVE",
"962 30 QCURVE SMOOTH",
"993 30 OFFCURVE",
"1049 54 OFFCURVE",
"1089 94 OFFCURVE",
"1113 149 OFFCURVE",
"1113 181 QCURVE SMOOTH"
);
},
{
nodes = (
"935 381 OFFCURVE",
"887 402 OFFCURVE",
"851 438 OFFCURVE",
"830 486 OFFCURVE",
"830 513 QCURVE SMOOTH",
"830 540 OFFCURVE",
"851 589 OFFCURVE",
"887 625 OFFCURVE",
"935 646 OFFCURVE",
"962 646 QCURVE SMOOTH",
"989 646 OFFCURVE",
"1037 625 OFFCURVE",
"1073 589 OFFCURVE",
"1094 540 OFFCURVE",
"1094 513 QCURVE SMOOTH",
"1094 486 OFFCURVE",
"1073 438 OFFCURVE",
"1037 402 OFFCURVE",
"989 381 OFFCURVE",
"962 381 QCURVE SMOOTH"
);
},
{
nodes = (
"1094 154 OFFCURVE",
"1073 106 OFFCURVE",
"1037 70 OFFCURVE",
"989 49 OFFCURVE",
"962 49 QCURVE SMOOTH",
"935 49 OFFCURVE",
"887 70 OFFCURVE",
"851 106 OFFCURVE",
"830 154 OFFCURVE",
"830 181 QCURVE SMOOTH",
"830 208 OFFCURVE",
"851 256 OFFCURVE",
"887 292 OFFCURVE",
"935 313 OFFCURVE",
"962 313 QCURVE SMOOTH",
"989 313 OFFCURVE",
"1037 292 OFFCURVE",
"1073 256 OFFCURVE",
"1094 208 OFFCURVE",
"1094 181 QCURVE SMOOTH"
);
}
);
width = 1165;
}
);
unicode = 0033;
},
{
glyphname = four;
layers = (
{
layerId = "AE796192-B776-4211-9DF5-23F45CECCAB6";
paths = (
{
nodes = (
"1098 695 LINE",
"1098 0 LINE",
"694 0 LINE",
"694 250 LINE",
"242 250 LINE",
"199 253 OFFCURVE",
"123 290 OFFCURVE",
"66 350 OFFCURVE",
"34 429 OFFCURVE",
"34 473 QCURVE SMOOTH",
"34 695 LINE"
);
},
{
nodes = (
"83 458 LINE",
"83 465 OFFCURVE",
"83 473 QCURVE SMOOTH",
"83 488 LINE",
"1068 488 LINE",
"1068 665 LINE",
"64 665 LINE",
"64 473 LINE SMOOTH",
"64 433 OFFCURVE",
"94 363 OFFCURVE",
"147 310 OFFCURVE",
"217 280 OFFCURVE",
"257 280 QCURVE SMOOTH",
"1068 280 LINE",
"1068 458 LINE"
);
},
{
nodes = (
"1049 507 LINE",
"83 507 LINE",
"83 646 LINE",
"1049 646 LINE"
);
},
{
nodes = (
"89 421 OFFCURVE",
"86 439 QCURVE",
"1049 439 LINE",
"1049 299 LINE",
"257 299 LINE SMOOTH",
"221 299 OFFCURVE",
"158 326 OFFCURVE",
"110 374 OFFCURVE",
"96 405 QCURVE SMOOTH"
);
},
{
nodes = (
"724 30 LINE",
"1068 30 LINE",
"1068 250 LINE",
"724 250 LINE"
);
},
{
nodes = (
"743 231 LINE",
"1049 231 LINE",
"1049 49 LINE",
"743 49 LINE"
);
}
);
width = 1118;
}
);
unicode = 0034;
},
{
glyphname = five;
layers = (
{
layerId = "AE796192-B776-4211-9DF5-23F45CECCAB6";
paths = (
{
nodes = (
"1090 155 OFFCURVE",
"1069 106 OFFCURVE",
"1033 70 OFFCURVE",
"985 49 OFFCURVE",
"957 49 QCURVE SMOOTH",
"931 49 OFFCURVE",
"885 70 OFFCURVE",
"849 107 OFFCURVE",
"827 159 OFFCURVE",
"825 189 QCURVE",
"827 215 OFFCURVE",
"848 261 OFFCURVE",
"884 295 OFFCURVE",
"931 314 OFFCURVE",
"957 314 QCURVE SMOOTH",
"985 314 OFFCURVE",
"1033 293 OFFCURVE",
"1069 257 OFFCURVE",
"1090 209 OFFCURVE",
"1090 182 QCURVE SMOOTH"
);
},
{
nodes = (
"1109 213 OFFCURVE",
"1085 268 OFFCURVE",
"1044 309 OFFCURVE",
"989 333 OFFCURVE",
"957 333 QCURVE SMOOTH",
"927 333 OFFCURVE",
"873 311 OFFCURVE",
"832 272 OFFCURVE",
"808 219 OFFCURVE",
"806 189 QCURVE",
"807 154 OFFCURVE",
"832 96 OFFCURVE",
"873 54 OFFCURVE",
"927 30 OFFCURVE",
"957 30 QCURVE SMOOTH",
"989 30 OFFCURVE",
"1044 54 OFFCURVE",
"1085 95 OFFCURVE",
"1109 151 OFFCURVE",
"1109 182 QCURVE SMOOTH"
);
},
{
nodes = (
"259 645 LINE",
"1090 646 LINE",
"1090 548 LINE",
"924 548 LINE",
"924 379 LINE",
"868 370 OFFCURVE",
"785 297 OFFCURVE",
"768 244 QCURVE",
"720 282 LINE"
);
},
{
nodes = (
"77 645 LINE",
"151 645 LINE",
"622 273 OFFCURVE",
"710 202 OFFCURVE",
"757 164 QCURVE",
"759 132 OFFCURVE",
"786 72 OFFCURVE",
"806 49 QCURVE",
"77 49 LINE",
"77 148 LINE",
"243 148 LINE",
"243 383 LINE",
"77 384 LINE"
);
},
{
nodes = (
"858 30 LINE",
"823 54 OFFCURVE",
"778 129 OFFCURVE",
"776 174 QCURVE",
"182 645 LINE",
"225 645 LINE",
"779 211 LINE",
"784 241 OFFCURVE",
"813 294 OFFCURVE",
"856 334 OFFCURVE",
"912 359 OFFCURVE",
"943 362 QCURVE",
"943 529 LINE",
"1109 529 LINE",
"1109 665 LINE",
"58 665 LINE",
"58 360 LINE",
"224 360 LINE",
"224 167 LINE",
"58 167 LINE",
"58 30 LINE"
);
},
{
nodes = (
"28 0 LINE",
"28 197 LINE",
"194 197 LINE",
"194 334 LINE",
"28 334 LINE",
"28 695 LINE",
"1139 695 LINE",
"1139 499 LINE",
"972 499 LINE",
"972 362 LINE",
"1007 359 OFFCURVE",
"1068 329 OFFCURVE",
"1113 281 OFFCURVE",
"1139 218 OFFCURVE",
"1139 182 QCURVE SMOOTH",
"1139 146 OFFCURVE",
"1113 83 OFFCURVE",
"1067 34 OFFCURVE",
"1006 3 OFFCURVE",
"971 0 QCURVE"
);
}
);
width = 1163;
}
);
unicode = 0035;
},
{
glyphname = six;
layers = (
{
layerId = "AE796192-B776-4211-9DF5-23F45CECCAB6";
paths = (
{
nodes = (
"1086 154 OFFCURVE",
"1065 106 OFFCURVE",
"1029 70 OFFCURVE",
"981 49 OFFCURVE",
"954 49 QCURVE SMOOTH",
"927 49 OFFCURVE",
"878 70 OFFCURVE",
"842 106 OFFCURVE",
"821 154 OFFCURVE",
"821 181 QCURVE SMOOTH",
"821 208 OFFCURVE",
"842 256 OFFCURVE",
"878 292 OFFCURVE",
"927 313 OFFCURVE",
"954 313 QCURVE SMOOTH",
"981 313 OFFCURVE",
"1029 292 OFFCURVE",
"1065 256 OFFCURVE",
"1086 208 OFFCURVE",
"1086 181 QCURVE SMOOTH"
);
},
{
nodes = (
"1105 212 OFFCURVE",
"1081 267 OFFCURVE",
"1040 308 OFFCURVE",
"985 332 OFFCURVE",
"954 332 QCURVE SMOOTH",
"923 332 OFFCURVE",
"867 308 OFFCURVE",
"826 267 OFFCURVE",
"802 212 OFFCURVE",
"802 181 QCURVE SMOOTH",
"802 149 OFFCURVE",
"826 94 OFFCURVE",
"867 54 OFFCURVE",
"923 30 OFFCURVE",
"954 30 QCURVE SMOOTH",
"985 30 OFFCURVE",
"1040 54 OFFCURVE",
"1081 94 OFFCURVE",
"1105 149 OFFCURVE",
"1105 181 QCURVE SMOOTH"
);
},
{
nodes = (
"779 75 OFFCURVE",
"803 49 QCURVE",
"365 49 LINE SMOOTH",
"346 49 OFFCURVE",
"311 54 OFFCURVE",
"294 58 QCURVE",
"295 58 LINE",
"244 71 OFFCURVE",
"162 128 OFFCURVE",
"103 205 OFFCURVE",
"87 251 QCURVE SMOOTH",
"77 281 OFFCURVE",
"73 312 QCURVE",
"559 312 LINE",
"559 313 LINE",
"803 313 LINE",
"779 287 OFFCURVE",
"753 219 OFFCURVE",
"753 181 QCURVE SMOOTH",
"753 143 OFFCURVE",
"766 109 QCURVE SMOOTH"
);
},
{
nodes = (
"920 547 LINE",
"920 381 LINE",
"559 381 LINE",
"559 382 LINE",
"73 382 LINE",
"75 402 OFFCURVE",
"80 422 QCURVE SMOOTH",
"93 471 OFFCURVE",
"148 554 OFFCURVE",
"225 613 OFFCURVE",
"319 646 OFFCURVE",
"370 646 QCURVE SMOOTH",
"1086 646 LINE",
"1086 547 LINE"
);
},
{
nodes = (
"309 35 OFFCURVE",
"346 30 OFFCURVE",
"365 30 QCURVE SMOOTH",
"854 30 LINE",
"817 54 OFFCURVE",
"772 133 OFFCURVE",
"772 181 QCURVE SMOOTH",
"772 229 OFFCURVE",
"817 308 OFFCURVE",
"854 332 QCURVE",
"68 332 LINE",
"68 362 LINE",
"939 362 LINE",
"939 528 LINE",
"1105 528 LINE",
"1105 665 LINE",
"370 665 LINE SMOOTH",
"316 665 OFFCURVE",
"216 630 OFFCURVE",
"134 567 OFFCURVE",
"76 479 OFFCURVE",
"62 427 QCURVE SMOOTH",
"46 363 OFFCURVE",
"65 239 OFFCURVE",
"127 134 OFFCURVE",
"227 56 OFFCURVE",
"290 40 QCURVE SMOOTH"
);
},
{
nodes = (
"1004 3 OFFCURVE",
"969 0 QCURVE",
"355 0 LINE",
"321 1 OFFCURVE",
"283 11 QCURVE SMOOTH",
"213 29 OFFCURVE",
"104 114 OFFCURVE",
"36 229 OFFCURVE",
"15 365 OFFCURVE",
"33 434 QCURVE SMOOTH",
"48 492 OFFCURVE",
"112 588 OFFCURVE",
"201 657 OFFCURVE",
"310 695 OFFCURVE",
"370 695 QCURVE SMOOTH",
"1135 695 LINE",
"1135 498 LINE",
"969 498 LINE",
"969 361 LINE",
"1004 358 OFFCURVE",
"1064 328 OFFCURVE",
"1109 280 OFFCURVE",
"1135 217 OFFCURVE",
"1135 181 QCURVE SMOOTH",
"1135 145 OFFCURVE",
"1109 82 OFFCURVE",
"1064 34 OFFCURVE",
"1034 18 QCURVE SMOOTH"
);
}
);
width = 1148;
}
);
unicode = 0036;
},
{
glyphname = nine;
layers = (
{
layerId = "AE796192-B776-4211-9DF5-23F45CECCAB6";
paths = (
{
nodes = (
"64 541 OFFCURVE",
"85 589 OFFCURVE",
"121 625 OFFCURVE",
"169 646 OFFCURVE",
"196 646 QCURVE SMOOTH",
"223 646 OFFCURVE",
"272 625 OFFCURVE",
"308 589 OFFCURVE",
"329 541 OFFCURVE",
"329 514 QCURVE SMOOTH",
"329 487 OFFCURVE",
"308 439 OFFCURVE",
"272 403 OFFCURVE",
"223 382 OFFCURVE",
"196 382 QCURVE SMOOTH",
"169 382 OFFCURVE",
"121 403 OFFCURVE",
"85 439 OFFCURVE",
"64 487 OFFCURVE",
"64 514 QCURVE SMOOTH"
);
},
{
nodes = (
"45 483 OFFCURVE",
"69 428 OFFCURVE",
"110 387 OFFCURVE",
"165 363 OFFCURVE",
"196 363 QCURVE SMOOTH",
"227 363 OFFCURVE",
"283 387 OFFCURVE",
"324 428 OFFCURVE",
"348 483 OFFCURVE",
"348 514 QCURVE SMOOTH",
"348 546 OFFCURVE",
"324 601 OFFCURVE",
"283 641 OFFCURVE",
"227 665 OFFCURVE",
"196 665 QCURVE SMOOTH",
"165 665 OFFCURVE",
"110 641 OFFCURVE",
"69 601 OFFCURVE",
"45 546 OFFCURVE",
"45 514 QCURVE SMOOTH"
);
},
{
nodes = (
"371 620 OFFCURVE",
"347 646 QCURVE",
"785 646 LINE SMOOTH",
"804 646 OFFCURVE",
"839 641 OFFCURVE",
"856 637 QCURVE",
"855 637 LINE",
"906 624 OFFCURVE",
"988 567 OFFCURVE",
"1047 490 OFFCURVE",
"1063 444 QCURVE SMOOTH",
"1073 414 OFFCURVE",
"1077 383 QCURVE",
"591 383 LINE",
"591 382 LINE",
"347 382 LINE",
"371 408 OFFCURVE",
"397 476 OFFCURVE",
"397 514 QCURVE SMOOTH",
"397 552 OFFCURVE",
"384 586 QCURVE SMOOTH"
);
},
{
nodes = (
"230 148 LINE",
"230 314 LINE",
"591 314 LINE",
"591 313 LINE",
"1077 313 LINE",
"1075 293 OFFCURVE",
"1070 273 QCURVE SMOOTH",
"1057 224 OFFCURVE",
"1002 141 OFFCURVE",
"925 82 OFFCURVE",
"831 49 OFFCURVE",
"780 49 QCURVE SMOOTH",
"64 49 LINE",
"64 148 LINE"
);
},
{
nodes = (
"841 660 OFFCURVE",
"804 665 OFFCURVE",
"785 665 QCURVE SMOOTH",
"296 665 LINE",
"333 641 OFFCURVE",
"378 562 OFFCURVE",
"378 514 QCURVE SMOOTH",
"378 466 OFFCURVE",
"333 387 OFFCURVE",
"296 363 QCURVE",
"1082 363 LINE",
"1082 333 LINE",
"211 333 LINE",
"211 167 LINE",
"45 167 LINE",
"45 30 LINE",
"780 30 LINE SMOOTH",
"834 30 OFFCURVE",
"934 65 OFFCURVE",
"1016 128 OFFCURVE",
"1074 216 OFFCURVE",
"1088 268 QCURVE SMOOTH",
"1104 332 OFFCURVE",
"1085 456 OFFCURVE",
"1023 561 OFFCURVE",
"923 639 OFFCURVE",
"860 655 QCURVE SMOOTH"
);
},
{
nodes = (
"146 692 OFFCURVE",
"181 695 QCURVE",
"795 695 LINE",
"829 694 OFFCURVE",
"867 684 QCURVE SMOOTH",
"937 666 OFFCURVE",
"1046 581 OFFCURVE",
"1114 466 OFFCURVE",
"1135 330 OFFCURVE",
"1117 261 QCURVE SMOOTH",
"1102 203 OFFCURVE",
"1038 107 OFFCURVE",
"949 38 OFFCURVE",
"840 0 OFFCURVE",
"780 0 QCURVE SMOOTH",
"15 0 LINE",
"15 197 LINE",
"181 197 LINE",
"181 334 LINE",
"146 337 OFFCURVE",
"86 367 OFFCURVE",
"41 415 OFFCURVE",
"15 478 OFFCURVE",
"15 514 QCURVE SMOOTH",
"15 550 OFFCURVE",
"41 613 OFFCURVE",
"86 661 OFFCURVE",
"116 677 QCURVE SMOOTH"
);
}
);
width = 1148;
}
);
unicode = 0039;
},
{
glyphname = eight;
layers = (
{
layerId = "AE796192-B776-4211-9DF5-23F45CECCAB6";
paths = (
{
nodes = (
"977 696 LINE",
"1012 693 OFFCURVE",
"1072 662 OFFCURVE",
"1117 612 OFFCURVE",
"1143 549 OFFCURVE",
"1143 513 QCURVE SMOOTH",
"1143 457 OFFCURVE",
"1082 368 OFFCURVE",
"1034 347 QCURVE",
"1082 326 OFFCURVE",
"1143 237 OFFCURVE",
"1143 181 QCURVE SMOOTH",
"1143 145 OFFCURVE",
"1117 82 OFFCURVE",
"1072 34 OFFCURVE",
"1012 3 OFFCURVE",
"977 0 QCURVE",
"185 0 LINE",
"150 3 OFFCURVE",
"90 34 OFFCURVE",
"45 82 OFFCURVE",
"19 145 OFFCURVE",
"19 181 QCURVE SMOOTH",
"19 237 OFFCURVE",
"80 326 OFFCURVE",
"128 347 QCURVE",
"80 368 OFFCURVE",
"19 457 OFFCURVE",
"19 513 QCURVE SMOOTH",
"19 549 OFFCURVE",
"45 612 OFFCURVE",
"90 662 OFFCURVE",
"150 693 OFFCURVE",
"185 696 QCURVE"
);
},
{
nodes = (
"863 362 LINE",
"825 387 OFFCURVE",
"781 465 OFFCURVE",
"781 513 QCURVE SMOOTH",
"781 561 OFFCURVE",
"825 640 OFFCURVE",
"863 665 QCURVE",
"299 665 LINE",
"337 640 OFFCURVE",
"381 561 OFFCURVE",
"381 513 QCURVE SMOOTH",
"381 465 OFFCURVE",
"337 387 OFFCURVE",
"299 362 QCURVE"
);
},
{
nodes = (
"863 30 LINE",
"825 54 OFFCURVE",
"781 133 OFFCURVE",
"781 181 QCURVE SMOOTH",
"781 229 OFFCURVE",
"825 308 OFFCURVE",
"863 332 QCURVE",
"299 332 LINE",
"337 308 OFFCURVE",
"381 229 OFFCURVE",
"381 181 QCURVE SMOOTH",
"381 133 OFFCURVE",
"337 54 OFFCURVE",
"299 30 QCURVE"
);
},
{
nodes = (
"813 646 LINE",
"762 590 OFFCURVE",
"762 513 QCURVE SMOOTH",
"762 475 OFFCURVE",
"788 408 OFFCURVE",
"812 381 QCURVE",
"350 381 LINE",
"374 408 OFFCURVE",
"400 475 OFFCURVE",
"400 513 QCURVE SMOOTH",
"400 590 OFFCURVE",
"349 646 QCURVE"
);
},
{
nodes = (
"812 313 LINE",
"789 287 OFFCURVE",
"762 218 OFFCURVE",
"762 181 QCURVE SMOOTH",
"762 144 OFFCURVE",
"789 75 OFFCURVE",
"812 49 QCURVE",
"350 49 LINE",
"373 75 OFFCURVE",
"400 144 OFFCURVE",
"400 181 QCURVE SMOOTH",
"400 218 OFFCURVE",
"373 287 OFFCURVE",
"350 313 QCURVE"
);
},
{
nodes = (
"993 362 OFFCURVE",
"1049 386 OFFCURVE",
"1089 427 OFFCURVE",
"1113 482 OFFCURVE",
"1113 513 QCURVE SMOOTH",
"1113 544 OFFCURVE",
"1089 600 OFFCURVE",
"1049 641 OFFCURVE",
"993 665 OFFCURVE",
"962 665 QCURVE SMOOTH",
"931 665 OFFCURVE",
"876 641 OFFCURVE",
"835 600 OFFCURVE",
"811 544 OFFCURVE",
"811 513 QCURVE SMOOTH",
"811 482 OFFCURVE",
"835 427 OFFCURVE",
"876 386 OFFCURVE",
"931 362 OFFCURVE",
"962 362 QCURVE SMOOTH"
);
},
{
nodes = (
"231 362 OFFCURVE",
"286 386 OFFCURVE",
"327 427 OFFCURVE",
"351 482 OFFCURVE",
"351 513 QCURVE SMOOTH",
"351 544 OFFCURVE",
"327 600 OFFCURVE",
"286 641 OFFCURVE",
"231 665 OFFCURVE",
"200 665 QCURVE SMOOTH",
"169 665 OFFCURVE",
"113 641 OFFCURVE",
"73 600 OFFCURVE",
"49 544 OFFCURVE",
"49 513 QCURVE SMOOTH",
"49 482 OFFCURVE",
"73 427 OFFCURVE",
"113 386 OFFCURVE",
"169 362 OFFCURVE",
"200 362 QCURVE SMOOTH"
);
},
{
nodes = (
"1113 212 OFFCURVE",
"1089 267 OFFCURVE",
"1049 308 OFFCURVE",
"993 332 OFFCURVE",
"962 332 QCURVE SMOOTH",
"931 332 OFFCURVE",
"876 308 OFFCURVE",
"835 267 OFFCURVE",
"811 212 OFFCURVE",
"811 181 QCURVE SMOOTH",
"811 149 OFFCURVE",
"835 94 OFFCURVE",
"876 54 OFFCURVE",
"931 30 OFFCURVE",
"962 30 QCURVE SMOOTH",
"993 30 OFFCURVE",
"1049 54 OFFCURVE",
"1089 94 OFFCURVE",
"1113 149 OFFCURVE",
"1113 181 QCURVE SMOOTH"
);
},
{
nodes = (
"49 149 OFFCURVE",
"73 94 OFFCURVE",
"113 54 OFFCURVE",
"169 30 OFFCURVE",
"200 30 QCURVE SMOOTH",
"231 30 OFFCURVE",
"286 54 OFFCURVE",
"327 94 OFFCURVE",
"351 149 OFFCURVE",
"351 181 QCURVE SMOOTH",
"351 212 OFFCURVE",
"327 267 OFFCURVE",
"286 308 OFFCURVE",
"231 332 OFFCURVE",
"200 332 QCURVE SMOOTH",
"169 332 OFFCURVE",
"113 308 OFFCURVE",
"73 267 OFFCURVE",
"49 212 OFFCURVE",
"49 181 QCURVE SMOOTH"
);
},
{
nodes = (
"935 381 OFFCURVE",
"887 402 OFFCURVE",
"851 438 OFFCURVE",
"830 486 OFFCURVE",
"830 513 QCURVE SMOOTH",
"830 540 OFFCURVE",
"851 589 OFFCURVE",
"887 625 OFFCURVE",
"935 646 OFFCURVE",
"962 646 QCURVE SMOOTH",
"989 646 OFFCURVE",
"1037 625 OFFCURVE",
"1073 589 OFFCURVE",
"1094 540 OFFCURVE",
"1094 513 QCURVE SMOOTH",
"1094 486 OFFCURVE",
"1073 438 OFFCURVE",
"1037 402 OFFCURVE",
"989 381 OFFCURVE",
"962 381 QCURVE SMOOTH"
);
},
{
nodes = (
"173 381 OFFCURVE",
"125 402 OFFCURVE",
"89 438 OFFCURVE",
"68 486 OFFCURVE",
"68 513 QCURVE SMOOTH",
"68 540 OFFCURVE",
"89 589 OFFCURVE",
"125 625 OFFCURVE",
"173 646 OFFCURVE",
"200 646 QCURVE SMOOTH",
"227 646 OFFCURVE",
"275 625 OFFCURVE",
"311 589 OFFCURVE",
"332 540 OFFCURVE",
"332 513 QCURVE SMOOTH",
"332 486 OFFCURVE",
"311 438 OFFCURVE",
"275 402 OFFCURVE",
"227 381 OFFCURVE",
"200 381 QCURVE SMOOTH"
);
},
{
nodes = (
"68 208 OFFCURVE",
"89 256 OFFCURVE",
"125 292 OFFCURVE",
"173 313 OFFCURVE",
"200 313 QCURVE SMOOTH",
"227 313 OFFCURVE",
"275 292 OFFCURVE",
"311 256 OFFCURVE",
"332 208 OFFCURVE",
"332 181 QCURVE SMOOTH",
"332 154 OFFCURVE",
"311 106 OFFCURVE",
"275 70 OFFCURVE",
"227 49 OFFCURVE",
"200 49 QCURVE SMOOTH",
"173 49 OFFCURVE",
"125 70 OFFCURVE",
"89 106 OFFCURVE",
"68 154 OFFCURVE",
"68 181 QCURVE SMOOTH"
);
},
{
nodes = (
"1094 154 OFFCURVE",
"1073 106 OFFCURVE",
"1037 70 OFFCURVE",
"989 49 OFFCURVE",
"962 49 QCURVE SMOOTH",
"935 49 OFFCURVE",
"887 70 OFFCURVE",
"851 106 OFFCURVE",
"830 154 OFFCURVE",
"830 181 QCURVE SMOOTH",
"830 208 OFFCURVE",
"851 256 OFFCURVE",
"887 292 OFFCURVE",
"935 313 OFFCURVE",
"962 313 QCURVE SMOOTH",
"989 313 OFFCURVE",
"1037 292 OFFCURVE",
"1073 256 OFFCURVE",
"1094 208 OFFCURVE",
"1094 181 QCURVE SMOOTH"
);
}
);
width = 1167;
}
);
unicode = 0038;
},
{
glyphname = seven;
layers = (
{
layerId = "AE796192-B776-4211-9DF5-23F45CECCAB6";
paths = (
{
nodes = (
"485 0 LINE",
"485 415 LINE",
"28 415 LINE",
"28 695 LINE",
"889 695 LINE",
"889 0 LINE"
);
},
{
nodes = (
"58 445 LINE",
"485 445 LINE",
"485 665 LINE",
"58 665 LINE"
);
},
{
nodes = (
"515 665 LINE",
"515 30 LINE",
"859 30 LINE",
"859 665 LINE"
);
},
{
nodes = (
"77 464 LINE",
"77 646 LINE",
"466 646 LINE",
"466 464 LINE"
);
},
{
nodes = (
"534 646 LINE",
"840 646 LINE",
"840 49 LINE",
"534 49 LINE"
);
}
);
width = 914;
}
);
unicode = 0037;
},
{
glyphname = slash;
layers = (
{
layerId = "AE796192-B776-4211-9DF5-23F45CECCAB6";
paths = (
{
nodes = (
"292 695 LINE",
"697 695 LINE",
"430 0 LINE",
"26 0 LINE"
);
},
{
nodes = (
"411 30 LINE",
"527 333 LINE",
"183 333 LINE",
"67 30 LINE"
);
},
{
nodes = (
"311 665 LINE",
"195 363 LINE",
"539 363 LINE",
"655 665 LINE"
);
},
{
nodes = (
"399 49 LINE",
"93 49 LINE",
"195 314 LINE",
"501 314 LINE"
);
},
{
nodes = (
"322 646 LINE",
"628 646 LINE",
"527 382 LINE",
"221 382 LINE"
);
}
);
width = 714;
}
);
unicode = 002F;
},
{
glyphname = hyphen;
layers = (
{
layerId = "AE796192-B776-4211-9DF5-23F45CECCAB6";
paths = (
{
nodes = (
"26 447 LINE",
"558 447 LINE",
"558 247 LINE",
"26 247 LINE"
);
},
{
nodes = (
"528 277 LINE",
"528 414 LINE",
"56 414 LINE",
"56 277 LINE"
);
},
{
nodes = (
"509 296 LINE",
"75 296 LINE",
"75 395 LINE",
"509 395 LINE"
);
}
);
width = 580;
}
);
unicode = 002D;
},
{
glyphname = plus;
layers = (
{
layerId = "AE796192-B776-4211-9DF5-23F45CECCAB6";
paths = (
{
nodes = (
"24 448 LINE",
"174 448 LINE",
"174 596 LINE",
"360 596 LINE",
"360 448 LINE",
"508 448 LINE",
"508 268 LINE",
"360 268 LINE",
"360 128 LINE",
"174 128 LINE",
"174 268 LINE",
"24 268 LINE"
);
},
{
nodes = (
"327 566 LINE",
"204 566 LINE",
"204 415 LINE",
"54 415 LINE",
"54 298 LINE",
"204 298 LINE",
"204 158 LINE",
"327 158 LINE",
"327 298 LINE",
"478 298 LINE",
"478 415 LINE",
"327 415 LINE"
);
},
{
nodes = (
"223 177 LINE",
"223 317 LINE",
"73 317 LINE",
"73 396 LINE",
"223 396 LINE",
"223 547 LINE",
"308 547 LINE",
"308 396 LINE",
"459 396 LINE",
"459 317 LINE",
"308 317 LINE",
"308 177 LINE"
);
}
);
width = 537;
}
);
unicode = 002B;
},
{
glyphname = exclam;
layers = (
{
layerId = "AE796192-B776-4211-9DF5-23F45CECCAB6";
paths = (
{
nodes = (
"26 695 LINE",
"395 695 LINE",
"395 211 LINE",
"26 211 LINE"
);
},
{
nodes = (
"56 665 LINE",
"56 240 LINE",
"365 240 LINE",
"365 665 LINE"
);
},
{
nodes = (
"75 646 LINE",
"346 646 LINE",
"346 264 LINE",
"75 264 LINE"
);
},
{
nodes = (
"26 0 LINE",
"26 173 LINE",
"395 173 LINE",
"395 0 LINE"
);
},
{
nodes = (
"365 30 LINE",
"365 141 LINE",
"56 141 LINE",
"56 30 LINE"
);
},
{
nodes = (
"346 49 LINE",
"75 49 LINE",
"75 122 LINE",
"346 122 LINE"
);
}
);
width = 419;
}
);
unicode = 0021;
},
{
glyphname = quotedbl;
layers = (
{
layerId = "AE796192-B776-4211-9DF5-23F45CECCAB6";
paths = (
{
nodes = (
"26 695 LINE",
"290 695 LINE",
"222 288 LINE",
"26 288 LINE"
);
},
{
nodes = (
"196 318 LINE",
"248 662 LINE",
"56 662 LINE",
"56 318 LINE"
);
},
{
nodes = (
"180 337 LINE",
"75 337 LINE",
"75 643 LINE",
"224 643 LINE"
);
},
{
nodes = (
"306 695 LINE",
"570 695 LINE",
"502 288 LINE",
"306 288 LINE"
);
},
{
nodes = (
"476 318 LINE",
"528 662 LINE",
"336 662 LINE",
"336 318 LINE"
);
},
{
nodes = (
"460 337 LINE",
"355 337 LINE",
"355 643 LINE",
"504 643 LINE"
);
}
);
width = 581;
}
);
unicode = 0022;
},
{
glyphname = dollar;
layers = (
{
layerId = "AE796192-B776-4211-9DF5-23F45CECCAB6";
paths = (
{
nodes = (
"447 796 LINE",
"713 796 LINE",
"713 695 LINE",
"1139 695 LINE",
"1139 498 LINE",
"973 498 LINE",
"973 361 LINE",
"1007 358 OFFCURVE",
"1068 328 OFFCURVE",
"1113 280 OFFCURVE",
"1139 217 OFFCURVE",
"1139 181 QCURVE SMOOTH",
"1139 145 OFFCURVE",
"1113 82 OFFCURVE",
"1068 34 OFFCURVE",
"1007 3 OFFCURVE",
"973 0 QCURVE",
"713 0 LINE",
"713 -94 LINE",
"447 -94 LINE",
"447 0 LINE",
"28 0 LINE",
"28 196 LINE",
"195 196 LINE",
"195 333 LINE",
"160 336 OFFCURVE",
"99 366 OFFCURVE",
"54 414 OFFCURVE",
"28 477 OFFCURVE",
"28 513 QCURVE SMOOTH",
"28 549 OFFCURVE",
"54 612 OFFCURVE",
"100 661 OFFCURVE",
"161 692 OFFCURVE",
"196 695 QCURVE",
"447 695 LINE"
);
},
{
nodes = (
"58 30 LINE",
"477 30 LINE",
"477 -64 LINE",
"683 -64 LINE",
"683 30 LINE",
"858 30 LINE",
"823 53 OFFCURVE",
"800 90 QCURVE",
"779 126 OFFCURVE",
"783 231 QCURVE",
"789 249 OFFCURVE",
"798 266 QCURVE SMOOTH",
"813 293 OFFCURVE",
"856 334 OFFCURVE",
"911 359 OFFCURVE",
"943 361 QCURVE",
"943 528 LINE",
"1109 528 LINE",
"1109 665 LINE",
"683 665 LINE",
"683 763 LINE",
"477 763 LINE",
"477 665 LINE",
"309 665 LINE",
"344 641 OFFCURVE",
"389 566 OFFCURVE",
"391 521 QCURVE",
"383 454 OFFCURVE",
"354 401 OFFCURVE",
"311 361 OFFCURVE",
"255 336 OFFCURVE",
"224 333 QCURVE",
"224 166 LINE",
"58 166 LINE"
);
},
{
nodes = (
"664 -45 LINE",
"496 -45 LINE",
"496 744 LINE",
"664 744 LINE"
);
},
{
nodes = (
"1090 646 LINE",
"1090 547 LINE",
"924 547 LINE",
"924 377 LINE",
"898 372 OFFCURVE",
"849 348 OFFCURVE",
"808 312 OFFCURVE",
"792 290 QCURVE SMOOTH",
"778 271 OFFCURVE",
"769 250 QCURVE",
"763 221 LINE",
"758 151 OFFCURVE",
"787 72 OFFCURVE",
"807 49 QCURVE",
"683 49 LINE",
"683 646 LINE"
);
},
{
nodes = (
"77 147 LINE",
"243 147 LINE",
"243 316 LINE",
"299 325 OFFCURVE",
"340 361 QCURVE",
"418 423 OFFCURVE",
"410 531 QCURVE SMOOTH",
"408 563 OFFCURVE",
"381 623 OFFCURVE",
"361 646 QCURVE",
"477 646 LINE",
"477 49 LINE",
"77 49 LINE"
);
},
{
nodes = (
"58 482 OFFCURVE",
"82 427 OFFCURVE",
"123 386 OFFCURVE",
"178 362 OFFCURVE",
"210 362 QCURVE SMOOTH",
"240 362 OFFCURVE",
"294 384 OFFCURVE",
"335 423 OFFCURVE",
"359 476 OFFCURVE",
"361 506 QCURVE",
"360 541 OFFCURVE",
"335 599 OFFCURVE",
"294 641 OFFCURVE",
"240 665 OFFCURVE",
"210 665 QCURVE SMOOTH",
"178 665 OFFCURVE",
"123 641 OFFCURVE",
"82 600 OFFCURVE",
"58 544 OFFCURVE",
"58 513 QCURVE SMOOTH"
);
},
{
nodes = (
"1109 212 OFFCURVE",
"1085 267 OFFCURVE",
"1044 308 OFFCURVE",
"989 332 OFFCURVE",
"958 332 QCURVE SMOOTH",
"927 332 OFFCURVE",
"873 309 OFFCURVE",
"832 268 OFFCURVE",
"807 210 OFFCURVE",
"806 176 QCURVE",
"807 146 OFFCURVE",
"832 92 OFFCURVE",
"873 53 OFFCURVE",
"927 30 OFFCURVE",
"958 30 QCURVE SMOOTH",
"989 30 OFFCURVE",
"1044 54 OFFCURVE",
"1085 94 OFFCURVE",
"1109 149 OFFCURVE",
"1109 181 QCURVE SMOOTH"
);
},
{
nodes = (
"77 540 OFFCURVE",
"98 589 OFFCURVE",
"134 625 OFFCURVE",
"182 646 OFFCURVE",
"210 646 QCURVE SMOOTH",
"236 646 OFFCURVE",
"282 625 OFFCURVE",
"318 588 OFFCURVE",
"340 536 OFFCURVE",
"342 506 QCURVE",
"340 480 OFFCURVE",
"319 434 OFFCURVE",
"283 400 OFFCURVE",
"236 381 OFFCURVE",
"210 381 QCURVE SMOOTH",
"182 381 OFFCURVE",
"134 402 OFFCURVE",
"98 438 OFFCURVE",
"77 486 OFFCURVE",
"77 513 QCURVE SMOOTH"
);
},
{
nodes = (
"1090 154 OFFCURVE",
"1069 106 OFFCURVE",
"1033 70 OFFCURVE",
"985 49 OFFCURVE",
"958 49 QCURVE SMOOTH",
"931 49 OFFCURVE",
"884 69 OFFCURVE",
"848 103 OFFCURVE",
"826 149 OFFCURVE",
"825 176 QCURVE",
"826 206 OFFCURVE",
"848 256 OFFCURVE",
"884 293 OFFCURVE",
"931 313 OFFCURVE",
"958 313 QCURVE SMOOTH",
"985 313 OFFCURVE",
"1033 292 OFFCURVE",
"1069 256 OFFCURVE",
"1090 208 OFFCURVE",
"1090 181 QCURVE SMOOTH"
);
}
);
width = 1163;
}
);
unicode = 0024;
},
{
glyphname = percent;
layers = (
{
layerId = "AE796192-B776-4211-9DF5-23F45CECCAB6";
paths = (
{
nodes = (
"579 695 LINE",
"983 695 LINE",
"717 0 LINE",
"313 0 LINE"
);
},
{
nodes = (
"698 30 LINE",
"814 333 LINE",
"470 333 LINE",
"354 30 LINE"
);
},
{
nodes = (
"598 665 LINE",
"482 363 LINE",
"826 363 LINE",
"942 665 LINE"
);
},
{
nodes = (
"686 49 LINE",
"380 49 LINE",
"482 314 LINE",
"788 314 LINE"
);
},
{
nodes = (
"609 646 LINE",
"915 646 LINE",
"814 382 LINE",
"508 382 LINE"
);
},
{
nodes = (
"173 354 LINE",
"258 354 LINE",
"258 572 LINE",
"173 572 LINE"
);
},
{
nodes = (
"206 539 LINE",
"225 539 LINE",
"225 387 LINE",
"206 387 LINE"
);
},
{
nodes = (
"337 695 OFFCURVE",
"285 695 QCURVE SMOOTH",
"152 695 LINE SMOOTH",
"126 695 OFFCURVE",
"82 676 OFFCURVE",
"48 642 OFFCURVE",
"29 597 OFFCURVE",
"29 572 QCURVE SMOOTH",
"29 346 LINE SMOOTH",
"29 321 OFFCURVE",
"48 276 OFFCURVE",
"82 243 OFFCURVE",
"126 224 OFFCURVE",
"152 224 QCURVE SMOOTH",
"285 224 LINE SMOOTH",
"310 224 OFFCURVE",
"356 243 OFFCURVE",
"389 276 OFFCURVE",
"409 321 OFFCURVE",
"409 346 QCURVE SMOOTH",
"409 572 LINE SMOOTH",
"409 623 OFFCURVE",
"373 659 QCURVE SMOOTH"
);
},
{
nodes = (
"376 346 LINE SMOOTH",
"376 328 OFFCURVE",
"362 295 OFFCURVE",
"337 271 OFFCURVE",
"304 257 OFFCURVE",
"285 257 QCURVE SMOOTH",
"152 257 LINE SMOOTH",
"114 257 OFFCURVE",
"62 309 OFFCURVE",
"62 346 QCURVE SMOOTH",
"62 572 LINE SMOOTH",
"62 610 OFFCURVE",
"114 663 OFFCURVE",
"152 663 QCURVE SMOOTH",
"285 663 LINE SMOOTH",
"304 663 OFFCURVE",
"337 649 OFFCURVE",
"362 624 OFFCURVE",
"376 591 OFFCURVE",
"376 572 QCURVE SMOOTH"
);
},
{
nodes = (
"151 278 LINE SMOOTH",
"121 278 OFFCURVE",
"101 298 QCURVE SMOOTH",
"90 308 OFFCURVE",
"80 333 OFFCURVE",
"80 347 QCURVE SMOOTH",
"80 573 LINE SMOOTH",
"80 602 OFFCURVE",
"122 643 OFFCURVE",
"151 643 QCURVE SMOOTH",
"284 643 LINE SMOOTH",
"313 643 OFFCURVE",
"355 602 OFFCURVE",
"355 573 QCURVE SMOOTH",
"355 347 LINE SMOOTH",
"355 318 OFFCURVE",
"313 278 OFFCURVE",
"284 278 QCURVE SMOOTH"
);
},
{
nodes = (
"152 334 LINE",
"277 334 LINE",
"277 592 LINE",
"152 592 LINE"
);
},
{
nodes = (
"1032 130 LINE",
"1117 130 LINE",
"1117 348 LINE",
"1032 348 LINE"
);
},
{
nodes = (
"1065 315 LINE",
"1084 315 LINE",
"1084 163 LINE",
"1065 163 LINE"
);
},
{
nodes = (
"1196 471 OFFCURVE",
"1144 471 QCURVE SMOOTH",
"1011 471 LINE SMOOTH",
"985 471 OFFCURVE",
"941 452 OFFCURVE",
"907 418 OFFCURVE",
"888 373 OFFCURVE",
"888 348 QCURVE SMOOTH",
"888 122 LINE SMOOTH",
"888 97 OFFCURVE",
"907 52 OFFCURVE",
"941 19 OFFCURVE",
"985 0 OFFCURVE",
"1011 0 QCURVE SMOOTH",
"1144 0 LINE SMOOTH",
"1169 0 OFFCURVE",
"1215 19 OFFCURVE",
"1248 52 OFFCURVE",
"1268 97 OFFCURVE",
"1268 122 QCURVE SMOOTH",
"1268 348 LINE SMOOTH",
"1268 399 OFFCURVE",
"1232 435 QCURVE SMOOTH"
);
},
{
nodes = (
"1235 122 LINE SMOOTH",
"1235 104 OFFCURVE",
"1221 71 OFFCURVE",
"1196 47 OFFCURVE",
"1163 33 OFFCURVE",
"1144 33 QCURVE SMOOTH",
"1011 33 LINE SMOOTH",
"973 33 OFFCURVE",
"921 85 OFFCURVE",
"921 122 QCURVE SMOOTH",
"921 348 LINE SMOOTH",
"921 386 OFFCURVE",
"973 439 OFFCURVE",
"1011 439 QCURVE SMOOTH",
"1144 439 LINE SMOOTH",
"1163 439 OFFCURVE",
"1196 425 OFFCURVE",
"1221 400 OFFCURVE",
"1235 367 OFFCURVE",
"1235 348 QCURVE SMOOTH"
);
},
{
nodes = (
"1010 54 LINE SMOOTH",
"980 54 OFFCURVE",
"960 74 QCURVE SMOOTH",
"949 84 OFFCURVE",
"939 109 OFFCURVE",
"939 123 QCURVE SMOOTH",
"939 349 LINE SMOOTH",
"939 378 OFFCURVE",
"981 419 OFFCURVE",
"1010 419 QCURVE SMOOTH",
"1143 419 LINE SMOOTH",
"1172 419 OFFCURVE",
"1214 378 OFFCURVE",
"1214 349 QCURVE SMOOTH",
"1214 123 LINE SMOOTH",
"1214 94 OFFCURVE",
"1172 54 OFFCURVE",
"1143 54 QCURVE SMOOTH"
);
},
{
nodes = (
"1011 110 LINE",
"1136 110 LINE",
"1136 368 LINE",
"1011 368 LINE"
);
}
);
width = 1302;
}
);
unicode = 0025;
},
{
glyphname = semicolon;
layers = (
{
layerId = "AE796192-B776-4211-9DF5-23F45CECCAB6";
paths = (
{
nodes = (
"20 619 LINE",
"266 619 LINE",
"266 425 LINE",
"20 425 LINE"
);
},
{
nodes = (
"236 455 LINE",
"236 586 LINE",
"50 586 LINE",
"50 455 LINE"
);
},
{
nodes = (
"217 474 LINE",
"69 474 LINE",
"69 567 LINE",
"217 567 LINE"
);
},
{
nodes = (
"218 35 LINE",
"69 -65 LINE",
"69 144 LINE",
"218 144 LINE"
);
},
{
nodes = (
"237 26 LINE",
"237 163 LINE",
"50 163 LINE",
"50 -102 LINE"
);
},
{
nodes = (
"267 0 LINE",
"20 -163 LINE",
"20 193 LINE",
"267 193 LINE"
);
}
);
width = 283;
}
);
unicode = 003B;
},
{
glyphname = equal;
layers = (
{
layerId = "AE796192-B776-4211-9DF5-23F45CECCAB6";
paths = (
{
nodes = (
"26 310 LINE",
"501 310 LINE",
"501 141 LINE",
"26 141 LINE"
);
},
{
nodes = (
"471 171 LINE",
"471 277 LINE",
"56 277 LINE",
"56 171 LINE"
);
},
{
nodes = (
"452 190 LINE",
"75 190 LINE",
"75 258 LINE",
"452 258 LINE"
);
},
{
nodes = (
"26 546 LINE",
"501 546 LINE",
"501 377 LINE",
"26 377 LINE"
);
},
{
nodes = (
"471 407 LINE",
"471 513 LINE",
"56 513 LINE",
"56 407 LINE"
);
},
{
nodes = (
"452 426 LINE",
"75 426 LINE",
"75 494 LINE",
"452 494 LINE"
);
}
);
width = 526;
}
);
unicode = 003D;
},
{
glyphname = quotesingle;
layers = (
{
layerId = "AE796192-B776-4211-9DF5-23F45CECCAB6";
paths = (
{
nodes = (
"26 695 LINE",
"290 695 LINE",
"222 288 LINE",
"26 288 LINE"
);
},
{
nodes = (
"196 318 LINE",
"248 662 LINE",
"56 662 LINE",
"56 318 LINE"
);
},
{
nodes = (
"180 337 LINE",
"75 337 LINE",
"75 643 LINE",
"224 643 LINE"
);
}
);
width = 297;
}
);
unicode = 0027;
},
{
glyphname = colon;
layers = (
{
layerId = "AE796192-B776-4211-9DF5-23F45CECCAB6";
paths = (
{
nodes = (
"20 619 LINE",
"266 619 LINE",
"266 425 LINE",
"20 425 LINE"
);
},
{
nodes = (
"236 455 LINE",
"236 586 LINE",
"50 586 LINE",
"50 455 LINE"
);
},
{
nodes = (
"217 474 LINE",
"69 474 LINE",
"69 567 LINE",
"217 567 LINE"
);
},
{
nodes = (
"20 194 LINE",
"266 194 LINE",
"266 0 LINE",
"20 0 LINE"
);
},
{
nodes = (
"236 30 LINE",
"236 161 LINE",
"50 161 LINE",
"50 30 LINE"
);
},
{
nodes = (
"217 49 LINE",
"69 49 LINE",
"69 142 LINE",
"217 142 LINE"
);
}
);
width = 283;
}
);
unicode = 003A;
},
{
glyphname = period;
layers = (
{
layerId = "AE796192-B776-4211-9DF5-23F45CECCAB6";
paths = (
{
nodes = (
"20 194 LINE",
"266 194 LINE",
"266 0 LINE",
"20 0 LINE"
);
},
{
nodes = (
"236 30 LINE",
"236 161 LINE",
"50 161 LINE",
"50 30 LINE"
);
},
{
nodes = (
"217 49 LINE",
"69 49 LINE",
"69 142 LINE",
"217 142 LINE"
);
}
);
width = 283;
}
);
unicode = 002E;
},
{
glyphname = comma;
layers = (
{
layerId = "AE796192-B776-4211-9DF5-23F45CECCAB6";
paths = (
{
nodes = (
"218 35 LINE",
"69 -65 LINE",
"69 144 LINE",
"218 144 LINE"
);
},
{
nodes = (
"237 26 LINE",
"237 163 LINE",
"50 163 LINE",
"50 -102 LINE"
);
},
{
nodes = (
"267 0 LINE",
"20 -163 LINE",
"20 193 LINE",
"267 193 LINE"
);
}
);
width = 283;
}
);
unicode = 002C;
},
{
glyphname = quotedblright;
layers = (
{
layerId = "AE796192-B776-4211-9DF5-23F45CECCAB6";
paths = (
{
nodes = (
"218 537 LINE",
"69 437 LINE",
"69 646 LINE",
"218 646 LINE"
);
},
{
nodes = (
"237 528 LINE",
"237 665 LINE",
"50 665 LINE",
"50 400 LINE"
);
},
{
nodes = (
"267 502 LINE",
"20 339 LINE",
"20 695 LINE",
"267 695 LINE"
);
},
{
nodes = (
"501 537 LINE",
"352 437 LINE",
"352 646 LINE",
"501 646 LINE"
);
},
{
nodes = (
"520 528 LINE",
"520 665 LINE",
"333 665 LINE",
"333 400 LINE"
);
},
{
nodes = (
"550 502 LINE",
"303 339 LINE",
"303 695 LINE",
"550 695 LINE"
);
}
);
width = 578;
}
);
unicode = 201D;
},
{
glyphname = quotedblleft;
layers = (
{
layerId = "AE796192-B776-4211-9DF5-23F45CECCAB6";
paths = (
{
nodes = (
"352 497 LINE",
"501 597 LINE",
"501 388 LINE",
"352 388 LINE"
);
},
{
nodes = (
"333 506 LINE",
"333 369 LINE",
"520 369 LINE",
"520 634 LINE"
);
},
{
nodes = (
"303 532 LINE",
"550 695 LINE",
"550 339 LINE",
"303 339 LINE"
);
},
{
nodes = (
"69 497 LINE",
"218 597 LINE",
"218 388 LINE",
"69 388 LINE"
);
},
{
nodes = (
"50 506 LINE",
"50 369 LINE",
"237 369 LINE",
"237 634 LINE"
);
},
{
nodes = (
"20 532 LINE",
"267 695 LINE",
"267 339 LINE",
"20 339 LINE"
);
}
);
width = 578;
}
);
unicode = 201C;
},
{
glyphname = quoteleft;
layers = (
{
layerId = "AE796192-B776-4211-9DF5-23F45CECCAB6";
paths = (
{
nodes = (
"69 497 LINE",
"218 597 LINE",
"218 388 LINE",
"69 388 LINE"
);
},
{
nodes = (
"50 506 LINE",
"50 369 LINE",
"237 369 LINE",
"237 634 LINE"
);
},
{
nodes = (
"20 532 LINE",
"267 695 LINE",
"267 339 LINE",
"20 339 LINE"
);
}
);
width = 290;
}
);
unicode = 2018;
},
{
glyphname = quoteright;
layers = (
{
layerId = "AE796192-B776-4211-9DF5-23F45CECCAB6";
paths = (
{
nodes = (
"218 537 LINE",
"69 437 LINE",
"69 646 LINE",
"218 646 LINE"
);
},
{
nodes = (
"237 528 LINE",
"237 665 LINE",
"50 665 LINE",
"50 400 LINE"
);
},
{
nodes = (
"267 502 LINE",
"20 339 LINE",
"20 695 LINE",
"267 695 LINE"
);
}
);
width = 293;
}
);
unicode = 2019;
},
{
glyphname = bullet;
layers = (
{
layerId = "AE796192-B776-4211-9DF5-23F45CECCAB6";
paths = (
{
nodes = (
"381 145 LINE",
"358 135 OFFCURVE",
"311 124 OFFCURVE",
"290 124 QCURVE SMOOTH",
"263 124 LINE SMOOTH",
"239 124 OFFCURVE",
"195 135 OFFCURVE",
"174 144 QCURVE",
"175 144 LINE",
"145 158 OFFCURVE",
"92 201 OFFCURVE",
"53 257 OFFCURVE",
"30 322 OFFCURVE",
"30 358 QCURVE SMOOTH",
"30 406 OFFCURVE",
"68 490 OFFCURVE",
"132 554 OFFCURVE",
"216 591 OFFCURVE",
"263 591 QCURVE SMOOTH",
"290 591 LINE SMOOTH",
"333 591 OFFCURVE",
"416 554 OFFCURVE",
"481 490 OFFCURVE",
"521 406 OFFCURVE",
"521 358 QCURVE SMOOTH",
"521 322 OFFCURVE",
"499 257 OFFCURVE",
"462 201 OFFCURVE",
"410 158 OFFCURVE",
"380 144 QCURVE"
);
},
{
nodes = (
"56 316 OFFCURVE",
"89 243 OFFCURVE",
"144 187 OFFCURVE",
"219 155 OFFCURVE",
"261 155 QCURVE SMOOTH",
"288 155 LINE SMOOTH",
"330 155 OFFCURVE",
"404 187 OFFCURVE",
"460 243 OFFCURVE",
"492 316 OFFCURVE",
"492 358 QCURVE SMOOTH",
"492 399 OFFCURVE",
"460 473 OFFCURVE",
"404 528 OFFCURVE",
"330 560 OFFCURVE",
"288 560 QCURVE SMOOTH",
"261 560 LINE SMOOTH",
"219 560 OFFCURVE",
"144 528 OFFCURVE",
"89 473 OFFCURVE",
"56 399 OFFCURVE",
"56 358 QCURVE SMOOTH"
);
},
{
nodes = (
"253 178 LINE SMOOTH",
"217 178 OFFCURVE",
"153 207 OFFCURVE",
"105 256 OFFCURVE",
"76 321 OFFCURVE",
"76 357 QCURVE SMOOTH",
"76 394 OFFCURVE",
"105 460 OFFCURVE",
"153 511 OFFCURVE",
"217 541 OFFCURVE",
"253 541 QCURVE SMOOTH",
"296 541 LINE SMOOTH",
"333 541 OFFCURVE",
"398 511 OFFCURVE",
"446 460 OFFCURVE",
"474 394 OFFCURVE",
"474 357 QCURVE SMOOTH",
"474 321 OFFCURVE",
"445 256 OFFCURVE",
"396 207 OFFCURVE",
"331 178 OFFCURVE",
"296 178 QCURVE SMOOTH"
);
}
);
width = 545;
}
);
unicode = 2022;
},
{
glyphname = acute;
layers = (
{
layerId = "AE796192-B776-4211-9DF5-23F45CECCAB6";
paths = (
{
nodes = (
"447 986 LINE",
"784 986 LINE",
"728 724 LINE",
"391 724 LINE"
);
},
{
nodes = (
"705 754 LINE",
"747 953 LINE",
"470 953 LINE",
"428 754 LINE"
);
},
{
nodes = (
"690 773 LINE",
"451 773 LINE",
"485 934 LINE",
"724 934 LINE"
);
}
);
width = 1185;
}
);
unicode = 00B4;
},
{
glyphname = caron;
layers = (
{
layerId = "AE796192-B776-4211-9DF5-23F45CECCAB6";
paths = (
{
nodes = (
"586 986 LINE",
"923 986 LINE",
"867 724 LINE",
"246 724 LINE",
"190 986 LINE",
"527 986 LINE",
"556 847 LINE"
);
},
{
nodes = (
"227 953 LINE",
"269 754 LINE",
"844 754 LINE",
"886 953 LINE",
"609 953 LINE",
"571 776 LINE",
"541 776 LINE",
"504 953 LINE"
);
},
{
nodes = (
"829 773 LINE",
"590 773 LINE",
"624 934 LINE",
"863 934 LINE"
);
},
{
nodes = (
"250 934 LINE",
"489 934 LINE",
"523 773 LINE",
"284 773 LINE"
);
}
);
width = 1138;
}
);
unicode = 02C7;
},
{
glyphname = ogonek;
layers = (
{
layerId = "AE796192-B776-4211-9DF5-23F45CECCAB6";
paths = (
{
nodes = (
"425 -205 OFFCURVE",
"437 -234 OFFCURVE",
"458 -257 OFFCURVE",
"484 -272 OFFCURVE",
"499 -272 QCURVE SMOOTH",
"778 -272 LINE",
"778 -175 LINE",
"691 -175 LINE",
"691 -78 LINE",
"778 -78 LINE",
"778 0 LINE",
"808 0 LINE",
"808 -112 LINE",
"719 -112 LINE",
"719 -148 LINE",
"808 -148 LINE",
"808 -302 LINE",
"496 -302 LINE",
"475 -300 OFFCURVE",
"439 -280 OFFCURVE",
"412 -250 OFFCURVE",
"397 -212 OFFCURVE",
"397 -191 QCURVE SMOOTH",
"397 -172 OFFCURVE",
"409 -134 OFFCURVE",
"433 -104 OFFCURVE",
"467 -85 OFFCURVE",
"490 -83 QCURVE",
"490 1 LINE",
"511 1 LINE",
"511 -111 LINE",
"492 -111 LINE SMOOTH",
"477 -111 OFFCURVE",
"453 -125 OFFCURVE",
"435 -148 OFFCURVE",
"425 -177 OFFCURVE",
"425 -191 QCURVE SMOOTH"
);
},
{
nodes = (
"452 -171 OFFCURVE",
"475 -134 OFFCURVE",
"495 -134 QCURVE SMOOTH",
"533 -134 LINE",
"533 0 LINE",
"757 0 LINE",
"757 -59 LINE",
"670 -59 LINE",
"670 -195 LINE",
"757 -195 LINE",
"757 -249 LINE",
"503 -249 LINE",
"500 -250 OFFCURVE",
"499 -250 QCURVE",
"479 -250 OFFCURVE",
"452 -211 OFFCURVE",
"452 -191 QCURVE SMOOTH"
);
}
);
width = 1209;
}
);
unicode = 02DB;
},
{
glyphname = cedilla;
layers = (
{
layerId = "AE796192-B776-4211-9DF5-23F45CECCAB6";
paths = (
{
nodes = (
"780 -177 OFFCURVE",
"770 -148 OFFCURVE",
"752 -125 OFFCURVE",
"728 -111 OFFCURVE",
"713 -111 QCURVE SMOOTH",
"694 -111 LINE",
"694 1 LINE",
"715 1 LINE",
"715 -83 LINE",
"737 -85 OFFCURVE",
"772 -104 OFFCURVE",
"796 -134 OFFCURVE",
"808 -172 OFFCURVE",
"808 -191 QCURVE SMOOTH",
"808 -212 OFFCURVE",
"793 -250 OFFCURVE",
"766 -280 OFFCURVE",
"730 -300 OFFCURVE",
"709 -302 QCURVE",
"397 -302 LINE",
"397 -148 LINE",
"486 -148 LINE",
"486 -112 LINE",
"397 -112 LINE",
"397 0 LINE",
"427 0 LINE",
"427 -78 LINE",
"514 -78 LINE",
"514 -175 LINE",
"427 -175 LINE",
"427 -272 LINE",
"706 -272 LINE SMOOTH",
"721 -272 OFFCURVE",
"747 -257 OFFCURVE",
"768 -234 OFFCURVE",
"780 -205 OFFCURVE",
"780 -191 QCURVE SMOOTH"
);
},
{
nodes = (
"753 -211 OFFCURVE",
"726 -250 OFFCURVE",
"706 -250 QCURVE",
"705 -250 OFFCURVE",
"702 -249 QCURVE",
"448 -249 LINE",
"448 -195 LINE",
"535 -195 LINE",
"535 -59 LINE",
"448 -59 LINE",
"448 0 LINE",
"672 0 LINE",
"672 -134 LINE",
"710 -134 LINE SMOOTH",
"730 -134 OFFCURVE",
"753 -171 OFFCURVE",
"753 -191 QCURVE SMOOTH"
);
}
);
width = 1148;
}
);
unicode = 00B8;
},
{
glyphname = dieresis;
layers = (
{
layerId = "AE796192-B776-4211-9DF5-23F45CECCAB6";
paths = (
{
nodes = (
"414 725 OFFCURVE",
"385 725 QCURVE SMOOTH",
"370 725 LINE SMOOTH",
"341 725 OFFCURVE",
"318 735 QCURVE SMOOTH",
"282 752 OFFCURVE",
"235 818 OFFCURVE",
"235 861 QCURVE SMOOTH",
"235 889 OFFCURVE",
"256 939 OFFCURVE",
"293 977 OFFCURVE",
"342 998 OFFCURVE",
"370 998 QCURVE SMOOTH",
"385 998 LINE SMOOTH",
"413 998 OFFCURVE",
"462 977 OFFCURVE",
"499 939 OFFCURVE",
"520 889 OFFCURVE",
"520 861 QCURVE SMOOTH",
"520 818 OFFCURVE",
"474 752 OFFCURVE",
"438 735 QCURVE"
);
},
{
nodes = (
"264 841 OFFCURVE",
"281 802 OFFCURVE",
"310 773 OFFCURVE",
"349 756 OFFCURVE",
"371 756 QCURVE SMOOTH",
"385 756 LINE SMOOTH",
"407 756 OFFCURVE",
"446 773 OFFCURVE",
"475 802 OFFCURVE",
"492 841 OFFCURVE",
"492 863 QCURVE SMOOTH",
"492 885 OFFCURVE",
"475 924 OFFCURVE",
"446 953 OFFCURVE",
"407 970 OFFCURVE",
"385 970 QCURVE SMOOTH",
"371 970 LINE SMOOTH",
"349 970 OFFCURVE",
"310 953 OFFCURVE",
"281 924 OFFCURVE",
"264 885 OFFCURVE",
"264 863 QCURVE SMOOTH"
);
},
{
nodes = (
"370 778 LINE SMOOTH",
"353 778 OFFCURVE",
"322 792 OFFCURVE",
"298 815 OFFCURVE",
"285 846 OFFCURVE",
"285 864 QCURVE SMOOTH",
"285 882 OFFCURVE",
"298 913 OFFCURVE",
"322 936 OFFCURVE",
"353 950 OFFCURVE",
"370 950 QCURVE SMOOTH",
"389 950 LINE SMOOTH",
"406 950 OFFCURVE",
"438 936 OFFCURVE",
"461 913 OFFCURVE",
"474 882 OFFCURVE",
"474 864 QCURVE SMOOTH",
"474 846 OFFCURVE",
"460 815 OFFCURVE",
"437 792 OFFCURVE",
"406 778 OFFCURVE",
"389 778 QCURVE SMOOTH"
);
},
{
nodes = (
"879 725 OFFCURVE",
"850 725 QCURVE SMOOTH",
"835 725 LINE SMOOTH",
"806 725 OFFCURVE",
"783 735 QCURVE SMOOTH",
"747 752 OFFCURVE",
"700 818 OFFCURVE",
"700 861 QCURVE SMOOTH",
"700 889 OFFCURVE",
"721 939 OFFCURVE",
"758 977 OFFCURVE",
"807 998 OFFCURVE",
"835 998 QCURVE SMOOTH",
"850 998 LINE SMOOTH",
"878 998 OFFCURVE",
"927 977 OFFCURVE",
"964 939 OFFCURVE",
"985 889 OFFCURVE",
"985 861 QCURVE SMOOTH",
"985 818 OFFCURVE",
"939 752 OFFCURVE",
"903 735 QCURVE"
);
},
{
nodes = (
"729 841 OFFCURVE",
"746 802 OFFCURVE",
"775 773 OFFCURVE",
"814 756 OFFCURVE",
"836 756 QCURVE SMOOTH",
"850 756 LINE SMOOTH",
"872 756 OFFCURVE",
"911 773 OFFCURVE",
"940 802 OFFCURVE",
"957 841 OFFCURVE",
"957 863 QCURVE SMOOTH",
"957 885 OFFCURVE",
"940 924 OFFCURVE",
"911 953 OFFCURVE",
"872 970 OFFCURVE",
"850 970 QCURVE SMOOTH",
"836 970 LINE SMOOTH",
"814 970 OFFCURVE",
"775 953 OFFCURVE",
"746 924 OFFCURVE",
"729 885 OFFCURVE",
"729 863 QCURVE SMOOTH"
);
},
{
nodes = (
"835 778 LINE SMOOTH",
"818 778 OFFCURVE",
"787 792 OFFCURVE",
"763 815 OFFCURVE",
"750 846 OFFCURVE",
"750 864 QCURVE SMOOTH",
"750 882 OFFCURVE",
"763 913 OFFCURVE",
"787 936 OFFCURVE",
"818 950 OFFCURVE",
"835 950 QCURVE SMOOTH",
"854 950 LINE SMOOTH",
"871 950 OFFCURVE",
"903 936 OFFCURVE",
"926 913 OFFCURVE",
"939 882 OFFCURVE",
"939 864 QCURVE SMOOTH",
"939 846 OFFCURVE",
"925 815 OFFCURVE",
"902 792 OFFCURVE",
"871 778 OFFCURVE",
"854 778 QCURVE SMOOTH"
);
}
);
width = 1209;
}
);
unicode = 00A8;
},
{
glyphname = dotaccent;
layers = (
{
layerId = "AE796192-B776-4211-9DF5-23F45CECCAB6";
paths = (
{
nodes = (
"586 725 OFFCURVE",
"563 725 QCURVE SMOOTH",
"550 725 LINE SMOOTH",
"525 725 OFFCURVE",
"504 734 QCURVE SMOOTH",
"473 748 OFFCURVE",
"432 808 OFFCURVE",
"432 846 QCURVE SMOOTH",
"432 871 OFFCURVE",
"451 916 OFFCURVE",
"483 949 OFFCURVE",
"526 968 OFFCURVE",
"550 968 QCURVE SMOOTH",
"563 968 LINE SMOOTH",
"587 968 OFFCURVE",
"630 949 OFFCURVE",
"661 916 OFFCURVE",
"680 871 OFFCURVE",
"680 846 QCURVE SMOOTH",
"680 808 OFFCURVE",
"640 748 OFFCURVE",
"609 734 QCURVE"
);
},
{
nodes = (
"462 809 OFFCURVE",
"513 758 OFFCURVE",
"549 758 QCURVE SMOOTH",
"561 758 LINE SMOOTH",
"597 758 OFFCURVE",
"647 809 OFFCURVE",
"647 847 QCURVE SMOOTH",
"647 885 OFFCURVE",
"597 937 OFFCURVE",
"561 937 QCURVE SMOOTH",
"549 937 LINE SMOOTH",
"531 937 OFFCURVE",
"499 923 OFFCURVE",
"476 899 OFFCURVE",
"462 866 OFFCURVE",
"462 847 QCURVE SMOOTH"
);
},
{
nodes = (
"548 780 LINE SMOOTH",
"535 780 OFFCURVE",
"511 792 OFFCURVE",
"493 810 OFFCURVE",
"483 835 OFFCURVE",
"483 849 QCURVE SMOOTH",
"483 864 OFFCURVE",
"493 890 OFFCURVE",
"511 907 OFFCURVE",
"535 918 OFFCURVE",
"548 918 QCURVE SMOOTH",
"563 918 LINE SMOOTH",
"576 918 OFFCURVE",
"600 907 OFFCURVE",
"618 890 OFFCURVE",
"628 864 OFFCURVE",
"628 849 QCURVE SMOOTH",
"628 835 OFFCURVE",
"617 810 OFFCURVE",
"599 792 OFFCURVE",
"576 780 OFFCURVE",
"563 780 QCURVE SMOOTH"
);
}
);
width = 1114;
}
);
unicode = 02D9;
},
{
glyphname = grave;
layers = (
{
layerId = "AE796192-B776-4211-9DF5-23F45CECCAB6";
paths = (
{
nodes = (
"784 724 LINE",
"447 724 LINE",
"391 986 LINE",
"728 986 LINE"
);
},
{
nodes = (
"747 754 LINE",
"705 953 LINE",
"428 953 LINE",
"470 754 LINE"
);
},
{
nodes = (
"451 934 LINE",
"690 934 LINE",
"724 773 LINE",
"485 773 LINE"
);
}
);
width = 1185;
}
);
unicode = 0060;
},
{
glyphname = breve;
layers = (
{
layerId = "AE796192-B776-4211-9DF5-23F45CECCAB6";
paths = (
{
nodes = (
"453 839 OFFCURVE",
"494 863 OFFCURVE",
"505 877 QCURVE SMOOTH",
"517 894 OFFCURVE",
"522 914 QCURVE",
"578 914 LINE",
"574 876 OFFCURVE",
"544 821 OFFCURVE",
"499 784 OFFCURVE",
"444 766 OFFCURVE",
"416 766 QCURVE SMOOTH",
"387 766 OFFCURVE",
"334 783 OFFCURVE",
"290 818 OFFCURVE",
"261 874 OFFCURVE",
"258 914 QCURVE",
"311 914 LINE",
"312 908 OFFCURVE",
"321 882 OFFCURVE",
"344 856 OFFCURVE",
"385 837 OFFCURVE",
"418 838 QCURVE SMOOTH"
);
},
{
nodes = (
"624 961 LINE",
"624 930 LINE SMOOTH",
"624 886 OFFCURVE",
"594 807 OFFCURVE",
"541 750 OFFCURVE",
"469 720 OFFCURVE",
"427 725 QCURVE",
"377 720 OFFCURVE",
"298 749 OFFCURVE",
"243 805 OFFCURVE",
"213 879 OFFCURVE",
"213 920 QCURVE SMOOTH",
"213 961 LINE",
"328 961 LINE",
"356 961 LINE",
"356 948 LINE SMOOTH",
"356 922 OFFCURVE",
"391 883 OFFCURVE",
"421 886 QCURVE",
"447 883 OFFCURVE",
"480 923 OFFCURVE",
"480 951 QCURVE SMOOTH",
"480 961 LINE",
"505 961 LINE"
);
},
{
nodes = (
"595 934 LINE",
"504 934 LINE",
"502 922 OFFCURVE",
"500 914 QCURVE",
"498 898 OFFCURVE",
"488 887 QCURVE",
"480 876 OFFCURVE",
"447 860 OFFCURVE",
"418 861 QCURVE SMOOTH",
"389 862 OFFCURVE",
"355 879 OFFCURVE",
"346 889 QCURVE SMOOTH",
"335 900 OFFCURVE",
"332 914 QCURVE SMOOTH",
"329 924 OFFCURVE",
"329 934 QCURVE",
"241 934 LINE",
"241 915 LINE SMOOTH",
"241 864 OFFCURVE",
"279 800 OFFCURVE",
"334 763 OFFCURVE",
"395 749 OFFCURVE",
"418 749 QCURVE SMOOTH",
"444 749 OFFCURVE",
"506 767 OFFCURVE",
"559 807 OFFCURVE",
"595 870 OFFCURVE",
"595 915 QCURVE SMOOTH"
);
}
);
width = 833;
}
);
unicode = 02D8;
},
{
glyphname = germandbls;
layers = (
{
layerId = "AE796192-B776-4211-9DF5-23F45CECCAB6";
paths = (
{
nodes = (
"23 347 LINE SMOOTH",
"23 419 OFFCURVE",
"78 546 OFFCURVE",
"172 640 OFFCURVE",
"298 695 OFFCURVE",
"370 695 QCURVE",
"977 696 LINE",
"1012 693 OFFCURVE",
"1072 662 OFFCURVE",
"1117 612 OFFCURVE",
"1143 549 OFFCURVE",
"1143 513 QCURVE SMOOTH",
"1143 457 OFFCURVE",
"1082 368 OFFCURVE",
"1034 347 QCURVE",
"1082 326 OFFCURVE",
"1143 237 OFFCURVE",
"1143 181 QCURVE SMOOTH",
"1143 145 OFFCURVE",
"1117 82 OFFCURVE",
"1072 34 OFFCURVE",
"1012 3 OFFCURVE",
"977 0 QCURVE",
"23 0 LINE"
);
},
{
nodes = (
"512 665 LINE",
"370 665 LINE SMOOTH",
"304 665 OFFCURVE",
"246 640 QCURVE SMOOTH",
"189 615 OFFCURVE",
"103 528 OFFCURVE",
"53 413 OFFCURVE",
"53 347 QCURVE",
"52 30 LINE",
"512 30 LINE"
);
},
{
nodes = (
"72 48 LINE",
"72 347 LINE SMOOTH",
"72 409 OFFCURVE",
"119 518 OFFCURVE",
"200 599 OFFCURVE",
"308 646 OFFCURVE",
"370 646 QCURVE SMOOTH",
"491 646 LINE",
"491 49 LINE"
);
},
{
nodes = (
"863 30 LINE",
"825 54 OFFCURVE",
"781 133 OFFCURVE",
"781 181 QCURVE SMOOTH",
"781 229 OFFCURVE",
"825 308 OFFCURVE",
"863 332 QCURVE",
"559 332 LINE",
"559 362 LINE",
"863 362 LINE",
"825 387 OFFCURVE",
"781 465 OFFCURVE",
"781 513 QCURVE SMOOTH",
"781 561 OFFCURVE",
"825 640 OFFCURVE",
"863 665 QCURVE",
"537 665 LINE",
"537 30 LINE"
);
},
{
nodes = (
"993 362 OFFCURVE",
"1049 386 OFFCURVE",
"1089 427 OFFCURVE",
"1113 482 OFFCURVE",
"1113 513 QCURVE SMOOTH",
"1113 544 OFFCURVE",
"1089 600 OFFCURVE",
"1049 641 OFFCURVE",
"993 665 OFFCURVE",
"962 665 QCURVE SMOOTH",
"931 665 OFFCURVE",
"876 641 OFFCURVE",
"835 600 OFFCURVE",
"811 544 OFFCURVE",
"811 513 QCURVE SMOOTH",
"811 482 OFFCURVE",
"835 427 OFFCURVE",
"876 386 OFFCURVE",
"931 362 OFFCURVE",
"962 362 QCURVE SMOOTH"
);
},
{
nodes = (
"1113 212 OFFCURVE",
"1089 267 OFFCURVE",
"1049 308 OFFCURVE",
"993 332 OFFCURVE",
"962 332 QCURVE SMOOTH",
"931 332 OFFCURVE",
"876 308 OFFCURVE",
"835 267 OFFCURVE",
"811 212 OFFCURVE",
"811 181 QCURVE SMOOTH",
"811 149 OFFCURVE",
"835 94 OFFCURVE",
"876 54 OFFCURVE",
"931 30 OFFCURVE",
"962 30 QCURVE SMOOTH",
"993 30 OFFCURVE",
"1049 54 OFFCURVE",
"1089 94 OFFCURVE",
"1113 149 OFFCURVE",
"1113 181 QCURVE SMOOTH"
);
},
{
nodes = (
"813 646 LINE",
"762 590 OFFCURVE",
"762 513 QCURVE SMOOTH",
"762 475 OFFCURVE",
"788 408 OFFCURVE",
"812 381 QCURVE",
"559 381 LINE",
"559 646 LINE"
);
},
{
nodes = (
"812 313 LINE",
"789 287 OFFCURVE",
"762 218 OFFCURVE",
"762 181 QCURVE SMOOTH",
"762 144 OFFCURVE",
"789 75 OFFCURVE",
"812 49 QCURVE",
"559 49 LINE",
"559 313 LINE"
);
},
{
nodes = (
"935 381 OFFCURVE",
"887 402 OFFCURVE",
"851 438 OFFCURVE",
"830 486 OFFCURVE",
"830 513 QCURVE SMOOTH",
"830 540 OFFCURVE",
"851 589 OFFCURVE",
"887 625 OFFCURVE",
"935 646 OFFCURVE",
"962 646 QCURVE SMOOTH",
"989 646 OFFCURVE",
"1037 625 OFFCURVE",
"1073 589 OFFCURVE",
"1094 540 OFFCURVE",
"1094 513 QCURVE SMOOTH",
"1094 486 OFFCURVE",
"1073 438 OFFCURVE",
"1037 402 OFFCURVE",
"989 381 OFFCURVE",
"962 381 QCURVE SMOOTH"
);
},
{
nodes = (
"1094 154 OFFCURVE",
"1073 106 OFFCURVE",
"1037 70 OFFCURVE",
"989 49 OFFCURVE",
"962 49 QCURVE SMOOTH",
"935 49 OFFCURVE",
"887 70 OFFCURVE",
"851 106 OFFCURVE",
"830 154 OFFCURVE",
"830 181 QCURVE SMOOTH",
"830 208 OFFCURVE",
"851 256 OFFCURVE",
"887 292 OFFCURVE",
"935 313 OFFCURVE",
"962 313 QCURVE SMOOTH",
"989 313 OFFCURVE",
"1037 292 OFFCURVE",
"1073 256 OFFCURVE",
"1094 208 OFFCURVE",
"1094 181 QCURVE SMOOTH"
);
}
);
width = 1165;
}
);
unicode = 00DF;
},
{
glyphname = bracketleft;
layers = (
{
layerId = "AE796192-B776-4211-9DF5-23F45CECCAB6";
paths = (
{
nodes = (
"432 -23 LINE",
"748 -23 LINE",
"748 -196 LINE",
"28 -196 LINE",
"28 929 LINE",
"748 929 LINE",
"748 756 LINE",
"432 756 LINE"
);
},
{
nodes = (
"402 -166 LINE",
"402 899 LINE",
"58 899 LINE",
"58 -166 LINE"
);
},
{
nodes = (
"383 -147 LINE",
"77 -147 LINE",
"77 880 LINE",
"383 880 LINE"
);
},
{
nodes = (
"718 899 LINE",
"432 899 LINE",
"432 786 LINE",
"718 786 LINE"
);
},
{
nodes = (
"718 -53 LINE",
"432 -53 LINE",
"432 -166 LINE",
"718 -166 LINE"
);
},
{
nodes = (
"699 -72 LINE",
"699 -147 LINE",
"451 -147 LINE",
"451 -72 LINE"
);
},
{
nodes = (
"451 805 LINE",
"451 880 LINE",
"699 880 LINE",
"699 805 LINE"
);
}
);
width = 777;
}
);
unicode = 005B;
},
{
glyphname = bracketright;
layers = (
{
layerId = "AE796192-B776-4211-9DF5-23F45CECCAB6";
paths = (
{
nodes = (
"77 805 LINE",
"77 880 LINE",
"325 880 LINE",
"325 805 LINE"
);
},
{
nodes = (
"325 -72 LINE",
"325 -147 LINE",
"77 -147 LINE",
"77 -72 LINE"
);
},
{
nodes = (
"58 -166 LINE",
"344 -166 LINE",
"344 -53 LINE",
"58 -53 LINE"
);
},
{
nodes = (
"58 786 LINE",
"344 786 LINE",
"344 899 LINE",
"58 899 LINE"
);
},
{
nodes = (
"393 880 LINE",
"699 880 LINE",
"699 -147 LINE",
"393 -147 LINE"
);
},
{
nodes = (
"718 -166 LINE",
"718 899 LINE",
"374 899 LINE",
"374 -166 LINE"
);
},
{
nodes = (
"344 756 LINE",
"28 756 LINE",
"28 929 LINE",
"748 929 LINE",
"748 -196 LINE",
"28 -196 LINE",
"28 -23 LINE",
"344 -23 LINE"
);
}
);
width = 777;
}
);
unicode = 005D;
},
{
glyphname = backslash;
layers = (
{
layerId = "AE796192-B776-4211-9DF5-23F45CECCAB6";
paths = (
{
nodes = (
"502 382 LINE",
"196 382 LINE",
"95 646 LINE",
"401 646 LINE"
);
},
{
nodes = (
"222 314 LINE",
"528 314 LINE",
"630 49 LINE",
"324 49 LINE"
);
},
{
nodes = (
"68 665 LINE",
"184 363 LINE",
"528 363 LINE",
"412 665 LINE"
);
},
{
nodes = (
"656 30 LINE",
"540 333 LINE",
"196 333 LINE",
"312 30 LINE"
);
},
{
nodes = (
"697 0 LINE",
"293 0 LINE",
"26 695 LINE",
"431 695 LINE"
);
}
);
width = 714;
}
);
unicode = 005C;
},
{
glyphname = bar;
layers = (
{
layerId = "AE796192-B776-4211-9DF5-23F45CECCAB6";
paths = (
{
nodes = (
"26 840 LINE",
"270 840 LINE",
"270 -109 LINE",
"26 -109 LINE"
);
},
{
nodes = (
"240 -79 LINE",
"240 333 LINE",
"56 333 LINE",
"56 -79 LINE"
);
},
{
nodes = (
"56 810 LINE",
"56 363 LINE",
"240 363 LINE",
"240 810 LINE"
);
},
{
nodes = (
"221 -60 LINE",
"75 -60 LINE",
"75 314 LINE",
"221 314 LINE"
);
},
{
nodes = (
"75 791 LINE",
"221 791 LINE",
"221 382 LINE",
"75 382 LINE"
);
}
);
width = 297;
}
);
unicode = 007C;
},
{
glyphname = Euro;
layers = (
{
layerId = "AE796192-B776-4211-9DF5-23F45CECCAB6";
paths = (
{
nodes = (
"943 416 LINE",
"943 279 LINE",
"1169 279 LINE",
"1155 211 OFFCURVE",
"1090 106 OFFCURVE",
"998 36 OFFCURVE",
"887 0 OFFCURVE",
"827 0 QCURVE SMOOTH",
"370 0 LINE SMOOTH",
"298 0 OFFCURVE",
"172 55 OFFCURVE",
"78 149 OFFCURVE",
"23 276 OFFCURVE",
"23 348 QCURVE SMOOTH",
"23 420 OFFCURVE",
"78 546 OFFCURVE",
"172 640 OFFCURVE",
"298 695 OFFCURVE",
"370 695 QCURVE SMOOTH",
"827 695 LINE SMOOTH",
"887 695 OFFCURVE",
"999 657 OFFCURVE",
"1091 585 OFFCURVE",
"1157 481 OFFCURVE",
"1169 416 QCURVE"
);
},
{
nodes = (
"397 665 LINE",
"370 665 LINE SMOOTH",
"304 665 OFFCURVE",
"189 615 OFFCURVE",
"103 529 OFFCURVE",
"53 414 OFFCURVE",
"53 348 QCURVE SMOOTH",
"53 282 OFFCURVE",
"103 167 OFFCURVE",
"189 80 OFFCURVE",
"304 30 OFFCURVE",
"370 30 QCURVE SMOOTH",
"397 30 LINE"
);
},
{
nodes = (
"378 49 LINE",
"370 49 LINE SMOOTH",
"308 49 OFFCURVE",
"200 96 OFFCURVE",
"119 177 OFFCURVE",
"72 286 OFFCURVE",
"72 348 QCURVE SMOOTH",
"72 410 OFFCURVE",
"119 518 OFFCURVE",
"200 599 OFFCURVE",
"308 646 OFFCURVE",
"370 646 QCURVE SMOOTH",
"378 646 LINE"
);
},
{
nodes = (
"427 249 LINE",
"427 30 LINE",
"827 30 LINE SMOOTH",
"879 30 OFFCURVE",
"975 62 OFFCURVE",
"1054 120 OFFCURVE",
"1113 200 OFFCURVE",
"1129 249 QCURVE"
);
},
{
nodes = (
"427 665 LINE",
"427 446 LINE",
"1129 446 LINE",
"1113 495 OFFCURVE",
"1054 575 OFFCURVE",
"975 633 OFFCURVE",
"879 665 OFFCURVE",
"827 665 QCURVE SMOOTH"
);
},
{
nodes = (
"1102 230 LINE",
"1084 189 OFFCURVE",
"1028 123 OFFCURVE",
"957 75 OFFCURVE",
"873 49 OFFCURVE",
"827 49 QCURVE SMOOTH",
"446 49 LINE",
"446 230 LINE"
);
},
{
nodes = (
"827 646 LINE SMOOTH",
"873 646 OFFCURVE",
"957 620 OFFCURVE",
"1028 572 OFFCURVE",
"1084 505 OFFCURVE",
"1102 465 QCURVE",
"446 465 LINE",
"446 646 LINE"
);
},
{
nodes = (
"919 277 LINE",
"919 335 LINE",
"424 335 LINE",
"424 277 LINE"
);
},
{
nodes = (
"919 362 LINE",
"919 417 LINE",
"424 417 LINE",
"424 362 LINE"
);
},
{
nodes = (
"900 381 LINE",
"443 381 LINE",
"443 398 LINE",
"900 398 LINE"
);
},
{
nodes = (
"900 296 LINE",
"443 296 LINE",
"443 316 LINE",
"900 316 LINE"
);
}
);
width = 1192;
}
);
unicode = 20AC;
},
{
glyphname = icircumflex;
layers = (
{
layerId = "AE796192-B776-4211-9DF5-23F45CECCAB6";
paths = (
{
nodes = (
"227 863 LINE",
"198 724 LINE",
"-139 724 LINE",
"-83 986 LINE",
"538 986 LINE",
"594 724 LINE",
"257 724 LINE"
);
},
{
nodes = (
"175 757 LINE",
"212 934 LINE",
"242 934 LINE",
"280 757 LINE",
"557 757 LINE",
"515 956 LINE",
"-60 956 LINE",
"-102 757 LINE"
);
},
{
nodes = (
"534 776 LINE",
"295 776 LINE",
"261 937 LINE",
"500 937 LINE"
);
},
{
nodes = (
"-45 937 LINE",
"194 937 LINE",
"160 776 LINE",
"-79 776 LINE"
);
},
{
nodes = (
"26 695 LINE",
"430 695 LINE",
"430 0 LINE",
"26 0 LINE"
);
},
{
nodes = (
"400 30 LINE",
"400 333 LINE",
"56 333 LINE",
"56 30 LINE"
);
},
{
nodes = (
"56 665 LINE",
"56 363 LINE",
"400 363 LINE",
"400 665 LINE"
);
},
{
nodes = (
"381 49 LINE",
"75 49 LINE",
"75 314 LINE",
"381 314 LINE"
);
},
{
nodes = (
"75 646 LINE",
"381 646 LINE",
"381 382 LINE",
"75 382 LINE"
);
}
);
width = 455;
}
);
unicode = 00EE;
},
{
glyphname = Icircumflex;
layers = (
{
layerId = "AE796192-B776-4211-9DF5-23F45CECCAB6";
paths = (
{
nodes = (
"227 863 LINE",
"198 724 LINE",
"-139 724 LINE",
"-83 986 LINE",
"538 986 LINE",
"594 724 LINE",
"257 724 LINE"
);
},
{
nodes = (
"175 757 LINE",
"212 934 LINE",
"242 934 LINE",
"280 757 LINE",
"557 757 LINE",
"515 956 LINE",
"-60 956 LINE",
"-102 757 LINE"
);
},
{
nodes = (
"534 776 LINE",
"295 776 LINE",
"261 937 LINE",
"500 937 LINE"
);
},
{
nodes = (
"-45 937 LINE",
"194 937 LINE",
"160 776 LINE",
"-79 776 LINE"
);
},
{
nodes = (
"26 695 LINE",
"430 695 LINE",
"430 0 LINE",
"26 0 LINE"
);
},
{
nodes = (
"400 30 LINE",
"400 333 LINE",
"56 333 LINE",
"56 30 LINE"
);
},
{
nodes = (
"56 665 LINE",
"56 363 LINE",
"400 363 LINE",
"400 665 LINE"
);
},
{
nodes = (
"381 49 LINE",
"75 49 LINE",
"75 314 LINE",
"381 314 LINE"
);
},
{
nodes = (
"75 646 LINE",
"381 646 LINE",
"381 382 LINE",
"75 382 LINE"
);
}
);
width = 455;
}
);
unicode = 00CE;
},
{
glyphname = uhungarumlaut;
layers = (
{
layerId = "AE796192-B776-4211-9DF5-23F45CECCAB6";
paths = (
{
nodes = (
"217 986 LINE",
"554 986 LINE",
"498 724 LINE",
"161 724 LINE"
);
},
{
nodes = (
"475 754 LINE",
"517 953 LINE",
"240 953 LINE",
"198 754 LINE"
);
},
{
nodes = (
"460 773 LINE",
"221 773 LINE",
"255 934 LINE",
"494 934 LINE"
);
},
{
nodes = (
"621 986 LINE",
"958 986 LINE",
"902 724 LINE",
"565 724 LINE"
);
},
{
nodes = (
"879 754 LINE",
"921 953 LINE",
"644 953 LINE",
"602 754 LINE"
);
},
{
nodes = (
"864 773 LINE",
"625 773 LINE",
"659 934 LINE",
"898 934 LINE"
);
},
{
nodes = (
"732 695 LINE",
"1095 695 LINE",
"1095 182 LINE SMOOTH",
"1095 146 OFFCURVE",
"1069 83 OFFCURVE",
"1024 34 OFFCURVE",
"963 3 OFFCURVE",
"928 0 QCURVE",
"192 1 LINE",
"157 4 OFFCURVE",
"97 35 OFFCURVE",
"52 83 OFFCURVE",
"26 146 OFFCURVE",
"26 182 QCURVE SMOOTH",
"26 695 LINE",
"388 695 LINE",
"388 363 LINE",
"732 363 LINE"
);
},
{
nodes = (
"56 182 LINE SMOOTH",
"56 150 OFFCURVE",
"80 95 OFFCURVE",
"121 54 OFFCURVE",
"176 30 OFFCURVE",
"207 30 QCURVE SMOOTH",
"238 30 OFFCURVE",
"293 54 OFFCURVE",
"334 95 OFFCURVE",
"358 150 OFFCURVE",
"358 182 QCURVE SMOOTH",
"358 665 LINE",
"56 665 LINE"
);
},
{
nodes = (
"814 30 LINE",
"777 55 OFFCURVE",
"732 134 OFFCURVE",
"732 182 QCURVE SMOOTH",
"732 333 LINE",
"388 333 LINE",
"388 182 LINE SMOOTH",
"388 134 OFFCURVE",
"344 55 OFFCURVE",
"307 30 QCURVE"
);
},
{
nodes = (
"762 182 LINE SMOOTH",
"762 150 OFFCURVE",
"786 95 OFFCURVE",
"827 54 OFFCURVE",
"882 30 OFFCURVE",
"913 30 QCURVE SMOOTH",
"944 30 OFFCURVE",
"1000 54 OFFCURVE",
"1041 95 OFFCURVE",
"1065 150 OFFCURVE",
"1065 182 QCURVE SMOOTH",
"1065 665 LINE",
"762 665 LINE"
);
},
{
nodes = (
"75 646 LINE",
"339 646 LINE",
"339 182 LINE SMOOTH",
"339 154 OFFCURVE",
"318 106 OFFCURVE",
"282 70 OFFCURVE",
"234 49 OFFCURVE",
"207 49 QCURVE SMOOTH",
"180 49 OFFCURVE",
"132 70 OFFCURVE",
"96 106 OFFCURVE",
"75 154 OFFCURVE",
"75 182 QCURVE SMOOTH"
);
},
{
nodes = (
"358 49 LINE",
"384 76 OFFCURVE",
"407 141 OFFCURVE",
"407 182 QCURVE SMOOTH",
"407 314 LINE",
"713 314 LINE",
"713 182 LINE SMOOTH",
"713 148 OFFCURVE",
"744 75 OFFCURVE",
"763 49 QCURVE"
);
},
{
nodes = (
"781 646 LINE",
"1046 646 LINE",
"1046 182 LINE SMOOTH",
"1046 154 OFFCURVE",
"1025 106 OFFCURVE",
"989 70 OFFCURVE",
"940 49 OFFCURVE",
"913 49 QCURVE SMOOTH",
"886 49 OFFCURVE",
"838 70 OFFCURVE",
"802 106 OFFCURVE",
"781 154 OFFCURVE",
"781 182 QCURVE SMOOTH"
);
}
);
width = 1118;
}
);
unicode = 0171;
},
{
glyphname = Uhungarumlaut;
layers = (
{
layerId = "AE796192-B776-4211-9DF5-23F45CECCAB6";
paths = (
{
nodes = (
"217 986 LINE",
"554 986 LINE",
"498 724 LINE",
"161 724 LINE"
);
},
{
nodes = (
"475 754 LINE",
"517 953 LINE",
"240 953 LINE",
"198 754 LINE"
);
},
{
nodes = (
"460 773 LINE",
"221 773 LINE",
"255 934 LINE",
"494 934 LINE"
);
},
{
nodes = (
"621 986 LINE",
"958 986 LINE",
"902 724 LINE",
"565 724 LINE"
);
},
{
nodes = (
"879 754 LINE",
"921 953 LINE",
"644 953 LINE",
"602 754 LINE"
);
},
{
nodes = (
"864 773 LINE",
"625 773 LINE",
"659 934 LINE",
"898 934 LINE"
);
},
{
nodes = (
"732 695 LINE",
"1095 695 LINE",
"1095 182 LINE SMOOTH",
"1095 146 OFFCURVE",
"1069 83 OFFCURVE",
"1024 34 OFFCURVE",
"963 3 OFFCURVE",
"928 0 QCURVE",
"192 1 LINE",
"157 4 OFFCURVE",
"97 35 OFFCURVE",
"52 83 OFFCURVE",
"26 146 OFFCURVE",
"26 182 QCURVE SMOOTH",
"26 695 LINE",
"388 695 LINE",
"388 363 LINE",
"732 363 LINE"
);
},
{
nodes = (
"56 182 LINE SMOOTH",
"56 150 OFFCURVE",
"80 95 OFFCURVE",
"121 54 OFFCURVE",
"176 30 OFFCURVE",
"207 30 QCURVE SMOOTH",
"238 30 OFFCURVE",
"293 54 OFFCURVE",
"334 95 OFFCURVE",
"358 150 OFFCURVE",
"358 182 QCURVE SMOOTH",
"358 665 LINE",
"56 665 LINE"
);
},
{
nodes = (
"814 30 LINE",
"777 55 OFFCURVE",
"732 134 OFFCURVE",
"732 182 QCURVE SMOOTH",
"732 333 LINE",
"388 333 LINE",
"388 182 LINE SMOOTH",
"388 134 OFFCURVE",
"344 55 OFFCURVE",
"307 30 QCURVE"
);
},
{
nodes = (
"762 182 LINE SMOOTH",
"762 150 OFFCURVE",
"786 95 OFFCURVE",
"827 54 OFFCURVE",
"882 30 OFFCURVE",
"913 30 QCURVE SMOOTH",
"944 30 OFFCURVE",
"1000 54 OFFCURVE",
"1041 95 OFFCURVE",
"1065 150 OFFCURVE",
"1065 182 QCURVE SMOOTH",
"1065 665 LINE",
"762 665 LINE"
);
},
{
nodes = (
"75 646 LINE",
"339 646 LINE",
"339 182 LINE SMOOTH",
"339 154 OFFCURVE",
"318 106 OFFCURVE",
"282 70 OFFCURVE",
"234 49 OFFCURVE",
"207 49 QCURVE SMOOTH",
"180 49 OFFCURVE",
"132 70 OFFCURVE",
"96 106 OFFCURVE",
"75 154 OFFCURVE",
"75 182 QCURVE SMOOTH"
);
},
{
nodes = (
"358 49 LINE",
"384 76 OFFCURVE",
"407 141 OFFCURVE",
"407 182 QCURVE SMOOTH",
"407 314 LINE",
"713 314 LINE",
"713 182 LINE SMOOTH",
"713 148 OFFCURVE",
"744 75 OFFCURVE",
"763 49 QCURVE"
);
},
{
nodes = (
"781 646 LINE",
"1046 646 LINE",
"1046 182 LINE SMOOTH",
"1046 154 OFFCURVE",
"1025 106 OFFCURVE",
"989 70 OFFCURVE",
"940 49 OFFCURVE",
"913 49 QCURVE SMOOTH",
"886 49 OFFCURVE",
"838 70 OFFCURVE",
"802 106 OFFCURVE",
"781 154 OFFCURVE",
"781 182 QCURVE SMOOTH"
);
}
);
width = 1118;
}
);
unicode = 0170;
},
{
glyphname = trademark;
layers = (
{
layerId = "AE796192-B776-4211-9DF5-23F45CECCAB6";
paths = (
{
nodes = (
"1023 372 LINE",
"842 372 LINE",
"842 447 LINE",
"823 424 OFFCURVE",
"782 378 OFFCURVE",
"767 359 QCURVE",
"692 447 LINE",
"692 372 LINE",
"512 372 LINE",
"512 695 LINE",
"679 695 LINE",
"767 591 LINE",
"855 695 LINE",
"1023 695 LINE"
);
},
{
nodes = (
"486 695 LINE",
"486 543 LINE",
"353 543 LINE",
"353 372 LINE",
"156 372 LINE",
"156 543 LINE",
"24 543 LINE",
"24 695 LINE"
);
},
{
nodes = (
"456 664 LINE",
"54 664 LINE",
"54 574 LINE",
"456 574 LINE"
);
},
{
nodes = (
"752 423 LINE",
"752 560 LINE",
"665 664 LINE",
"541 664 LINE",
"541 520 LINE",
"670 520 LINE"
);
},
{
nodes = (
"785 425 LINE",
"864 520 LINE",
"992 520 LINE",
"992 664 LINE",
"869 664 LINE",
"785 562 LINE"
);
},
{
nodes = (
"323 403 LINE",
"323 546 LINE",
"186 546 LINE",
"186 403 LINE"
);
},
{
nodes = (
"72 593 LINE",
"438 593 LINE",
"438 645 LINE",
"72 645 LINE"
);
},
{
nodes = (
"734 474 LINE",
"734 552 LINE",
"656 645 LINE",
"560 645 LINE",
"560 539 LINE",
"679 539 LINE"
);
},
{
nodes = (
"803 477 LINE",
"855 539 LINE",
"974 539 LINE",
"974 645 LINE",
"878 645 LINE",
"859 622 OFFCURVE",
"822 579 OFFCURVE",
"803 555 QCURVE"
);
},
{
nodes = (
"992 494 LINE",
"872 494 LINE",
"872 403 LINE",
"992 403 LINE"
);
},
{
nodes = (
"305 422 LINE",
"305 528 LINE",
"205 528 LINE",
"205 422 LINE"
);
},
{
nodes = (
"663 403 LINE",
"663 489 LINE",
"541 489 LINE",
"541 403 LINE"
);
},
{
nodes = (
"974 475 LINE",
"890 475 LINE",
"890 422 LINE",
"974 422 LINE"
);
},
{
nodes = (
"644 422 LINE",
"644 470 LINE",
"560 470 LINE",
"560 422 LINE"
);
}
);
width = 1075;
}
);
unicode = 2122;
},
{
glyphname = dagger;
layers = (
{
layerId = "AE796192-B776-4211-9DF5-23F45CECCAB6";
paths = (
{
nodes = (
"22 577 LINE",
"172 577 LINE",
"172 725 LINE",
"430 725 LINE",
"430 577 LINE",
"578 577 LINE",
"578 397 LINE",
"430 397 LINE",
"430 -188 LINE",
"172 -188 LINE",
"172 397 LINE",
"22 397 LINE"
);
},
{
nodes = (
"397 695 LINE",
"202 695 LINE",
"202 544 LINE",
"52 544 LINE",
"52 427 LINE",
"202 427 LINE",
"202 -158 LINE",
"397 -158 LINE",
"397 427 LINE",
"548 427 LINE",
"548 544 LINE",
"397 544 LINE"
);
},
{
nodes = (
"221 -139 LINE",
"221 446 LINE",
"71 446 LINE",
"71 525 LINE",
"221 525 LINE",
"221 676 LINE",
"378 676 LINE",
"378 525 LINE",
"529 525 LINE",
"529 446 LINE",
"378 446 LINE",
"378 -139 LINE"
);
}
);
width = 602;
}
);
unicode = 2020;
},
{
glyphname = daggerdbl;
layers = (
{
layerId = "AE796192-B776-4211-9DF5-23F45CECCAB6";
paths = (
{
nodes = (
"172 397 LINE",
"22 397 LINE",
"22 577 LINE",
"172 577 LINE",
"172 725 LINE",
"430 725 LINE",
"430 577 LINE",
"578 577 LINE",
"578 397 LINE",
"430 397 LINE",
"430 140 LINE",
"578 140 LINE",
"578 -40 LINE",
"430 -40 LINE",
"430 -188 LINE",
"172 -188 LINE",
"172 -40 LINE",
"22 -40 LINE",
"22 140 LINE",
"172 140 LINE"
);
},
{
nodes = (
"397 -7 LINE",
"548 -7 LINE",
"548 110 LINE",
"397 110 LINE",
"397 427 LINE",
"548 427 LINE",
"548 544 LINE",
"397 544 LINE",
"397 695 LINE",
"202 695 LINE",
"202 544 LINE",
"52 544 LINE",
"52 427 LINE",
"202 427 LINE",
"202 110 LINE",
"52 110 LINE",
"52 -7 LINE",
"202 -7 LINE",
"202 -158 LINE",
"397 -158 LINE"
);
},
{
nodes = (
"221 446 LINE",
"71 446 LINE",
"71 525 LINE",
"221 525 LINE",
"221 676 LINE",
"378 676 LINE",
"378 525 LINE",
"529 525 LINE",
"529 446 LINE",
"378 446 LINE",
"378 91 LINE",
"529 91 LINE",
"529 12 LINE",
"378 12 LINE",
"378 -139 LINE",
"221 -139 LINE",
"221 12 LINE",
"71 12 LINE",
"71 91 LINE",
"221 91 LINE"
);
}
);
width = 602;
}
);
unicode = 2021;
},
{
glyphname = lslash;
layers = (
{
layerId = "AE796192-B776-4211-9DF5-23F45CECCAB6";
paths = (
{
nodes = (
"578 409 LINE",
"432 345 LINE",
"432 280 LINE",
"889 280 LINE",
"889 0 LINE",
"28 0 LINE",
"28 167 LINE",
"-98 112 LINE",
"-98 320 LINE",
"28 375 LINE",
"28 695 LINE",
"432 695 LINE",
"432 553 LINE",
"578 618 LINE"
);
},
{
nodes = (
"402 30 LINE",
"402 364 LINE",
"542 426 LINE",
"542 563 LINE",
"402 503 LINE",
"402 665 LINE",
"58 665 LINE",
"58 353 LINE",
"-60 302 LINE",
"-60 165 LINE",
"28 203 LINE",
"28 204 LINE",
"58 217 LINE",
"58 30 LINE"
);
},
{
nodes = (
"859 250 LINE",
"432 250 LINE",
"432 30 LINE",
"859 30 LINE"
);
},
{
nodes = (
"77 49 LINE",
"77 225 LINE",
"383 356 LINE",
"383 49 LINE"
);
},
{
nodes = (
"840 231 LINE",
"840 49 LINE",
"451 49 LINE",
"451 231 LINE"
);
},
{
nodes = (
"77 646 LINE",
"383 646 LINE",
"383 494 LINE",
"77 361 LINE"
);
},
{
nodes = (
"-41 292 LINE",
"383 476 LINE",
"383 475 LINE",
"523 536 LINE",
"523 437 LINE",
"18 219 LINE",
"18 218 LINE",
"-41 193 LINE"
);
}
);
width = 914;
}
);
unicode = 0142;
},
{
glyphname = Lslash;
layers = (
{
layerId = "AE796192-B776-4211-9DF5-23F45CECCAB6";
paths = (
{
nodes = (
"578 409 LINE",
"432 345 LINE",
"432 280 LINE",
"889 280 LINE",
"889 0 LINE",
"28 0 LINE",
"28 167 LINE",
"-98 112 LINE",
"-98 320 LINE",
"28 375 LINE",
"28 695 LINE",
"432 695 LINE",
"432 553 LINE",
"578 618 LINE"
);
},
{
nodes = (
"402 30 LINE",
"402 364 LINE",
"542 426 LINE",
"542 563 LINE",
"402 503 LINE",
"402 665 LINE",
"58 665 LINE",
"58 353 LINE",
"-60 302 LINE",
"-60 165 LINE",
"28 203 LINE",
"28 204 LINE",
"58 217 LINE",
"58 30 LINE"
);
},
{
nodes = (
"859 250 LINE",
"432 250 LINE",
"432 30 LINE",
"859 30 LINE"
);
},
{
nodes = (
"77 49 LINE",
"77 225 LINE",
"383 356 LINE",
"383 49 LINE"
);
},
{
nodes = (
"840 231 LINE",
"840 49 LINE",
"451 49 LINE",
"451 231 LINE"
);
},
{
nodes = (
"77 646 LINE",
"383 646 LINE",
"383 494 LINE",
"77 361 LINE"
);
},
{
nodes = (
"-41 292 LINE",
"383 476 LINE",
"383 475 LINE",
"523 536 LINE",
"523 437 LINE",
"18 219 LINE",
"18 218 LINE",
"-41 193 LINE"
);
}
);
width = 914;
}
);
unicode = 0141;
},
{
glyphname = paragraph;
layers = (
{
layerId = "AE796192-B776-4211-9DF5-23F45CECCAB6";
paths = (
{
nodes = (
"529 -189 LINE",
"190 -189 LINE",
"190 333 LINE",
"155 336 OFFCURVE",
"94 366 OFFCURVE",
"49 414 OFFCURVE",
"23 477 OFFCURVE",
"23 513 QCURVE SMOOTH",
"23 549 OFFCURVE",
"49 612 OFFCURVE",
"95 661 OFFCURVE",
"156 692 OFFCURVE",
"191 695 QCURVE",
"529 695 LINE"
);
},
{
nodes = (
"612 695 LINE",
"975 695 LINE",
"975 -188 LINE",
"612 -188 LINE"
);
},
{
nodes = (
"500 665 LINE",
"304 665 LINE",
"339 641 OFFCURVE",
"384 566 OFFCURVE",
"386 521 QCURVE",
"378 454 OFFCURVE",
"349 401 OFFCURVE",
"306 361 OFFCURVE",
"250 336 OFFCURVE",
"219 333 QCURVE",
"219 -159 LINE",
"500 -159 LINE"
);
},
{
nodes = (
"238 316 LINE",
"294 325 OFFCURVE",
"345 365 QCURVE",
"409 426 OFFCURVE",
"405 531 QCURVE",
"403 563 OFFCURVE",
"376 623 OFFCURVE",
"356 646 QCURVE",
"480 646 LINE",
"480 -140 LINE",
"238 -140 LINE"
);
},
{
nodes = (
"53 482 OFFCURVE",
"77 427 OFFCURVE",
"118 386 OFFCURVE",
"173 362 OFFCURVE",
"205 362 QCURVE SMOOTH",
"235 362 OFFCURVE",
"289 384 OFFCURVE",
"330 423 OFFCURVE",
"354 476 OFFCURVE",
"356 506 QCURVE",
"355 541 OFFCURVE",
"330 599 OFFCURVE",
"289 641 OFFCURVE",
"235 665 OFFCURVE",
"205 665 QCURVE SMOOTH",
"173 665 OFFCURVE",
"118 641 OFFCURVE",
"77 600 OFFCURVE",
"53 544 OFFCURVE",
"53 513 QCURVE SMOOTH"
);
},
{
nodes = (
"72 540 OFFCURVE",
"93 589 OFFCURVE",
"129 625 OFFCURVE",
"177 646 OFFCURVE",
"205 646 QCURVE SMOOTH",
"231 646 OFFCURVE",
"277 625 OFFCURVE",
"313 588 OFFCURVE",
"335 536 OFFCURVE",
"337 506 QCURVE",
"335 480 OFFCURVE",
"314 434 OFFCURVE",
"278 400 OFFCURVE",
"231 381 OFFCURVE",
"205 381 QCURVE SMOOTH",
"177 381 OFFCURVE",
"129 402 OFFCURVE",
"93 438 OFFCURVE",
"72 486 OFFCURVE",
"72 513 QCURVE SMOOTH"
);
},
{
nodes = (
"945 -158 LINE",
"945 145 LINE",
"642 145 LINE",
"642 -158 LINE"
);
},
{
nodes = (
"642 665 LINE",
"642 175 LINE",
"945 175 LINE",
"945 665 LINE"
);
},
{
nodes = (
"926 -139 LINE",
"661 -139 LINE",
"661 126 LINE",
"926 126 LINE"
);
},
{
nodes = (
"661 646 LINE",
"926 646 LINE",
"926 194 LINE",
"661 194 LINE"
);
}
);
width = 1012;
}
);
unicode = 00B6;
},
{
glyphname = Uring;
layers = (
{
layerId = "AE796192-B776-4211-9DF5-23F45CECCAB6";
paths = (
{
nodes = (
"732 695 LINE",
"1095 695 LINE",
"1095 182 LINE SMOOTH",
"1095 146 OFFCURVE",
"1069 83 OFFCURVE",
"1024 34 OFFCURVE",
"963 3 OFFCURVE",
"928 0 QCURVE",
"192 1 LINE",
"157 4 OFFCURVE",
"97 35 OFFCURVE",
"52 83 OFFCURVE",
"26 146 OFFCURVE",
"26 182 QCURVE SMOOTH",
"26 695 LINE",
"388 695 LINE",
"388 363 LINE",
"732 363 LINE"
);
},
{
nodes = (
"56 182 LINE SMOOTH",
"56 150 OFFCURVE",
"80 95 OFFCURVE",
"121 54 OFFCURVE",
"176 30 OFFCURVE",
"207 30 QCURVE SMOOTH",
"238 30 OFFCURVE",
"293 54 OFFCURVE",
"334 95 OFFCURVE",
"358 150 OFFCURVE",
"358 182 QCURVE SMOOTH",
"358 665 LINE",
"56 665 LINE"
);
},
{
nodes = (
"814 30 LINE",
"777 55 OFFCURVE",
"732 134 OFFCURVE",
"732 182 QCURVE SMOOTH",
"732 333 LINE",
"388 333 LINE",
"388 182 LINE SMOOTH",
"388 134 OFFCURVE",
"344 55 OFFCURVE",
"307 30 QCURVE"
);
},
{
nodes = (
"762 182 LINE SMOOTH",
"762 150 OFFCURVE",
"786 95 OFFCURVE",
"827 54 OFFCURVE",
"882 30 OFFCURVE",
"913 30 QCURVE SMOOTH",
"944 30 OFFCURVE",
"1000 54 OFFCURVE",
"1041 95 OFFCURVE",
"1065 150 OFFCURVE",
"1065 182 QCURVE SMOOTH",
"1065 665 LINE",
"762 665 LINE"
);
},
{
nodes = (
"75 646 LINE",
"339 646 LINE",
"339 182 LINE SMOOTH",
"339 154 OFFCURVE",
"318 106 OFFCURVE",
"282 70 OFFCURVE",
"234 49 OFFCURVE",
"207 49 QCURVE SMOOTH",
"180 49 OFFCURVE",
"132 70 OFFCURVE",
"96 106 OFFCURVE",
"75 154 OFFCURVE",
"75 182 QCURVE SMOOTH"
);
},
{
nodes = (
"358 49 LINE",
"384 76 OFFCURVE",
"407 141 OFFCURVE",
"407 182 QCURVE SMOOTH",
"407 314 LINE",
"713 314 LINE",
"713 182 LINE SMOOTH",
"713 148 OFFCURVE",
"744 75 OFFCURVE",
"763 49 QCURVE"
);
},
{
nodes = (
"781 646 LINE",
"1046 646 LINE",
"1046 182 LINE SMOOTH",
"1046 154 OFFCURVE",
"1025 106 OFFCURVE",
"989 70 OFFCURVE",
"940 49 OFFCURVE",
"913 49 QCURVE SMOOTH",
"886 49 OFFCURVE",
"838 70 OFFCURVE",
"802 106 OFFCURVE",
"781 154 OFFCURVE",
"781 182 QCURVE SMOOTH"
);
},
{
nodes = (
"587 725 OFFCURVE",
"561 725 QCURVE SMOOTH",
"545 725 LINE SMOOTH",
"530 725 OFFCURVE",
"503 732 OFFCURVE",
"489 738 QCURVE SMOOTH",
"451 756 OFFCURVE",
"399 829 OFFCURVE",
"399 876 QCURVE SMOOTH",
"399 907 OFFCURVE",
"423 962 OFFCURVE",
"463 1003 OFFCURVE",
"516 1027 OFFCURVE",
"545 1027 QCURVE SMOOTH",
"561 1027 LINE SMOOTH",
"588 1027 OFFCURVE",
"639 1003 OFFCURVE",
"680 962 OFFCURVE",
"705 907 OFFCURVE",
"705 876 QCURVE SMOOTH",
"705 829 OFFCURVE",
"655 756 OFFCURVE",
"618 738 QCURVE"
);
},
{
nodes = (
"425 850 OFFCURVE",
"444 805 OFFCURVE",
"476 772 OFFCURVE",
"519 753 OFFCURVE",
"543 753 QCURVE SMOOTH",
"559 753 LINE SMOOTH",
"583 753 OFFCURVE",
"626 772 OFFCURVE",
"658 805 OFFCURVE",
"677 850 OFFCURVE",
"677 875 QCURVE SMOOTH",
"677 900 OFFCURVE",
"658 944 OFFCURVE",
"626 977 OFFCURVE",
"583 997 OFFCURVE",
"559 997 QCURVE SMOOTH",
"543 997 LINE SMOOTH",
"519 997 OFFCURVE",
"476 977 OFFCURVE",
"444 944 OFFCURVE",
"425 900 OFFCURVE",
"425 875 QCURVE SMOOTH"
);
},
{
nodes = (
"540 778 LINE SMOOTH",
"520 778 OFFCURVE",
"486 794 OFFCURVE",
"459 820 OFFCURVE",
"444 855 OFFCURVE",
"444 875 QCURVE SMOOTH",
"444 895 OFFCURVE",
"459 932 OFFCURVE",
"486 960 OFFCURVE",
"520 976 OFFCURVE",
"540 976 QCURVE SMOOTH",
"564 976 LINE SMOOTH",
"584 976 OFFCURVE",
"619 960 OFFCURVE",
"645 932 OFFCURVE",
"660 895 OFFCURVE",
"660 875 QCURVE SMOOTH",
"660 855 OFFCURVE",
"644 820 OFFCURVE",
"618 794 OFFCURVE",
"583 778 OFFCURVE",
"564 778 QCURVE SMOOTH"
);
},
{
nodes = (
"550 842 LINE SMOOTH",
"537 842 OFFCURVE",
"519 861 OFFCURVE",
"519 875 QCURVE SMOOTH",
"519 889 OFFCURVE",
"537 910 OFFCURVE",
"550 910 QCURVE SMOOTH",
"558 910 LINE SMOOTH",
"571 910 OFFCURVE",
"589 889 OFFCURVE",
"589 875 QCURVE SMOOTH",
"589 861 OFFCURVE",
"571 842 OFFCURVE",
"558 842 QCURVE SMOOTH"
);
},
{
nodes = (
"499 854 OFFCURVE",
"530 823 OFFCURVE",
"551 823 QCURVE SMOOTH",
"558 823 LINE SMOOTH",
"580 823 OFFCURVE",
"610 854 OFFCURVE",
"610 877 QCURVE SMOOTH",
"610 899 OFFCURVE",
"580 931 OFFCURVE",
"558 931 QCURVE SMOOTH",
"551 931 LINE SMOOTH",
"530 931 OFFCURVE",
"499 899 OFFCURVE",
"499 877 QCURVE SMOOTH"
);
}
);
width = 1118;
}
);
unicode = 016E;
},
{
glyphname = ring;
layers = (
{
layerId = "AE796192-B776-4211-9DF5-23F45CECCAB6";
paths = (
{
nodes = (
"539 725 OFFCURVE",
"513 725 QCURVE SMOOTH",
"497 725 LINE SMOOTH",
"482 725 OFFCURVE",
"455 732 OFFCURVE",
"441 738 QCURVE SMOOTH",
"403 756 OFFCURVE",
"351 829 OFFCURVE",
"351 876 QCURVE SMOOTH",
"351 907 OFFCURVE",
"375 962 OFFCURVE",
"415 1003 OFFCURVE",
"468 1027 OFFCURVE",
"497 1027 QCURVE SMOOTH",
"513 1027 LINE SMOOTH",
"540 1027 OFFCURVE",
"591 1003 OFFCURVE",
"632 962 OFFCURVE",
"657 907 OFFCURVE",
"657 876 QCURVE SMOOTH",
"657 829 OFFCURVE",
"607 756 OFFCURVE",
"570 738 QCURVE"
);
},
{
nodes = (
"377 850 OFFCURVE",
"396 805 OFFCURVE",
"428 772 OFFCURVE",
"471 753 OFFCURVE",
"495 753 QCURVE SMOOTH",
"511 753 LINE SMOOTH",
"535 753 OFFCURVE",
"578 772 OFFCURVE",
"610 805 OFFCURVE",
"629 850 OFFCURVE",
"629 875 QCURVE SMOOTH",
"629 900 OFFCURVE",
"610 944 OFFCURVE",
"578 977 OFFCURVE",
"535 997 OFFCURVE",
"511 997 QCURVE SMOOTH",
"495 997 LINE SMOOTH",
"471 997 OFFCURVE",
"428 977 OFFCURVE",
"396 944 OFFCURVE",
"377 900 OFFCURVE",
"377 875 QCURVE SMOOTH"
);
},
{
nodes = (
"492 775 LINE SMOOTH",
"451 775 OFFCURVE",
"395 833 OFFCURVE",
"395 874 QCURVE SMOOTH",
"395 895 OFFCURVE",
"410 932 OFFCURVE",
"436 961 OFFCURVE",
"472 978 OFFCURVE",
"492 978 QCURVE SMOOTH",
"516 978 LINE SMOOTH",
"537 978 OFFCURVE",
"572 961 OFFCURVE",
"599 932 OFFCURVE",
"614 895 OFFCURVE",
"614 874 QCURVE SMOOTH",
"614 854 OFFCURVE",
"598 818 OFFCURVE",
"571 791 OFFCURVE",
"535 775 OFFCURVE",
"516 775 QCURVE SMOOTH"
);
},
{
nodes = (
"498 833 LINE SMOOTH",
"480 833 OFFCURVE",
"453 858 OFFCURVE",
"453 877 QCURVE SMOOTH",
"453 896 OFFCURVE",
"480 926 OFFCURVE",
"498 926 QCURVE SMOOTH",
"510 926 LINE SMOOTH",
"527 926 OFFCURVE",
"555 896 OFFCURVE",
"555 877 QCURVE SMOOTH",
"555 858 OFFCURVE",
"527 833 OFFCURVE",
"510 833 QCURVE SMOOTH"
);
},
{
nodes = (
"436 850 OFFCURVE",
"475 813 OFFCURVE",
"501 813 QCURVE SMOOTH",
"509 813 LINE SMOOTH",
"536 813 OFFCURVE",
"574 850 OFFCURVE",
"574 879 QCURVE SMOOTH",
"574 905 OFFCURVE",
"536 944 OFFCURVE",
"509 944 QCURVE SMOOTH",
"501 944 LINE SMOOTH",
"475 944 OFFCURVE",
"436 905 OFFCURVE",
"436 879 QCURVE SMOOTH"
);
}
);
width = 1038;
}
);
unicode = 02DA;
},
{
glyphname = uring;
layers = (
{
layerId = "AE796192-B776-4211-9DF5-23F45CECCAB6";
paths = (
{
nodes = (
"732 695 LINE",
"1095 695 LINE",
"1095 182 LINE SMOOTH",
"1095 146 OFFCURVE",
"1069 83 OFFCURVE",
"1024 34 OFFCURVE",
"963 3 OFFCURVE",
"928 0 QCURVE",
"192 1 LINE",
"157 4 OFFCURVE",
"97 35 OFFCURVE",
"52 83 OFFCURVE",
"26 146 OFFCURVE",
"26 182 QCURVE SMOOTH",
"26 695 LINE",
"388 695 LINE",
"388 363 LINE",
"732 363 LINE"
);
},
{
nodes = (
"56 182 LINE SMOOTH",
"56 150 OFFCURVE",
"80 95 OFFCURVE",
"121 54 OFFCURVE",
"176 30 OFFCURVE",
"207 30 QCURVE SMOOTH",
"238 30 OFFCURVE",
"293 54 OFFCURVE",
"334 95 OFFCURVE",
"358 150 OFFCURVE",
"358 182 QCURVE SMOOTH",
"358 665 LINE",
"56 665 LINE"
);
},
{
nodes = (
"814 30 LINE",
"777 55 OFFCURVE",
"732 134 OFFCURVE",
"732 182 QCURVE SMOOTH",
"732 333 LINE",
"388 333 LINE",
"388 182 LINE SMOOTH",
"388 134 OFFCURVE",
"344 55 OFFCURVE",
"307 30 QCURVE"
);
},
{
nodes = (
"762 182 LINE SMOOTH",
"762 150 OFFCURVE",
"786 95 OFFCURVE",
"827 54 OFFCURVE",
"882 30 OFFCURVE",
"913 30 QCURVE SMOOTH",
"944 30 OFFCURVE",
"1000 54 OFFCURVE",
"1041 95 OFFCURVE",
"1065 150 OFFCURVE",
"1065 182 QCURVE SMOOTH",
"1065 665 LINE",
"762 665 LINE"
);
},
{
nodes = (
"75 646 LINE",
"339 646 LINE",
"339 182 LINE SMOOTH",
"339 154 OFFCURVE",
"318 106 OFFCURVE",
"282 70 OFFCURVE",
"234 49 OFFCURVE",
"207 49 QCURVE SMOOTH",
"180 49 OFFCURVE",
"132 70 OFFCURVE",
"96 106 OFFCURVE",
"75 154 OFFCURVE",
"75 182 QCURVE SMOOTH"
);
},
{
nodes = (
"358 49 LINE",
"384 76 OFFCURVE",
"407 141 OFFCURVE",
"407 182 QCURVE SMOOTH",
"407 314 LINE",
"713 314 LINE",
"713 182 LINE SMOOTH",
"713 148 OFFCURVE",
"744 75 OFFCURVE",
"763 49 QCURVE"
);
},
{
nodes = (
"781 646 LINE",
"1046 646 LINE",
"1046 182 LINE SMOOTH",
"1046 154 OFFCURVE",
"1025 106 OFFCURVE",
"989 70 OFFCURVE",
"940 49 OFFCURVE",
"913 49 QCURVE SMOOTH",
"886 49 OFFCURVE",
"838 70 OFFCURVE",
"802 106 OFFCURVE",
"781 154 OFFCURVE",
"781 182 QCURVE SMOOTH"
);
},
{
nodes = (
"587 725 OFFCURVE",
"561 725 QCURVE SMOOTH",
"545 725 LINE SMOOTH",
"530 725 OFFCURVE",
"503 732 OFFCURVE",
"489 738 QCURVE SMOOTH",
"451 756 OFFCURVE",
"399 829 OFFCURVE",
"399 876 QCURVE SMOOTH",
"399 907 OFFCURVE",
"423 962 OFFCURVE",
"463 1003 OFFCURVE",
"516 1027 OFFCURVE",
"545 1027 QCURVE SMOOTH",
"561 1027 LINE SMOOTH",
"588 1027 OFFCURVE",
"639 1003 OFFCURVE",
"680 962 OFFCURVE",
"705 907 OFFCURVE",
"705 876 QCURVE SMOOTH",
"705 829 OFFCURVE",
"655 756 OFFCURVE",
"618 738 QCURVE"
);
},
{
nodes = (
"425 850 OFFCURVE",
"444 805 OFFCURVE",
"476 772 OFFCURVE",
"519 753 OFFCURVE",
"543 753 QCURVE SMOOTH",
"559 753 LINE SMOOTH",
"583 753 OFFCURVE",
"626 772 OFFCURVE",
"658 805 OFFCURVE",
"677 850 OFFCURVE",
"677 875 QCURVE SMOOTH",
"677 900 OFFCURVE",
"658 944 OFFCURVE",
"626 977 OFFCURVE",
"583 997 OFFCURVE",
"559 997 QCURVE SMOOTH",
"543 997 LINE SMOOTH",
"519 997 OFFCURVE",
"476 977 OFFCURVE",
"444 944 OFFCURVE",
"425 900 OFFCURVE",
"425 875 QCURVE SMOOTH"
);
},
{
nodes = (
"540 778 LINE SMOOTH",
"520 778 OFFCURVE",
"486 794 OFFCURVE",
"459 820 OFFCURVE",
"444 855 OFFCURVE",
"444 875 QCURVE SMOOTH",
"444 895 OFFCURVE",
"459 932 OFFCURVE",
"486 960 OFFCURVE",
"520 976 OFFCURVE",
"540 976 QCURVE SMOOTH",
"564 976 LINE SMOOTH",
"584 976 OFFCURVE",
"619 960 OFFCURVE",
"645 932 OFFCURVE",
"660 895 OFFCURVE",
"660 875 QCURVE SMOOTH",
"660 855 OFFCURVE",
"644 820 OFFCURVE",
"618 794 OFFCURVE",
"583 778 OFFCURVE",
"564 778 QCURVE SMOOTH"
);
},
{
nodes = (
"550 842 LINE SMOOTH",
"537 842 OFFCURVE",
"519 861 OFFCURVE",
"519 875 QCURVE SMOOTH",
"519 889 OFFCURVE",
"537 910 OFFCURVE",
"550 910 QCURVE SMOOTH",
"558 910 LINE SMOOTH",
"571 910 OFFCURVE",
"589 889 OFFCURVE",
"589 875 QCURVE SMOOTH",
"589 861 OFFCURVE",
"571 842 OFFCURVE",
"558 842 QCURVE SMOOTH"
);
},
{
nodes = (
"499 854 OFFCURVE",
"530 823 OFFCURVE",
"551 823 QCURVE SMOOTH",
"558 823 LINE SMOOTH",
"580 823 OFFCURVE",
"610 854 OFFCURVE",
"610 877 QCURVE SMOOTH",
"610 899 OFFCURVE",
"580 931 OFFCURVE",
"558 931 QCURVE SMOOTH",
"551 931 LINE SMOOTH",
"530 931 OFFCURVE",
"499 899 OFFCURVE",
"499 877 QCURVE SMOOTH"
);
}
);
width = 1118;
}
);
unicode = 016F;
},
{
glyphname = undercommaaccent;
layers = (
{
layerId = "AE796192-B776-4211-9DF5-23F45CECCAB6";
paths = (
{
nodes = (
"516 -187 LINE",
"367 -287 LINE",
"367 -78 LINE",
"516 -78 LINE"
);
},
{
nodes = (
"535 -196 LINE",
"535 -59 LINE",
"348 -59 LINE",
"348 -324 LINE"
);
},
{
nodes = (
"565 -222 LINE",
"318 -385 LINE",
"318 -29 LINE",
"565 -29 LINE"
);
}
);
width = 900;
}
);
},
{
glyphname = Lcaron;
layers = (
{
layerId = "AE796192-B776-4211-9DF5-23F45CECCAB6";
paths = (
{
nodes = (
"432 695 LINE",
"432 280 LINE",
"889 280 LINE",
"889 0 LINE",
"28 0 LINE",
"28 695 LINE"
);
},
{
nodes = (
"859 250 LINE",
"432 250 LINE",
"432 30 LINE",
"859 30 LINE"
);
},
{
nodes = (
"402 30 LINE",
"402 665 LINE",
"58 665 LINE",
"58 30 LINE"
);
},
{
nodes = (
"840 231 LINE",
"840 49 LINE",
"451 49 LINE",
"451 231 LINE"
);
},
{
nodes = (
"383 49 LINE",
"77 49 LINE",
"77 646 LINE",
"383 646 LINE"
);
},
{
nodes = (
"498 986 LINE",
"835 986 LINE",
"779 724 LINE",
"158 724 LINE",
"102 986 LINE",
"439 986 LINE",
"468 847 LINE"
);
},
{
nodes = (
"139 953 LINE",
"181 754 LINE",
"756 754 LINE",
"798 953 LINE",
"521 953 LINE",
"483 776 LINE",
"453 776 LINE",
"416 953 LINE"
);
},
{
nodes = (
"741 773 LINE",
"502 773 LINE",
"536 934 LINE",
"775 934 LINE"
);
},
{
nodes = (
"162 934 LINE",
"401 934 LINE",
"435 773 LINE",
"196 773 LINE"
);
}
);
width = 914;
}
);
unicode = 013D;
},
{
glyphname = at;
layers = (
{
layerId = "AE796192-B776-4211-9DF5-23F45CECCAB6";
paths = (
{
nodes = (
"1045 -153 LINE",
"1010 -210 OFFCURVE",
"915 -300 OFFCURVE",
"800 -363 OFFCURVE",
"668 -396 OFFCURVE",
"596 -396 QCURVE SMOOTH",
"563 -396 LINE SMOOTH",
"464 -396 OFFCURVE",
"267 -319 OFFCURVE",
"111 -179 OFFCURVE",
"17 19 OFFCURVE",
"20 139 QCURVE SMOOTH",
"22 215 OFFCURVE",
"63 357 OFFCURVE",
"134 481 OFFCURVE",
"233 583 OFFCURVE",
"351 655 OFFCURVE",
"485 695 OFFCURVE",
"557 695 QCURVE SMOOTH",
"585 695 LINE SMOOTH",
"655 695 OFFCURVE",
"790 656 OFFCURVE",
"910 585 OFFCURVE",
"1012 485 OFFCURVE",
"1086 363 OFFCURVE",
"1127 222 OFFCURVE",
"1127 146 QCURVE SMOOTH",
"1127 89 OFFCURVE",
"1107 -16 OFFCURVE",
"1089 -64 QCURVE",
"401 -64 LINE",
"379 -63 OFFCURVE",
"342 -45 OFFCURVE",
"314 -15 OFFCURVE",
"298 24 OFFCURVE",
"298 46 QCURVE SMOOTH",
"298 90 OFFCURVE",
"345 143 OFFCURVE",
"384 151 QCURVE",
"384 197 LINE",
"298 197 LINE",
"298 333 LINE",
"696 333 LINE",
"736 331 OFFCURVE",
"806 301 OFFCURVE",
"857 250 OFFCURVE",
"888 182 OFFCURVE",
"890 142 QCURVE",
"954 142 LINE",
"954 146 LINE SMOOTH",
"954 223 OFFCURVE",
"893 360 OFFCURVE",
"790 463 OFFCURVE",
"656 521 OFFCURVE",
"583 519 QCURVE SMOOTH",
"548 518 LINE SMOOTH",
"477 516 OFFCURVE",
"347 457 OFFCURVE",
"249 358 OFFCURVE",
"191 224 OFFCURVE",
"191 147 QCURVE SMOOTH",
"191 69 OFFCURVE",
"252 -67 OFFCURVE",
"354 -168 OFFCURVE",
"486 -226 OFFCURVE",
"557 -226 QCURVE SMOOTH",
"602 -226 LINE SMOOTH",
"662 -226 OFFCURVE",
"759 -188 OFFCURVE",
"804 -153 QCURVE"
);
},
{
nodes = (
"836 -201 LINE",
"928 -201 LINE",
"899 -230 OFFCURVE",
"822 -281 OFFCURVE",
"735 -319 OFFCURVE",
"641 -343 OFFCURVE",
"595 -345 QCURVE",
"551 -345 LINE SMOOTH",
"491 -345 OFFCURVE",
"372 -310 OFFCURVE",
"265 -246 OFFCURVE",
"173 -158 OFFCURVE",
"105 -52 OFFCURVE",
"67 69 OFFCURVE",
"67 133 QCURVE SMOOTH",
"67 200 OFFCURVE",
"103 327 OFFCURVE",
"168 440 OFFCURVE",
"257 534 OFFCURVE",
"362 602 OFFCURVE",
"479 640 OFFCURVE",
"539 640 QCURVE SMOOTH",
"614 640 LINE SMOOTH",
"708 640 OFFCURVE",
"874 557 OFFCURVE",
"998 417 OFFCURVE",
"1070 233 OFFCURVE",
"1070 133 QCURVE SMOOTH",
"1070 127 LINE",
"466 127 LINE",
"486 114 OFFCURVE",
"510 72 OFFCURVE",
"510 46 QCURVE SMOOTH",
"510 21 OFFCURVE",
"486 -20 OFFCURVE",
"466 -34 QCURVE",
"1062 -34 LINE",
"1076 7 OFFCURVE",
"1092 93 OFFCURVE",
"1091 139 QCURVE SMOOTH",
"1089 250 OFFCURVE",
"1009 440 OFFCURVE",
"875 580 OFFCURVE",
"696 660 OFFCURVE",
"594 660 QCURVE SMOOTH",
"538 660 LINE SMOOTH",
"475 660 OFFCURVE",
"355 622 OFFCURVE",
"247 553 OFFCURVE",
"155 457 OFFCURVE",
"88 341 OFFCURVE",
"51 209 OFFCURVE",
"51 139 QCURVE SMOOTH",
"51 32 OFFCURVE",
"134 -151 OFFCURVE",
"273 -287 OFFCURVE",
"456 -364 OFFCURVE",
"556 -364 QCURVE SMOOTH",
"600 -364 LINE SMOOTH",
"713 -364 OFFCURVE",
"907 -264 OFFCURVE",
"975 -182 QCURVE",
"820 -182 LINE",
"771 -220 OFFCURVE",
"660 -261 OFFCURVE",
"594 -261 QCURVE SMOOTH",
"559 -261 LINE SMOOTH",
"477 -261 OFFCURVE",
"333 -195 OFFCURVE",
"225 -83 OFFCURVE",
"163 62 OFFCURVE",
"163 142 QCURVE SMOOTH",
"163 225 OFFCURVE",
"228 372 OFFCURVE",
"336 481 OFFCURVE",
"474 542 OFFCURVE",
"547 540 QCURVE SMOOTH",
"607 538 LINE SMOOTH",
"683 535 OFFCURVE",
"821 473 OFFCURVE",
"926 366 OFFCURVE",
"988 223 OFFCURVE",
"988 140 QCURVE",
"1005 140 LINE",
"1005 147 LINE SMOOTH",
"1005 232 OFFCURVE",
"941 382 OFFCURVE",
"830 495 OFFCURVE",
"682 561 OFFCURVE",
"598 561 QCURVE SMOOTH",
"553 561 LINE SMOOTH",
"472 561 OFFCURVE",
"323 496 OFFCURVE",
"209 385 OFFCURVE",
"142 236 OFFCURVE",
"142 151 QCURVE SMOOTH",
"142 62 OFFCURVE",
"207 -95 OFFCURVE",
"317 -212 OFFCURVE",
"464 -280 OFFCURVE",
"545 -280 QCURVE SMOOTH",
"597 -280 LINE SMOOTH",
"657 -280 OFFCURVE",
"785 -233 OFFCURVE",
"836 -200 QCURVE"
);
},
{
nodes = (
"861 143 LINE",
"859 177 OFFCURVE",
"830 235 OFFCURVE",
"784 279 OFFCURVE",
"752 292 QCURVE SMOOTH",
"725 302 OFFCURVE",
"694 304 QCURVE",
"326 304 LINE",
"326 223 LINE",
"416 223 LINE",
"417 143 LINE"
);
},
{
nodes = (
"510 -16 LINE",
"528 13 OFFCURVE",
"528 46 QCURVE SMOOTH",
"528 65 OFFCURVE",
"519 92 OFFCURVE",
"510 106 QCURVE",
"1069 107 LINE",
"1063 45 OFFCURVE",
"1042 -16 QCURVE"
);
},
{
nodes = (
"432 161 LINE",
"432 240 LINE",
"344 240 LINE",
"344 284 LINE",
"694 284 LINE",
"748 281 OFFCURVE",
"827 215 OFFCURVE",
"838 161 QCURVE"
);
},
{
nodes = (
"328 30 OFFCURVE",
"342 1 OFFCURVE",
"364 -20 OFFCURVE",
"394 -34 OFFCURVE",
"411 -34 QCURVE SMOOTH",
"428 -34 OFFCURVE",
"458 -20 OFFCURVE",
"481 1 OFFCURVE",
"494 30 OFFCURVE",
"494 46 QCURVE SMOOTH",
"494 63 OFFCURVE",
"481 93 OFFCURVE",
"458 114 OFFCURVE",
"428 127 OFFCURVE",
"411 127 QCURVE SMOOTH",
"394 127 OFFCURVE",
"364 114 OFFCURVE",
"342 93 OFFCURVE",
"328 63 OFFCURVE",
"328 46 QCURVE SMOOTH"
);
},
{
nodes = (
"346 73 OFFCURVE",
"384 110 OFFCURVE",
"411 110 QCURVE SMOOTH",
"438 110 OFFCURVE",
"477 73 OFFCURVE",
"477 46 QCURVE SMOOTH",
"477 20 OFFCURVE",
"438 -16 OFFCURVE",
"411 -16 QCURVE SMOOTH",
"384 -16 OFFCURVE",
"346 20 OFFCURVE",
"346 46 QCURVE SMOOTH"
);
}
);
width = 1162;
}
);
unicode = 0040;
},
{
glyphname = hungarumlaut;
layers = (
{
layerId = "AE796192-B776-4211-9DF5-23F45CECCAB6";
paths = (
{
nodes = (
"255 986 LINE",
"592 986 LINE",
"536 724 LINE",
"199 724 LINE"
);
},
{
nodes = (
"513 754 LINE",
"555 953 LINE",
"278 953 LINE",
"236 754 LINE"
);
},
{
nodes = (
"498 773 LINE",
"259 773 LINE",
"293 934 LINE",
"532 934 LINE"
);
},
{
nodes = (
"659 986 LINE",
"996 986 LINE",
"940 724 LINE",
"603 724 LINE"
);
},
{
nodes = (
"917 754 LINE",
"959 953 LINE",
"682 953 LINE",
"640 754 LINE"
);
},
{
nodes = (
"902 773 LINE",
"663 773 LINE",
"697 934 LINE",
"936 934 LINE"
);
}
);
width = 1218;
}
);
unicode = 02DD;
},
{
glyphname = divide;
layers = (
{
layerId = "AE796192-B776-4211-9DF5-23F45CECCAB6";
paths = (
{
nodes = (
"308 21 OFFCURVE",
"282 17 OFFCURVE",
"269 17 QCURVE SMOOTH",
"254 17 LINE SMOOTH",
"241 17 OFFCURVE",
"216 21 OFFCURVE",
"205 28 QCURVE",
"171 43 OFFCURVE",
"126 106 OFFCURVE",
"126 148 QCURVE SMOOTH",
"126 179 OFFCURVE",
"152 231 OFFCURVE",
"174 249 QCURVE",
"17 249 LINE",
"17 419 LINE",
"169 419 LINE",
"149 436 OFFCURVE",
"126 486 OFFCURVE",
"126 516 QCURVE SMOOTH",
"126 543 OFFCURVE",
"146 591 OFFCURVE",
"181 625 OFFCURVE",
"228 645 OFFCURVE",
"254 645 QCURVE SMOOTH",
"269 645 LINE SMOOTH",
"295 645 OFFCURVE",
"342 625 OFFCURVE",
"377 591 OFFCURVE",
"398 543 OFFCURVE",
"398 516 QCURVE SMOOTH",
"398 486 OFFCURVE",
"376 436 OFFCURVE",
"356 419 QCURVE",
"505 419 LINE",
"505 249 LINE",
"349 249 LINE",
"371 231 OFFCURVE",
"398 179 OFFCURVE",
"398 148 QCURVE SMOOTH",
"398 106 OFFCURVE",
"355 43 OFFCURVE",
"321 28 QCURVE"
);
},
{
nodes = (
"475 279 LINE",
"475 386 LINE",
"47 386 LINE",
"47 279 LINE"
);
},
{
nodes = (
"161 497 OFFCURVE",
"176 462 OFFCURVE",
"201 436 OFFCURVE",
"235 421 OFFCURVE",
"255 421 QCURVE SMOOTH",
"267 421 LINE SMOOTH",
"286 421 OFFCURVE",
"320 436 OFFCURVE",
"346 462 OFFCURVE",
"361 497 OFFCURVE",
"361 517 QCURVE SMOOTH",
"361 537 OFFCURVE",
"346 573 OFFCURVE",
"320 599 OFFCURVE",
"286 614 OFFCURVE",
"267 614 QCURVE SMOOTH",
"255 614 LINE SMOOTH",
"235 614 OFFCURVE",
"201 599 OFFCURVE",
"176 573 OFFCURVE",
"161 537 OFFCURVE",
"161 517 QCURVE SMOOTH"
);
},
{
nodes = (
"161 129 OFFCURVE",
"176 94 OFFCURVE",
"201 68 OFFCURVE",
"235 53 OFFCURVE",
"255 53 QCURVE SMOOTH",
"267 53 LINE SMOOTH",
"286 53 OFFCURVE",
"320 68 OFFCURVE",
"346 94 OFFCURVE",
"361 129 OFFCURVE",
"361 149 QCURVE SMOOTH",
"361 169 OFFCURVE",
"346 205 OFFCURVE",
"320 231 OFFCURVE",
"286 246 OFFCURVE",
"267 246 QCURVE SMOOTH",
"255 246 LINE SMOOTH",
"235 246 OFFCURVE",
"201 231 OFFCURVE",
"176 205 OFFCURVE",
"161 169 OFFCURVE",
"161 149 QCURVE SMOOTH"
);
},
{
nodes = (
"456 298 LINE",
"66 298 LINE",
"66 367 LINE",
"456 367 LINE"
);
},
{
nodes = (
"253 445 LINE SMOOTH",
"239 445 OFFCURVE",
"213 457 OFFCURVE",
"194 476 OFFCURVE",
"185 502 OFFCURVE",
"185 518 QCURVE SMOOTH",
"185 533 OFFCURVE",
"194 557 OFFCURVE",
"213 578 OFFCURVE",
"239 589 OFFCURVE",
"253 589 QCURVE SMOOTH",
"269 589 LINE SMOOTH",
"283 589 OFFCURVE",
"310 578 OFFCURVE",
"327 557 OFFCURVE",
"337 533 OFFCURVE",
"337 518 QCURVE SMOOTH",
"337 502 OFFCURVE",
"327 476 OFFCURVE",
"309 457 OFFCURVE",
"283 445 OFFCURVE",
"269 445 QCURVE SMOOTH"
);
},
{
nodes = (
"253 77 LINE SMOOTH",
"239 77 OFFCURVE",
"213 89 OFFCURVE",
"194 108 OFFCURVE",
"185 134 OFFCURVE",
"185 150 QCURVE SMOOTH",
"185 165 OFFCURVE",
"194 189 OFFCURVE",
"213 210 OFFCURVE",
"239 221 OFFCURVE",
"253 221 QCURVE SMOOTH",
"269 221 LINE SMOOTH",
"283 221 OFFCURVE",
"310 210 OFFCURVE",
"327 189 OFFCURVE",
"337 165 OFFCURVE",
"337 150 QCURVE SMOOTH",
"337 134 OFFCURVE",
"327 108 OFFCURVE",
"309 89 OFFCURVE",
"283 77 OFFCURVE",
"269 77 QCURVE SMOOTH"
);
}
);
width = 533;
}
);
unicode = 00F7;
},
{
glyphname = multiply;
layers = (
{
layerId = "AE796192-B776-4211-9DF5-23F45CECCAB6";
paths = (
{
nodes = (
"197 583 LINE",
"268 512 LINE",
"342 587 LINE",
"507 421 LINE",
"433 347 LINE",
"507 273 LINE",
"350 116 LINE",
"276 190 LINE",
"192 107 LINE",
"26 273 LINE",
"111 355 LINE",
"40 426 LINE"
);
},
{
nodes = (
"463 423 LINE",
"342 544 LINE",
"265 468 LINE",
"195 539 LINE",
"82 426 LINE",
"153 355 LINE",
"69 273 LINE",
"190 152 LINE",
"274 235 LINE",
"350 158 LINE",
"463 271 LINE",
"386 347 LINE"
);
},
{
nodes = (
"96 273 LINE",
"180 355 LINE",
"109 426 LINE",
"195 512 LINE",
"265 441 LINE",
"342 517 LINE",
"436 423 LINE",
"360 347 LINE",
"436 271 LINE",
"350 185 LINE",
"274 261 LINE",
"190 179 LINE"
);
}
);
width = 529;
}
);
unicode = 00D7;
},
{
glyphname = ellipsis;
layers = (
{
layerId = "AE796192-B776-4211-9DF5-23F45CECCAB6";
paths = (
{
nodes = (
"20 194 LINE",
"266 194 LINE",
"266 0 LINE",
"20 0 LINE"
);
},
{
nodes = (
"236 30 LINE",
"236 161 LINE",
"50 161 LINE",
"50 30 LINE"
);
},
{
nodes = (
"217 49 LINE",
"69 49 LINE",
"69 142 LINE",
"217 142 LINE"
);
},
{
nodes = (
"303 194 LINE",
"549 194 LINE",
"549 0 LINE",
"303 0 LINE"
);
},
{
nodes = (
"519 30 LINE",
"519 161 LINE",
"333 161 LINE",
"333 30 LINE"
);
},
{
nodes = (
"500 49 LINE",
"352 49 LINE",
"352 142 LINE",
"500 142 LINE"
);
},
{
nodes = (
"586 194 LINE",
"832 194 LINE",
"832 0 LINE",
"586 0 LINE"
);
},
{
nodes = (
"802 30 LINE",
"802 161 LINE",
"616 161 LINE",
"616 30 LINE"
);
},
{
nodes = (
"783 49 LINE",
"635 49 LINE",
"635 142 LINE",
"783 142 LINE"
);
}
);
width = 849;
}
);
unicode = 2026;
},
{
glyphname = quotedblbase;
layers = (
{
layerId = "AE796192-B776-4211-9DF5-23F45CECCAB6";
paths = (
{
nodes = (
"218 35 LINE",
"69 -65 LINE",
"69 144 LINE",
"218 144 LINE"
);
},
{
nodes = (
"237 26 LINE",
"237 163 LINE",
"50 163 LINE",
"50 -102 LINE"
);
},
{
nodes = (
"267 0 LINE",
"20 -163 LINE",
"20 193 LINE",
"267 193 LINE"
);
},
{
nodes = (
"510 35 LINE",
"361 -65 LINE",
"361 144 LINE",
"510 144 LINE"
);
},
{
nodes = (
"529 26 LINE",
"529 163 LINE",
"342 163 LINE",
"342 -102 LINE"
);
},
{
nodes = (
"559 0 LINE",
"312 -163 LINE",
"312 193 LINE",
"559 193 LINE"
);
}
);
width = 597;
}
);
unicode = 201E;
},
{
glyphname = eth;
layers = (
{
layerId = "AE796192-B776-4211-9DF5-23F45CECCAB6";
paths = (
{
nodes = (
"185 695 LINE",
"937 695 LINE SMOOTH",
"997 695 OFFCURVE",
"1106 657 OFFCURVE",
"1195 588 OFFCURVE",
"1259 492 OFFCURVE",
"1274 434 QCURVE SMOOTH",
"1292 365 OFFCURVE",
"1271 229 OFFCURVE",
"1203 114 OFFCURVE",
"1094 29 OFFCURVE",
"1024 11 QCURVE SMOOTH",
"986 1 OFFCURVE",
"952 0 QCURVE",
"185 0 LINE",
"185 249 LINE",
"26 249 LINE",
"24 451 LINE",
"185 451 LINE"
);
},
{
nodes = (
"952 446 LINE",
"952 249 LINE",
"635 249 LINE",
"651 200 OFFCURVE",
"711 120 OFFCURVE",
"789 63 OFFCURVE",
"883 31 OFFCURVE",
"933 30 QCURVE",
"942 30 LINE SMOOTH",
"961 30 OFFCURVE",
"998 35 OFFCURVE",
"1017 40 QCURVE SMOOTH",
"1080 56 OFFCURVE",
"1180 134 OFFCURVE",
"1242 239 OFFCURVE",
"1261 363 OFFCURVE",
"1245 427 QCURVE SMOOTH",
"1231 479 OFFCURVE",
"1173 567 OFFCURVE",
"1091 630 OFFCURVE",
"991 665 OFFCURVE",
"937 665 QCURVE SMOOTH",
"215 665 LINE",
"215 446 LINE"
);
},
{
nodes = (
"1013 58 LINE",
"996 54 OFFCURVE",
"961 49 OFFCURVE",
"942 49 QCURVE SMOOTH",
"933 49 LINE",
"889 50 OFFCURVE",
"806 76 OFFCURVE",
"736 122 OFFCURVE",
"680 189 OFFCURVE",
"662 230 QCURVE",
"971 230 LINE",
"971 465 LINE",
"234 465 LINE",
"234 646 LINE",
"937 646 LINE SMOOTH",
"988 646 OFFCURVE",
"1082 613 OFFCURVE",
"1159 554 OFFCURVE",
"1214 471 OFFCURVE",
"1227 422 QCURVE SMOOTH",
"1236 386 OFFCURVE",
"1236 348 QCURVE SMOOTH",
"1236 298 OFFCURVE",
"1204 205 OFFCURVE",
"1145 128 OFFCURVE",
"1063 71 OFFCURVE",
"1012 58 QCURVE"
);
},
{
nodes = (
"797 30 LINE",
"728 60 OFFCURVE",
"627 173 OFFCURVE",
"604 249 QCURVE",
"215 249 LINE",
"215 30 LINE"
);
},
{
nodes = (
"922 279 LINE",
"922 416 LINE",
"62 416 LINE",
"62 279 LINE"
);
},
{
nodes = (
"234 49 LINE",
"234 230 LINE",
"590 230 LINE",
"609 173 OFFCURVE",
"678 81 OFFCURVE",
"724 49 QCURVE"
);
},
{
nodes = (
"903 397 LINE",
"903 298 LINE",
"81 298 LINE",
"81 397 LINE"
);
}
);
width = 1311;
}
);
unicode = 00F0;
},
{
glyphname = O;
layers = (
{
layerId = "AE796192-B776-4211-9DF5-23F45CECCAB6";
paths = (
{
nodes = (
"843 694 LINE",
"910 691 OFFCURVE",
"1028 638 OFFCURVE",
"1118 548 OFFCURVE",
"1172 429 OFFCURVE",
"1175 362 QCURVE",
"1175 332 LINE",
"1172 264 OFFCURVE",
"1118 146 OFFCURVE",
"1028 57 OFFCURVE",
"910 3 OFFCURVE",
"843 0 QCURVE",
"370 0 LINE SMOOTH",
"298 0 OFFCURVE",
"172 55 OFFCURVE",
"78 149 OFFCURVE",
"23 275 OFFCURVE",
"23 347 QCURVE SMOOTH",
"23 419 OFFCURVE",
"78 546 OFFCURVE",
"172 640 OFFCURVE",
"298 695 OFFCURVE",
"370 695 QCURVE SMOOTH",
"843 695 LINE"
);
},
{
nodes = (
"1145 362 LINE",
"1142 425 OFFCURVE",
"1090 535 OFFCURVE",
"1004 618 OFFCURVE",
"892 665 OFFCURVE",
"828 665 QCURVE SMOOTH",
"764 665 OFFCURVE",
"651 618 OFFCURVE",
"565 535 OFFCURVE",
"513 425 OFFCURVE",
"510 362 QCURVE"
);
},
{
nodes = (
"687 30 LINE",
"643 49 OFFCURVE",
"569 111 OFFCURVE",
"515 189 OFFCURVE",
"483 281 OFFCURVE",
"481 332 QCURVE",
"480 332 LINE",
"480 362 LINE",
"481 362 LINE",
"483 413 OFFCURVE",
"515 505 OFFCURVE",
"569 583 OFFCURVE",
"643 645 OFFCURVE",
"687 665 QCURVE",
"370 665 LINE SMOOTH",
"304 665 OFFCURVE",
"189 615 OFFCURVE",
"103 528 OFFCURVE",
"53 413 OFFCURVE",
"53 347 QCURVE SMOOTH",
"53 281 OFFCURVE",
"103 166 OFFCURVE",
"189 80 OFFCURVE",
"304 30 OFFCURVE",
"370 30 QCURVE SMOOTH"
);
},
{
nodes = (
"892 30 OFFCURVE",
"1004 77 OFFCURVE",
"1090 159 OFFCURVE",
"1142 269 OFFCURVE",
"1145 332 QCURVE",
"510 332 LINE",
"513 269 OFFCURVE",
"565 159 OFFCURVE",
"651 77 OFFCURVE",
"764 30 OFFCURVE",
"828 30 QCURVE SMOOTH"
);
},
{
nodes = (
"885 646 OFFCURVE",
"987 605 OFFCURVE",
"1066 533 OFFCURVE",
"1118 436 OFFCURVE",
"1124 381 QCURVE",
"531 381 LINE",
"537 437 OFFCURVE",
"589 534 OFFCURVE",
"668 605 OFFCURVE",
"771 646 OFFCURVE",
"828 646 QCURVE SMOOTH"
);
},
{
nodes = (
"370 49 LINE SMOOTH",
"308 49 OFFCURVE",
"200 96 OFFCURVE",
"119 177 OFFCURVE",
"72 285 OFFCURVE",
"72 347 QCURVE SMOOTH",
"72 409 OFFCURVE",
"119 518 OFFCURVE",
"200 599 OFFCURVE",
"308 646 OFFCURVE",
"370 646 QCURVE SMOOTH",
"616 646 LINE",
"549 598 OFFCURVE",
"465 450 OFFCURVE",
"462 362 QCURVE SMOOTH",
"461 331 LINE",
"465 242 OFFCURVE",
"546 97 OFFCURVE",
"616 49 QCURVE"
);
},
{
nodes = (
"771 49 OFFCURVE",
"668 90 OFFCURVE",
"589 161 OFFCURVE",
"537 257 OFFCURVE",
"531 313 QCURVE",
"1124 313 LINE",
"1118 257 OFFCURVE",
"1067 161 OFFCURVE",
"987 90 OFFCURVE",
"885 49 OFFCURVE",
"828 49 QCURVE SMOOTH"
);
}
);
width = 1195;
}
);
unicode = 004F;
},
